<?xml version="1.0" encoding="UTF-8" standalone="no"?>
<!DOCTYPE svg PUBLIC "-//W3C//DTD SVG 1.1//EN" "http://www.w3.org/Graphics/SVG/1.1/DTD/svg11.dtd">
<svg width="100%" height="100%" viewBox="0 0 44 50" version="1.1" xmlns="http://www.w3.org/2000/svg" xmlns:xlink="http://www.w3.org/1999/xlink" xml:space="preserve" xmlns:serif="http://www.serif.com/" style="fill-rule:evenodd;clip-rule:evenodd;stroke-linejoin:round;stroke-miterlimit:2;">
    <g transform="matrix(1,0,0,1,-360.288,-278.283)">
        <g transform="matrix(0.792732,0,0,1.71387,77.6238,-198.345)">
            <path d="M373.145,306.636C365.029,296.329 365.543,286.624 368.936,280.109C368.936,280.11 375.991,282.372 375.991,282.372L376.437,282.286C380.815,281.44 385.252,280.489 391.411,281.798L392.057,281.935L396.999,278.899C399.818,281.898 408.678,292.601 401.585,305.028L403.292,305.237C411.197,291.387 399.691,279.636 397.996,277.93L397.379,277.309L391.494,280.923C385.297,279.727 380.693,280.578 376.202,281.446C376.202,281.446 367.853,278.768 367.853,278.768L367.535,279.335C363.807,285.962 362.98,296.115 371.485,306.916L373.145,306.636Z"/>
        </g>
        <g transform="matrix(0.817517,0,0,0.817517,67.3704,53.3439)">
            <circle cx="376.899" cy="295.028" r="2.366"/>
        </g>
        <g transform="matrix(0.817517,0,0,0.817517,79.6718,51.4094)">
            <circle cx="376.899" cy="295.028" r="2.366"/>
        </g>
        <g transform="matrix(0.817517,0,0,0.817517,69.7929,52.0741)">
            <path d="M380.597,303.823C381.624,303.339 382.367,302.426 382.71,301.126C383.691,302.186 384.955,302.82 386.504,303.026L387.353,303.138L387.578,301.441L386.729,301.328C384.85,301.079 383.561,299.949 382.802,298.019L381.155,298.43C381.378,300.366 380.989,301.744 379.866,302.275L379.092,302.641L379.823,304.189L380.597,303.823Z"/>
        </g>
        <path d="M393.376,296.868L404.013,292.856L403.519,291.546L392.882,295.558L393.376,296.868Z"/>
        <g transform="matrix(0.928781,0.370628,-0.370628,0.928781,137.418,-120.93)">
            <path d="M393.376,296.868L404.013,292.856L403.519,291.546L392.882,295.558L393.376,296.868Z"/>
        </g>
        <g transform="matrix(0.928781,0.370628,-0.370628,0.928781,104.242,-122.503)">
            <path d="M393.376,296.868L404.013,292.856L403.519,291.546L392.882,295.558L393.376,296.868Z"/>
        </g>
        <g transform="matrix(0.998359,-0.057269,0.057269,0.998359,-46.5181,33.2508)">
            <path d="M393.376,296.868L404.013,292.856L403.519,291.546L392.882,295.558L393.376,296.868Z"/>
        </g>
    </g>
</svg>
