<?xml version="1.0" encoding="UTF-8" standalone="no"?>
<!DOCTYPE svg PUBLIC "-//W3C//DTD SVG 1.1//EN" "http://www.w3.org/Graphics/SVG/1.1/DTD/svg11.dtd">
<svg width="100%" height="100%" viewBox="0 0 49 33" version="1.1" xmlns="http://www.w3.org/2000/svg" xmlns:xlink="http://www.w3.org/1999/xlink" xml:space="preserve" xmlns:serif="http://www.serif.com/" style="fill-rule:evenodd;clip-rule:evenodd;stroke-linejoin:round;stroke-miterlimit:2;">
    <g transform="matrix(1,0,0,1,-102.134,-184.988)">
        <g transform="matrix(-1,0,0,1,252.392,0)">
            <g transform="matrix(12,0,0,12,101.815,193.718)">
                <path d="M0.256,0.01C0.208,0.01 0.166,0.001 0.129,-0.019C0.093,-0.038 0.066,-0.065 0.048,-0.099C0.03,-0.133 0.023,-0.172 0.028,-0.215L0.134,-0.215C0.131,-0.176 0.141,-0.144 0.163,-0.119C0.186,-0.094 0.218,-0.081 0.26,-0.081C0.289,-0.081 0.316,-0.088 0.341,-0.101C0.366,-0.115 0.387,-0.134 0.405,-0.157C0.422,-0.181 0.433,-0.209 0.438,-0.239C0.445,-0.285 0.439,-0.323 0.419,-0.353C0.399,-0.383 0.368,-0.397 0.325,-0.397C0.288,-0.397 0.254,-0.39 0.223,-0.375C0.193,-0.36 0.17,-0.338 0.155,-0.309L0.053,-0.309L0.146,-0.728L0.582,-0.728L0.566,-0.635L0.228,-0.635L0.177,-0.42L0.178,-0.42C0.203,-0.443 0.229,-0.46 0.255,-0.471C0.282,-0.483 0.311,-0.488 0.344,-0.488C0.389,-0.488 0.428,-0.478 0.461,-0.457C0.493,-0.436 0.517,-0.407 0.532,-0.37C0.547,-0.333 0.55,-0.29 0.542,-0.241C0.534,-0.192 0.517,-0.149 0.491,-0.111C0.465,-0.073 0.432,-0.043 0.392,-0.022C0.352,-0 0.307,0.01 0.256,0.01Z" style="fill-rule:nonzero;"/>
            </g>
            <g transform="matrix(12,0,0,12,108.823,193.718)">
                <path d="M0.256,0.01C0.208,0.01 0.166,0.001 0.129,-0.019C0.093,-0.038 0.066,-0.065 0.048,-0.099C0.03,-0.133 0.023,-0.172 0.028,-0.215L0.134,-0.215C0.131,-0.176 0.141,-0.144 0.163,-0.119C0.186,-0.094 0.218,-0.081 0.26,-0.081C0.289,-0.081 0.316,-0.088 0.341,-0.101C0.366,-0.115 0.387,-0.134 0.405,-0.157C0.422,-0.181 0.433,-0.209 0.438,-0.239C0.445,-0.285 0.439,-0.323 0.419,-0.353C0.399,-0.383 0.368,-0.397 0.325,-0.397C0.288,-0.397 0.254,-0.39 0.223,-0.375C0.193,-0.36 0.17,-0.338 0.155,-0.309L0.053,-0.309L0.146,-0.728L0.582,-0.728L0.566,-0.635L0.228,-0.635L0.177,-0.42L0.178,-0.42C0.203,-0.443 0.229,-0.46 0.255,-0.471C0.282,-0.483 0.311,-0.488 0.344,-0.488C0.389,-0.488 0.428,-0.478 0.461,-0.457C0.493,-0.436 0.517,-0.407 0.532,-0.37C0.547,-0.333 0.55,-0.29 0.542,-0.241C0.534,-0.192 0.517,-0.149 0.491,-0.111C0.465,-0.073 0.432,-0.043 0.392,-0.022C0.352,-0 0.307,0.01 0.256,0.01Z" style="fill-rule:nonzero;"/>
            </g>
            <g transform="matrix(12,0,0,12,115.83,193.718)">
                <path d="M0.256,0.01C0.208,0.01 0.166,0.001 0.129,-0.019C0.093,-0.038 0.066,-0.065 0.048,-0.099C0.03,-0.133 0.023,-0.172 0.028,-0.215L0.134,-0.215C0.131,-0.176 0.141,-0.144 0.163,-0.119C0.186,-0.094 0.218,-0.081 0.26,-0.081C0.289,-0.081 0.316,-0.088 0.341,-0.101C0.366,-0.115 0.387,-0.134 0.405,-0.157C0.422,-0.181 0.433,-0.209 0.438,-0.239C0.445,-0.285 0.439,-0.323 0.419,-0.353C0.399,-0.383 0.368,-0.397 0.325,-0.397C0.288,-0.397 0.254,-0.39 0.223,-0.375C0.193,-0.36 0.17,-0.338 0.155,-0.309L0.053,-0.309L0.146,-0.728L0.582,-0.728L0.566,-0.635L0.228,-0.635L0.177,-0.42L0.178,-0.42C0.203,-0.443 0.229,-0.46 0.255,-0.471C0.282,-0.483 0.311,-0.488 0.344,-0.488C0.389,-0.488 0.428,-0.478 0.461,-0.457C0.493,-0.436 0.517,-0.407 0.532,-0.37C0.547,-0.333 0.55,-0.29 0.542,-0.241C0.534,-0.192 0.517,-0.149 0.491,-0.111C0.465,-0.073 0.432,-0.043 0.392,-0.022C0.352,-0 0.307,0.01 0.256,0.01Z" style="fill-rule:nonzero;"/>
            </g>
            <g transform="matrix(12,0,0,12,128.557,193.718)">
                <path d="M0.024,-0L0.145,-0.728L0.253,-0.728L0.148,-0.095L0.492,-0.095L0.477,-0L0.024,-0Z" style="fill-rule:nonzero;"/>
            </g>
            <g transform="matrix(12,0,0,12,135.067,193.718)">
                <path d="M0.024,-0L0.145,-0.728L0.634,-0.728L0.618,-0.632L0.237,-0.632L0.202,-0.418L0.554,-0.418L0.539,-0.324L0.186,-0.324L0.148,-0.095L0.529,-0.095L0.513,-0L0.024,-0Z" style="fill-rule:nonzero;"/>
            </g>
            <g transform="matrix(12,0,0,12,142.11,193.718)">
                <path d="M0.276,-0L0.024,-0L0.145,-0.728L0.382,-0.728C0.453,-0.728 0.513,-0.713 0.56,-0.684C0.608,-0.654 0.641,-0.613 0.661,-0.558C0.681,-0.504 0.684,-0.44 0.672,-0.365C0.653,-0.252 0.61,-0.163 0.543,-0.098C0.476,-0.033 0.387,-0 0.276,-0ZM0.148,-0.094L0.268,-0.094C0.353,-0.094 0.42,-0.118 0.469,-0.166C0.517,-0.214 0.549,-0.28 0.563,-0.365C0.577,-0.449 0.57,-0.515 0.543,-0.562C0.516,-0.61 0.461,-0.633 0.38,-0.633L0.237,-0.633L0.148,-0.094Z" style="fill-rule:nonzero;"/>
            </g>
            <g transform="matrix(12,0,0,12,101.815,205.718)">
                <path d="M0.34,0.012C0.281,0.012 0.23,-0.001 0.187,-0.026C0.143,-0.051 0.11,-0.085 0.086,-0.13C0.063,-0.175 0.051,-0.228 0.051,-0.288C0.051,-0.347 0.061,-0.403 0.08,-0.457C0.099,-0.511 0.127,-0.559 0.162,-0.602C0.197,-0.644 0.24,-0.678 0.289,-0.702C0.338,-0.727 0.393,-0.739 0.453,-0.739C0.507,-0.739 0.553,-0.729 0.594,-0.708C0.635,-0.688 0.666,-0.658 0.689,-0.62C0.712,-0.582 0.723,-0.537 0.723,-0.485L0.614,-0.485C0.611,-0.535 0.595,-0.573 0.566,-0.6C0.536,-0.627 0.497,-0.64 0.449,-0.64C0.404,-0.64 0.363,-0.63 0.328,-0.61C0.292,-0.59 0.261,-0.564 0.236,-0.53C0.211,-0.496 0.192,-0.459 0.179,-0.417C0.166,-0.375 0.159,-0.333 0.159,-0.29C0.159,-0.228 0.175,-0.179 0.207,-0.142C0.239,-0.106 0.285,-0.087 0.346,-0.087C0.396,-0.087 0.442,-0.101 0.483,-0.127C0.523,-0.154 0.553,-0.192 0.573,-0.241L0.683,-0.241C0.666,-0.19 0.641,-0.145 0.606,-0.107C0.572,-0.069 0.532,-0.04 0.487,-0.019C0.441,0.001 0.392,0.012 0.34,0.012Z" style="fill-rule:nonzero;"/>
            </g>
            <g transform="matrix(12,0,0,12,110.51,205.718)">
                <path d="M0.024,-0L0.145,-0.728L0.253,-0.728L0.202,-0.419L0.563,-0.419L0.615,-0.728L0.723,-0.728L0.603,-0L0.494,-0L0.548,-0.325L0.186,-0.325L0.132,-0L0.024,-0Z" style="fill-rule:nonzero;"/>
            </g>
            <g transform="matrix(12,0,0,12,119.053,205.718)">
                <path d="M-0.035,-0L0.35,-0.728L0.481,-0.728L0.623,-0L0.509,-0L0.476,-0.189L0.183,-0.189L0.085,-0L-0.035,-0ZM0.23,-0.281L0.46,-0.281L0.437,-0.41C0.432,-0.44 0.427,-0.472 0.422,-0.506C0.416,-0.541 0.41,-0.581 0.404,-0.628C0.381,-0.581 0.362,-0.541 0.345,-0.506C0.328,-0.472 0.312,-0.44 0.297,-0.41L0.23,-0.281Z" style="fill-rule:nonzero;"/>
            </g>
            <g transform="matrix(12,0,0,12,127.075,205.718)">
                <path d="M0.279,0.012C0.191,0.012 0.125,-0.01 0.081,-0.055C0.037,-0.099 0.021,-0.159 0.034,-0.236L0.141,-0.236C0.133,-0.188 0.142,-0.151 0.167,-0.124C0.193,-0.097 0.232,-0.083 0.285,-0.083C0.336,-0.083 0.378,-0.094 0.412,-0.116C0.447,-0.138 0.467,-0.167 0.473,-0.204C0.478,-0.231 0.471,-0.253 0.454,-0.27C0.436,-0.287 0.403,-0.301 0.354,-0.313L0.277,-0.333C0.207,-0.351 0.157,-0.375 0.128,-0.407C0.099,-0.44 0.088,-0.482 0.097,-0.534C0.104,-0.575 0.12,-0.611 0.146,-0.642C0.173,-0.673 0.206,-0.697 0.247,-0.714C0.287,-0.731 0.333,-0.739 0.384,-0.739C0.464,-0.739 0.524,-0.719 0.565,-0.678C0.606,-0.637 0.622,-0.581 0.612,-0.51L0.508,-0.51C0.512,-0.552 0.503,-0.585 0.479,-0.609C0.456,-0.633 0.422,-0.645 0.377,-0.645C0.332,-0.645 0.294,-0.634 0.261,-0.612C0.229,-0.59 0.21,-0.562 0.204,-0.528C0.2,-0.502 0.207,-0.482 0.224,-0.466C0.242,-0.451 0.275,-0.437 0.323,-0.425L0.398,-0.406C0.468,-0.388 0.518,-0.363 0.549,-0.329C0.579,-0.296 0.589,-0.252 0.581,-0.198C0.573,-0.156 0.556,-0.119 0.529,-0.087C0.502,-0.056 0.467,-0.031 0.425,-0.014C0.382,0.003 0.334,0.012 0.279,0.012Z" style="fill-rule:nonzero;"/>
            </g>
            <g transform="matrix(12,0,0,12,134.604,205.718)">
                <path d="M0.024,-0L0.145,-0.728L0.634,-0.728L0.618,-0.632L0.237,-0.632L0.202,-0.418L0.554,-0.418L0.539,-0.324L0.186,-0.324L0.148,-0.095L0.529,-0.095L0.513,-0L0.024,-0Z" style="fill-rule:nonzero;"/>
            </g>
            <g transform="matrix(12,0,0,12,141.647,205.718)">
                <path d="M0.024,-0L0.145,-0.728L0.418,-0.728C0.496,-0.728 0.555,-0.707 0.595,-0.667C0.635,-0.626 0.649,-0.571 0.637,-0.501C0.629,-0.45 0.609,-0.407 0.577,-0.371C0.545,-0.336 0.505,-0.31 0.457,-0.293L0.565,-0L0.452,-0L0.353,-0.275L0.178,-0.275L0.132,-0L0.024,-0ZM0.193,-0.368L0.357,-0.368C0.404,-0.368 0.443,-0.38 0.474,-0.405C0.505,-0.43 0.523,-0.463 0.53,-0.504C0.537,-0.545 0.529,-0.577 0.506,-0.6C0.483,-0.622 0.448,-0.634 0.4,-0.634L0.237,-0.634L0.193,-0.368Z" style="fill-rule:nonzero;"/>
            </g>
        </g>
        <g transform="matrix(-0.715409,0,0,0.715409,223.345,78.8175)">
            <g transform="matrix(12,0,0,12,101.815,193.718)">
                <path d="M0.268,-0.728L0.268,-0L0.204,-0L0.204,-0.66L0.203,-0.66L0.029,-0.544L0.029,-0.613L0.201,-0.728L0.268,-0.728Z" style="fill-rule:nonzero;"/>
            </g>
            <g transform="matrix(12,0,0,12,105.934,193.718)">
                <path d="M0.106,0.007C0.092,0.007 0.08,0.003 0.071,-0.007C0.061,-0.017 0.056,-0.028 0.056,-0.042C0.056,-0.056 0.061,-0.068 0.071,-0.077C0.08,-0.087 0.092,-0.091 0.106,-0.091C0.12,-0.091 0.131,-0.087 0.141,-0.077C0.15,-0.068 0.155,-0.056 0.155,-0.042C0.155,-0.028 0.15,-0.017 0.141,-0.007C0.131,0.003 0.12,0.007 0.106,0.007Z" style="fill-rule:nonzero;"/>
            </g>
            <g transform="matrix(12,0,0,12,108.313,193.718)">
                <path d="M0.291,0.011C0.243,0.011 0.2,0.002 0.163,-0.017C0.125,-0.036 0.096,-0.063 0.074,-0.096C0.053,-0.13 0.042,-0.169 0.042,-0.213L0.109,-0.213C0.109,-0.162 0.126,-0.122 0.159,-0.092C0.192,-0.063 0.235,-0.048 0.29,-0.048C0.344,-0.048 0.388,-0.062 0.421,-0.09C0.455,-0.118 0.472,-0.155 0.472,-0.2C0.472,-0.228 0.463,-0.253 0.447,-0.275C0.43,-0.297 0.406,-0.314 0.377,-0.326C0.347,-0.338 0.313,-0.344 0.274,-0.344L0.231,-0.344L0.231,-0.404L0.274,-0.404C0.325,-0.404 0.367,-0.416 0.4,-0.44C0.432,-0.464 0.449,-0.497 0.449,-0.537C0.449,-0.58 0.434,-0.615 0.404,-0.641C0.374,-0.667 0.335,-0.68 0.287,-0.68C0.237,-0.68 0.198,-0.666 0.168,-0.638C0.138,-0.61 0.123,-0.573 0.123,-0.526L0.059,-0.526C0.059,-0.568 0.069,-0.604 0.088,-0.636C0.108,-0.668 0.135,-0.693 0.169,-0.711C0.204,-0.73 0.243,-0.739 0.287,-0.739C0.33,-0.739 0.369,-0.73 0.403,-0.713C0.438,-0.696 0.464,-0.673 0.484,-0.643C0.504,-0.613 0.514,-0.579 0.514,-0.541C0.514,-0.502 0.501,-0.468 0.477,-0.438C0.452,-0.409 0.418,-0.388 0.375,-0.376L0.375,-0.375C0.424,-0.366 0.463,-0.346 0.493,-0.314C0.522,-0.282 0.537,-0.244 0.537,-0.2C0.537,-0.159 0.526,-0.123 0.505,-0.091C0.484,-0.059 0.455,-0.034 0.417,-0.016C0.38,0.002 0.338,0.011 0.291,0.011Z" style="fill-rule:nonzero;"/>
            </g>
            <g transform="matrix(12,0,0,12,114.911,193.718)">
                <path d="M0.106,0.007C0.092,0.007 0.08,0.003 0.071,-0.007C0.061,-0.017 0.056,-0.028 0.056,-0.042C0.056,-0.056 0.061,-0.068 0.071,-0.077C0.08,-0.087 0.092,-0.091 0.106,-0.091C0.12,-0.091 0.131,-0.087 0.141,-0.077C0.15,-0.068 0.155,-0.056 0.155,-0.042C0.155,-0.028 0.15,-0.017 0.141,-0.007C0.131,0.003 0.12,0.007 0.106,0.007Z" style="fill-rule:nonzero;"/>
            </g>
            <g transform="matrix(12,0,0,12,117.489,193.718)">
                <path d="M0.042,-0L0.042,-0.057L0.3,-0.299C0.333,-0.331 0.36,-0.359 0.381,-0.382C0.401,-0.406 0.416,-0.429 0.426,-0.45C0.435,-0.472 0.44,-0.496 0.44,-0.521C0.44,-0.569 0.425,-0.607 0.396,-0.636C0.366,-0.665 0.326,-0.679 0.276,-0.679C0.224,-0.679 0.183,-0.663 0.152,-0.631C0.122,-0.599 0.107,-0.557 0.107,-0.505L0.044,-0.505C0.044,-0.551 0.054,-0.591 0.073,-0.626C0.093,-0.661 0.12,-0.689 0.155,-0.709C0.189,-0.729 0.23,-0.739 0.276,-0.739C0.32,-0.739 0.359,-0.729 0.394,-0.711C0.428,-0.692 0.455,-0.667 0.474,-0.635C0.493,-0.602 0.503,-0.565 0.503,-0.523C0.503,-0.493 0.497,-0.465 0.486,-0.438C0.475,-0.41 0.458,-0.383 0.435,-0.354C0.411,-0.326 0.381,-0.295 0.344,-0.26L0.133,-0.061L0.133,-0.06L0.51,-0.06L0.51,-0L0.042,-0Z" style="fill-rule:nonzero;"/>
            </g>
            <g transform="matrix(12,0,0,12,124.121,193.718)">
                <path d="M0.297,0.01C0.245,0.01 0.2,-0.005 0.161,-0.036C0.123,-0.067 0.093,-0.111 0.072,-0.167C0.05,-0.222 0.04,-0.288 0.04,-0.363C0.04,-0.439 0.05,-0.505 0.072,-0.561C0.093,-0.617 0.123,-0.66 0.161,-0.691C0.2,-0.722 0.245,-0.738 0.297,-0.738C0.349,-0.738 0.394,-0.722 0.433,-0.691C0.471,-0.66 0.501,-0.617 0.522,-0.561C0.544,-0.505 0.554,-0.439 0.554,-0.363C0.554,-0.288 0.544,-0.222 0.522,-0.167C0.501,-0.111 0.471,-0.067 0.433,-0.036C0.394,-0.005 0.349,0.01 0.297,0.01ZM0.297,-0.049C0.337,-0.049 0.371,-0.062 0.4,-0.088C0.429,-0.114 0.451,-0.15 0.468,-0.197C0.484,-0.244 0.492,-0.299 0.492,-0.363C0.492,-0.427 0.484,-0.483 0.468,-0.53C0.451,-0.577 0.429,-0.614 0.4,-0.64C0.371,-0.665 0.337,-0.678 0.297,-0.678C0.258,-0.678 0.224,-0.665 0.194,-0.64C0.165,-0.614 0.142,-0.577 0.126,-0.53C0.111,-0.483 0.103,-0.427 0.103,-0.363C0.103,-0.299 0.111,-0.244 0.126,-0.197C0.142,-0.15 0.165,-0.114 0.194,-0.088C0.224,-0.062 0.258,-0.049 0.297,-0.049Z" style="fill-rule:nonzero;"/>
            </g>
            <g transform="matrix(12,0,0,12,131.252,193.718)">
                <path d="M0.042,-0L0.042,-0.057L0.3,-0.299C0.333,-0.331 0.36,-0.359 0.381,-0.382C0.401,-0.406 0.416,-0.429 0.426,-0.45C0.435,-0.472 0.44,-0.496 0.44,-0.521C0.44,-0.569 0.425,-0.607 0.396,-0.636C0.366,-0.665 0.326,-0.679 0.276,-0.679C0.224,-0.679 0.183,-0.663 0.152,-0.631C0.122,-0.599 0.107,-0.557 0.107,-0.505L0.044,-0.505C0.044,-0.551 0.054,-0.591 0.073,-0.626C0.093,-0.661 0.12,-0.689 0.155,-0.709C0.189,-0.729 0.23,-0.739 0.276,-0.739C0.32,-0.739 0.359,-0.729 0.394,-0.711C0.428,-0.692 0.455,-0.667 0.474,-0.635C0.493,-0.602 0.503,-0.565 0.503,-0.523C0.503,-0.493 0.497,-0.465 0.486,-0.438C0.475,-0.41 0.458,-0.383 0.435,-0.354C0.411,-0.326 0.381,-0.295 0.344,-0.26L0.133,-0.061L0.133,-0.06L0.51,-0.06L0.51,-0L0.042,-0Z" style="fill-rule:nonzero;"/>
            </g>
            <g transform="matrix(12,0,0,12,137.885,193.718)">
                <path d="M0.287,0.01C0.211,0.01 0.151,-0.019 0.106,-0.078C0.062,-0.136 0.04,-0.221 0.04,-0.333C0.04,-0.389 0.044,-0.443 0.054,-0.492C0.064,-0.541 0.079,-0.584 0.1,-0.621C0.121,-0.658 0.147,-0.687 0.18,-0.707C0.212,-0.728 0.251,-0.738 0.297,-0.738C0.357,-0.738 0.406,-0.721 0.446,-0.687C0.485,-0.652 0.508,-0.607 0.514,-0.551L0.45,-0.551C0.443,-0.59 0.426,-0.62 0.4,-0.644C0.374,-0.667 0.341,-0.678 0.301,-0.678C0.236,-0.678 0.187,-0.649 0.153,-0.592C0.119,-0.534 0.102,-0.454 0.103,-0.353L0.104,-0.353C0.118,-0.386 0.143,-0.413 0.178,-0.433C0.213,-0.454 0.252,-0.464 0.295,-0.464C0.338,-0.464 0.377,-0.454 0.411,-0.434C0.446,-0.413 0.473,-0.385 0.493,-0.349C0.513,-0.314 0.523,-0.273 0.523,-0.228C0.523,-0.183 0.513,-0.142 0.493,-0.106C0.473,-0.07 0.446,-0.042 0.41,-0.021C0.375,-0 0.334,0.01 0.287,0.01ZM0.287,-0.049C0.319,-0.049 0.348,-0.057 0.375,-0.073C0.401,-0.09 0.421,-0.111 0.437,-0.138C0.452,-0.165 0.459,-0.195 0.459,-0.228C0.459,-0.261 0.452,-0.291 0.437,-0.318C0.421,-0.345 0.401,-0.366 0.375,-0.381C0.349,-0.397 0.32,-0.405 0.287,-0.405C0.254,-0.405 0.224,-0.397 0.197,-0.38C0.17,-0.364 0.149,-0.342 0.134,-0.314C0.119,-0.287 0.113,-0.257 0.115,-0.224C0.118,-0.189 0.128,-0.159 0.144,-0.133C0.159,-0.106 0.179,-0.086 0.204,-0.071C0.229,-0.057 0.257,-0.049 0.287,-0.049Z" style="fill-rule:nonzero;"/>
            </g>
        </g>
    </g>
</svg>
