M48
; DRILL file {KiCad 9.0.6} date 2026-01-03T20:02:19-0800
; FORMAT={-:-/ absolute / metric / decimal}
; #@! TF.CreationDate,2026-01-03T20:02:19-08:00
; #@! TF.GenerationSoftware,Kicad,Pcbnew,9.0.6
; #@! TF.FileFunction,Plated,1,2,PTH
FMAT,2
METRIC
; #@! TA.AperFunction,Plated,PTH,ViaDrill
T1C0.300
; #@! TA.AperFunction,Plated,PTH,ComponentDrill
T2C0.787
; #@! TA.AperFunction,Plated,PTH,ComponentDrill
T3C0.800
; #@! TA.AperFunction,Plated,PTH,ComponentDrill
T4C0.900
; #@! TA.AperFunction,Plated,PTH,ComponentDrill
T5C1.000
%
G90
G05
T1
X205.1Y-46.8
X208.956Y-50.156
X210.1Y-47.6
X210.356Y-48.756
X211.0Y-50.641
X211.4Y-44.5
X212.304Y-48.504
X212.6Y-45.7
X213.5Y-47.6
X216.9Y-44.4
X220.626Y-59.726
X223.2Y-59.9
X223.6Y-58.6
X224.6Y-50.3
X228.5Y-46.2
X229.656Y-59.956
X230.3Y-51.6
T2
X218.68Y-44.74
X218.68Y-47.28
X218.68Y-49.82
X218.68Y-52.36
X218.68Y-54.9
X218.68Y-57.44
X218.68Y-59.98
X218.68Y-62.52
X226.3Y-44.74
X226.3Y-47.28
X226.3Y-49.82
X226.3Y-52.36
X226.3Y-54.9
X226.3Y-57.44
X226.3Y-59.98
X226.3Y-62.52
T3
X201.21Y-60.96
X202.4Y-46.79
X202.4Y-54.41
X207.28Y-45.06
X207.28Y-47.6
X207.28Y-50.14
X207.28Y-52.68
X207.39Y-56.8
X208.83Y-60.96
X208.845Y-39.1
X210.845Y-39.1
X214.9Y-45.06
X214.9Y-47.6
X214.9Y-50.14
X214.9Y-52.68
X215.01Y-56.8
X217.5Y-39.3
X219.5Y-39.3
T4
X194.13Y-58.7
X194.16Y-46.5
X196.67Y-58.7
X196.7Y-46.5
X201.43Y-68.4
X201.53Y-36.9
X203.97Y-68.4
X204.07Y-36.9
X212.86Y-72.3
X212.93Y-33.1
X215.4Y-72.3
X215.47Y-33.1
X224.26Y-37.0
X224.33Y-68.8
X226.8Y-37.0
X226.87Y-68.8
X231.56Y-58.9
X231.63Y-46.6
X234.1Y-58.9
X234.17Y-46.6
T5
X214.2Y-62.2
X214.2Y-65.8
M30
