%TF.GenerationSoftware,KiCad,Pcbnew,9.0.6*%
%TF.CreationDate,2026-01-03T20:02:15-08:00*%
%TF.ProjectId,Chaser,43686173-6572-42e6-9b69-6361645f7063,rev?*%
%TF.SameCoordinates,Original*%
%TF.FileFunction,Legend,Bot*%
%TF.FilePolarity,Positive*%
%FSLAX46Y46*%
G04 Gerber Fmt 4.6, Leading zero omitted, Abs format (unit mm)*
G04 Created by KiCad (PCBNEW 9.0.6) date 2026-01-03 20:02:15*
%MOMM*%
%LPD*%
G01*
G04 APERTURE LIST*
G04 Aperture macros list*
%AMRoundRect*
0 Rectangle with rounded corners*
0 $1 Rounding radius*
0 $2 $3 $4 $5 $6 $7 $8 $9 X,Y pos of 4 corners*
0 Add a 4 corners polygon primitive as box body*
4,1,4,$2,$3,$4,$5,$6,$7,$8,$9,$2,$3,0*
0 Add four circle primitives for the rounded corners*
1,1,$1+$1,$2,$3*
1,1,$1+$1,$4,$5*
1,1,$1+$1,$6,$7*
1,1,$1+$1,$8,$9*
0 Add four rect primitives between the rounded corners*
20,1,$1+$1,$2,$3,$4,$5,0*
20,1,$1+$1,$4,$5,$6,$7,0*
20,1,$1+$1,$6,$7,$8,$9,0*
20,1,$1+$1,$8,$9,$2,$3,0*%
G04 Aperture macros list end*
%ADD10C,0.000000*%
%ADD11R,1.800000X1.800000*%
%ADD12C,1.800000*%
%ADD13C,1.600000*%
%ADD14R,1.700000X1.700000*%
%ADD15RoundRect,0.250000X-0.550000X-0.550000X0.550000X-0.550000X0.550000X0.550000X-0.550000X0.550000X0*%
%ADD16R,1.295400X1.295400*%
%ADD17C,1.295400*%
G04 APERTURE END LIST*
D10*
G36*
X206605630Y-65180281D02*
G01*
X206626488Y-65180910D01*
X206647080Y-65181962D01*
X206667401Y-65183441D01*
X206687448Y-65185349D01*
X206707219Y-65187690D01*
X206726710Y-65190468D01*
X206745917Y-65193685D01*
X206764838Y-65197345D01*
X206783470Y-65201451D01*
X206801808Y-65206006D01*
X206819850Y-65211014D01*
X206837593Y-65216477D01*
X206855032Y-65222400D01*
X206872166Y-65228784D01*
X206888991Y-65235635D01*
X206905869Y-65242901D01*
X206922337Y-65250532D01*
X206938401Y-65258528D01*
X206954068Y-65266889D01*
X206969345Y-65275614D01*
X206984237Y-65284703D01*
X206998752Y-65294158D01*
X207012895Y-65303977D01*
X207026674Y-65314160D01*
X207040095Y-65324708D01*
X207053164Y-65335621D01*
X207065888Y-65346899D01*
X207078273Y-65358541D01*
X207090327Y-65370547D01*
X207102055Y-65382919D01*
X207113463Y-65395655D01*
X207124038Y-65408703D01*
X207134095Y-65422012D01*
X207143638Y-65435582D01*
X207152670Y-65449412D01*
X207161193Y-65463502D01*
X207169213Y-65477853D01*
X207176730Y-65492464D01*
X207183750Y-65507336D01*
X207190275Y-65522468D01*
X207196308Y-65537860D01*
X207201853Y-65553513D01*
X207206913Y-65569427D01*
X207211491Y-65585601D01*
X207215590Y-65602035D01*
X207219214Y-65618730D01*
X207222366Y-65635685D01*
X207225597Y-65657094D01*
X207227792Y-65677986D01*
X207228959Y-65698364D01*
X207229103Y-65718230D01*
X207228232Y-65737588D01*
X207226351Y-65756442D01*
X207223467Y-65774795D01*
X207219588Y-65792649D01*
X207214719Y-65810008D01*
X207208866Y-65826876D01*
X207202037Y-65843256D01*
X207194238Y-65859150D01*
X207185474Y-65874563D01*
X207175754Y-65889497D01*
X207165084Y-65903956D01*
X207153469Y-65917942D01*
X207140837Y-65931070D01*
X207127115Y-65943788D01*
X207112306Y-65956101D01*
X207096413Y-65968018D01*
X207079438Y-65979544D01*
X207061387Y-65990686D01*
X207042260Y-66001450D01*
X207022063Y-66011843D01*
X207000798Y-66021871D01*
X206978468Y-66031542D01*
X206955077Y-66040860D01*
X206930628Y-66049834D01*
X206905124Y-66058469D01*
X206878569Y-66066772D01*
X206850965Y-66074749D01*
X206822316Y-66082407D01*
X206651183Y-66126857D01*
X206631180Y-66131910D01*
X206612007Y-66137071D01*
X206593661Y-66142343D01*
X206576139Y-66147728D01*
X206559437Y-66153230D01*
X206543553Y-66158853D01*
X206528482Y-66164600D01*
X206514222Y-66170474D01*
X206500769Y-66176478D01*
X206488120Y-66182615D01*
X206476273Y-66188889D01*
X206465223Y-66195303D01*
X206454967Y-66201861D01*
X206445502Y-66208565D01*
X206436825Y-66215418D01*
X206428933Y-66222425D01*
X206422111Y-66229639D01*
X206415815Y-66237114D01*
X206410054Y-66244849D01*
X206404833Y-66252845D01*
X206400159Y-66261102D01*
X206396039Y-66269618D01*
X206392478Y-66278395D01*
X206389484Y-66287433D01*
X206387063Y-66296731D01*
X206385221Y-66306289D01*
X206383966Y-66316108D01*
X206383303Y-66326188D01*
X206383239Y-66336528D01*
X206383780Y-66347128D01*
X206384934Y-66357989D01*
X206386706Y-66369110D01*
X206389571Y-66384320D01*
X206393169Y-66399118D01*
X206397503Y-66413505D01*
X206402576Y-66427485D01*
X206408391Y-66441062D01*
X206414952Y-66454238D01*
X206422261Y-66467016D01*
X206430322Y-66479401D01*
X206439139Y-66491395D01*
X206448714Y-66503002D01*
X206459051Y-66514225D01*
X206470154Y-66525067D01*
X206482024Y-66535531D01*
X206494666Y-66545620D01*
X206508083Y-66555339D01*
X206522278Y-66564690D01*
X206536656Y-66573571D01*
X206551453Y-66581879D01*
X206566673Y-66589615D01*
X206582321Y-66596777D01*
X206598397Y-66603366D01*
X206614907Y-66609383D01*
X206631853Y-66614826D01*
X206649239Y-66619696D01*
X206667067Y-66623994D01*
X206685341Y-66627718D01*
X206704065Y-66630870D01*
X206723241Y-66633448D01*
X206742873Y-66635454D01*
X206762964Y-66636886D01*
X206783517Y-66637746D01*
X206804536Y-66638032D01*
X206826258Y-66637668D01*
X206847254Y-66636578D01*
X206867527Y-66634765D01*
X206887081Y-66632233D01*
X206905918Y-66628984D01*
X206924043Y-66625023D01*
X206941458Y-66620351D01*
X206958166Y-66614974D01*
X206974171Y-66608893D01*
X206989477Y-66602112D01*
X207004085Y-66594634D01*
X207018000Y-66586463D01*
X207031225Y-66577602D01*
X207043763Y-66568054D01*
X207055617Y-66557822D01*
X207066791Y-66546910D01*
X207076792Y-66535397D01*
X207085956Y-66523361D01*
X207094280Y-66510797D01*
X207101761Y-66497702D01*
X207108395Y-66484074D01*
X207114180Y-66469908D01*
X207119111Y-66455202D01*
X207123187Y-66439952D01*
X207126403Y-66424155D01*
X207128756Y-66407808D01*
X207130243Y-66390908D01*
X207130861Y-66373450D01*
X207130607Y-66355433D01*
X207129477Y-66336853D01*
X207127468Y-66317706D01*
X207124576Y-66297990D01*
X207362383Y-66297990D01*
X207367046Y-66329635D01*
X207370201Y-66360398D01*
X207371852Y-66390281D01*
X207372003Y-66419289D01*
X207370655Y-66447425D01*
X207367814Y-66474691D01*
X207363481Y-66501092D01*
X207357661Y-66526629D01*
X207350355Y-66551307D01*
X207341569Y-66575129D01*
X207331305Y-66598098D01*
X207319566Y-66620217D01*
X207306355Y-66641490D01*
X207291676Y-66661920D01*
X207275532Y-66681509D01*
X207257926Y-66700262D01*
X207239017Y-66718416D01*
X207218963Y-66735375D01*
X207197762Y-66751142D01*
X207175416Y-66765722D01*
X207151923Y-66779116D01*
X207127285Y-66791328D01*
X207101500Y-66802362D01*
X207074570Y-66812221D01*
X207046493Y-66820907D01*
X207017271Y-66828425D01*
X206986902Y-66834777D01*
X206955388Y-66839967D01*
X206922728Y-66843998D01*
X206888921Y-66846873D01*
X206853969Y-66848596D01*
X206817871Y-66849170D01*
X206795132Y-66848936D01*
X206772752Y-66848236D01*
X206750724Y-66847075D01*
X206729040Y-66845454D01*
X206707695Y-66843377D01*
X206686683Y-66840848D01*
X206665995Y-66837870D01*
X206645627Y-66834446D01*
X206625571Y-66830579D01*
X206605822Y-66826272D01*
X206586372Y-66821529D01*
X206567214Y-66816353D01*
X206548344Y-66810748D01*
X206529753Y-66804716D01*
X206511436Y-66798260D01*
X206493386Y-66791385D01*
X206476066Y-66784093D01*
X206459115Y-66776392D01*
X206442535Y-66768286D01*
X206426329Y-66759784D01*
X206410501Y-66750890D01*
X206395053Y-66741613D01*
X206379990Y-66731958D01*
X206365314Y-66721931D01*
X206351029Y-66711541D01*
X206337138Y-66700792D01*
X206323644Y-66689691D01*
X206310550Y-66678245D01*
X206297861Y-66666461D01*
X206285578Y-66654345D01*
X206273705Y-66641903D01*
X206262246Y-66629142D01*
X206251254Y-66615677D01*
X206240780Y-66601951D01*
X206230821Y-66587965D01*
X206221373Y-66573719D01*
X206212432Y-66559212D01*
X206203996Y-66544444D01*
X206196062Y-66529416D01*
X206188626Y-66514128D01*
X206181684Y-66498579D01*
X206175234Y-66482770D01*
X206169273Y-66466700D01*
X206163796Y-66450370D01*
X206158801Y-66433779D01*
X206154285Y-66416928D01*
X206150245Y-66399817D01*
X206146676Y-66382445D01*
X206143812Y-66360203D01*
X206141892Y-66338485D01*
X206140923Y-66317295D01*
X206140911Y-66296635D01*
X206141863Y-66276510D01*
X206143785Y-66256921D01*
X206146683Y-66237873D01*
X206150565Y-66219369D01*
X206155437Y-66201411D01*
X206161304Y-66184004D01*
X206168175Y-66167150D01*
X206176054Y-66150853D01*
X206184950Y-66135116D01*
X206194867Y-66119942D01*
X206205814Y-66105335D01*
X206217796Y-66091297D01*
X206231209Y-66077362D01*
X206245616Y-66063889D01*
X206261019Y-66050872D01*
X206277421Y-66038305D01*
X206294826Y-66026180D01*
X206313237Y-66014491D01*
X206332658Y-66003232D01*
X206353090Y-65992396D01*
X206374539Y-65981977D01*
X206397006Y-65971968D01*
X206420496Y-65962363D01*
X206445012Y-65953155D01*
X206470556Y-65944338D01*
X206497132Y-65935905D01*
X206524743Y-65927849D01*
X206553393Y-65920165D01*
X206720081Y-65877937D01*
X206739693Y-65872885D01*
X206758523Y-65867732D01*
X206776572Y-65862481D01*
X206793840Y-65857136D01*
X206810327Y-65851700D01*
X206826032Y-65846176D01*
X206840955Y-65840567D01*
X206855098Y-65834876D01*
X206868459Y-65829108D01*
X206881039Y-65823265D01*
X206892837Y-65817350D01*
X206903854Y-65811366D01*
X206914090Y-65805318D01*
X206923544Y-65799208D01*
X206932217Y-65793039D01*
X206940109Y-65786815D01*
X206946932Y-65780042D01*
X206953231Y-65773054D01*
X206959003Y-65765845D01*
X206964244Y-65758408D01*
X206968951Y-65750737D01*
X206973121Y-65742825D01*
X206976750Y-65734665D01*
X206979836Y-65726252D01*
X206982375Y-65717578D01*
X206984363Y-65708637D01*
X206985798Y-65699422D01*
X206986677Y-65689928D01*
X206986995Y-65680147D01*
X206986751Y-65670073D01*
X206985939Y-65659699D01*
X206984559Y-65649020D01*
X206981720Y-65635008D01*
X206978203Y-65621308D01*
X206974010Y-65607921D01*
X206969140Y-65594846D01*
X206963592Y-65582084D01*
X206957367Y-65569635D01*
X206950465Y-65557498D01*
X206942886Y-65545674D01*
X206934630Y-65534162D01*
X206925697Y-65522963D01*
X206916086Y-65512076D01*
X206905798Y-65501501D01*
X206894833Y-65491240D01*
X206883191Y-65481291D01*
X206870872Y-65471654D01*
X206857876Y-65462330D01*
X206843993Y-65453449D01*
X206829843Y-65445140D01*
X206815419Y-65437405D01*
X206800716Y-65430243D01*
X206785726Y-65423653D01*
X206770443Y-65417637D01*
X206754861Y-65412193D01*
X206738972Y-65407323D01*
X206722771Y-65403026D01*
X206706251Y-65399301D01*
X206689405Y-65396150D01*
X206672228Y-65393571D01*
X206654711Y-65391566D01*
X206636850Y-65390133D01*
X206618637Y-65389274D01*
X206600066Y-65388987D01*
X206581600Y-65389300D01*
X206563707Y-65390237D01*
X206546387Y-65391800D01*
X206529640Y-65393988D01*
X206513466Y-65396801D01*
X206497866Y-65400239D01*
X206482838Y-65404302D01*
X206468383Y-65408990D01*
X206454501Y-65414303D01*
X206441192Y-65420241D01*
X206428456Y-65426804D01*
X206416293Y-65433993D01*
X206404703Y-65441806D01*
X206393686Y-65450245D01*
X206383242Y-65459309D01*
X206373371Y-65468997D01*
X206363759Y-65479233D01*
X206354922Y-65489937D01*
X206346854Y-65501111D01*
X206339547Y-65512753D01*
X206332996Y-65524864D01*
X206327193Y-65537443D01*
X206322133Y-65550492D01*
X206317808Y-65564009D01*
X206314213Y-65577995D01*
X206311340Y-65592450D01*
X206309184Y-65607374D01*
X206307738Y-65622767D01*
X206306994Y-65638628D01*
X206306947Y-65654958D01*
X206307591Y-65671757D01*
X206308918Y-65689025D01*
X206077778Y-65689025D01*
X206074288Y-65659829D01*
X206072148Y-65631413D01*
X206071357Y-65603780D01*
X206071910Y-65576928D01*
X206073804Y-65550857D01*
X206077036Y-65525567D01*
X206081603Y-65501059D01*
X206087502Y-65477332D01*
X206094729Y-65454386D01*
X206103281Y-65432222D01*
X206113155Y-65410839D01*
X206124347Y-65390237D01*
X206136854Y-65370417D01*
X206150674Y-65351378D01*
X206165802Y-65333121D01*
X206182236Y-65315645D01*
X206199817Y-65299106D01*
X206218391Y-65283657D01*
X206237961Y-65269296D01*
X206258530Y-65256019D01*
X206280102Y-65243823D01*
X206302681Y-65232705D01*
X206326268Y-65222661D01*
X206350868Y-65213688D01*
X206376484Y-65205782D01*
X206403118Y-65198942D01*
X206430775Y-65193163D01*
X206459458Y-65188441D01*
X206489169Y-65184775D01*
X206519913Y-65182160D01*
X206551691Y-65180594D01*
X206584508Y-65180072D01*
X206605630Y-65180281D01*
G37*
G36*
X211998517Y-63913247D02*
G01*
X211771822Y-63913247D01*
X211765363Y-63901345D01*
X211758491Y-63889807D01*
X211751209Y-63878634D01*
X211743520Y-63867825D01*
X211735427Y-63857381D01*
X211726934Y-63847302D01*
X211718043Y-63837587D01*
X211708759Y-63828237D01*
X211699083Y-63819251D01*
X211689021Y-63810630D01*
X211678574Y-63802374D01*
X211667747Y-63794483D01*
X211656541Y-63786956D01*
X211644962Y-63779793D01*
X211633011Y-63772995D01*
X211620692Y-63766562D01*
X211607696Y-63760519D01*
X211594543Y-63754890D01*
X211581234Y-63749671D01*
X211567769Y-63744858D01*
X211554147Y-63740450D01*
X211540369Y-63736441D01*
X211526435Y-63732830D01*
X211512345Y-63729613D01*
X211498098Y-63726787D01*
X211483695Y-63724348D01*
X211469136Y-63722293D01*
X211454421Y-63720619D01*
X211439549Y-63719323D01*
X211424521Y-63718401D01*
X211409337Y-63717850D01*
X211393997Y-63717667D01*
X211376390Y-63718033D01*
X211359405Y-63719135D01*
X211343038Y-63720978D01*
X211327287Y-63723571D01*
X211312148Y-63726919D01*
X211297618Y-63731028D01*
X211290580Y-63733371D01*
X211283693Y-63735906D01*
X211276956Y-63738636D01*
X211270370Y-63741559D01*
X211263934Y-63744678D01*
X211257647Y-63747993D01*
X211251509Y-63751506D01*
X211245519Y-63755216D01*
X211239678Y-63759124D01*
X211233984Y-63763232D01*
X211228438Y-63767540D01*
X211223038Y-63772049D01*
X211217785Y-63776760D01*
X211212678Y-63781674D01*
X211207717Y-63786791D01*
X211202901Y-63792112D01*
X211198230Y-63797639D01*
X211193704Y-63803371D01*
X211189321Y-63809311D01*
X211185082Y-63815457D01*
X211177112Y-63828167D01*
X211169868Y-63841294D01*
X211163346Y-63854837D01*
X211157544Y-63868797D01*
X211152458Y-63883174D01*
X211148085Y-63897968D01*
X211144422Y-63913178D01*
X211141465Y-63928805D01*
X211139212Y-63944849D01*
X211137659Y-63961309D01*
X211136802Y-63978186D01*
X211136638Y-63995480D01*
X211137165Y-64013190D01*
X211138379Y-64031318D01*
X211140276Y-64049862D01*
X211142854Y-64068822D01*
X211145094Y-64081271D01*
X211147647Y-64093608D01*
X211150512Y-64105829D01*
X211153689Y-64117926D01*
X211157179Y-64129892D01*
X211160982Y-64141722D01*
X211165097Y-64153409D01*
X211169525Y-64164945D01*
X211174265Y-64176326D01*
X211179317Y-64187544D01*
X211184683Y-64198592D01*
X211190361Y-64209465D01*
X211196351Y-64220155D01*
X211202654Y-64230657D01*
X211209269Y-64240963D01*
X211216197Y-64251067D01*
X211223777Y-64260547D01*
X211231516Y-64269815D01*
X211239418Y-64278869D01*
X211247486Y-64287704D01*
X211255723Y-64296318D01*
X211264133Y-64304707D01*
X211272718Y-64312868D01*
X211281483Y-64320798D01*
X211290430Y-64328494D01*
X211299563Y-64335952D01*
X211308884Y-64343169D01*
X211318397Y-64350142D01*
X211328106Y-64356868D01*
X211338014Y-64363343D01*
X211348123Y-64369564D01*
X211358437Y-64375527D01*
X211368907Y-64380788D01*
X211379481Y-64385733D01*
X211390160Y-64390358D01*
X211400942Y-64394662D01*
X211411829Y-64398640D01*
X211422820Y-64402289D01*
X211433915Y-64405605D01*
X211445115Y-64408587D01*
X211456418Y-64411230D01*
X211467826Y-64413531D01*
X211479338Y-64415487D01*
X211490954Y-64417095D01*
X211502674Y-64418351D01*
X211514498Y-64419252D01*
X211526427Y-64419796D01*
X211538459Y-64419977D01*
X211555702Y-64419639D01*
X211572426Y-64418627D01*
X211588637Y-64416945D01*
X211604336Y-64414595D01*
X211619527Y-64411581D01*
X211634214Y-64407905D01*
X211648399Y-64403573D01*
X211662086Y-64398586D01*
X211675278Y-64392948D01*
X211687979Y-64386662D01*
X211700192Y-64379731D01*
X211711919Y-64372159D01*
X211723164Y-64363949D01*
X211733931Y-64355104D01*
X211744222Y-64345627D01*
X211754042Y-64335522D01*
X211762897Y-64324922D01*
X211771123Y-64313957D01*
X211778718Y-64302628D01*
X211785678Y-64290934D01*
X211792000Y-64278875D01*
X211797680Y-64266451D01*
X211802716Y-64253663D01*
X211807104Y-64240511D01*
X211810841Y-64226993D01*
X211813924Y-64213111D01*
X211816349Y-64198865D01*
X211818113Y-64184253D01*
X211819212Y-64169278D01*
X211819645Y-64153937D01*
X211819407Y-64138232D01*
X211818495Y-64122162D01*
X212054080Y-64122162D01*
X212055852Y-64139977D01*
X212057001Y-64157579D01*
X212057532Y-64174967D01*
X212057448Y-64192136D01*
X212056752Y-64209085D01*
X212055447Y-64225808D01*
X212053536Y-64242304D01*
X212051024Y-64258568D01*
X212047912Y-64274598D01*
X212044204Y-64290391D01*
X212039904Y-64305942D01*
X212035015Y-64321250D01*
X212029539Y-64336310D01*
X212023481Y-64351119D01*
X212016844Y-64365674D01*
X212009630Y-64379972D01*
X212001894Y-64393958D01*
X211993690Y-64407576D01*
X211985017Y-64420822D01*
X211975876Y-64433694D01*
X211966265Y-64446189D01*
X211956186Y-64458302D01*
X211945637Y-64470032D01*
X211934620Y-64481374D01*
X211923134Y-64492325D01*
X211911180Y-64502883D01*
X211898756Y-64513043D01*
X211885864Y-64522803D01*
X211872503Y-64532159D01*
X211858673Y-64541108D01*
X211844374Y-64549647D01*
X211829607Y-64557773D01*
X211814058Y-64565821D01*
X211798245Y-64573304D01*
X211782165Y-64580226D01*
X211765815Y-64586596D01*
X211749191Y-64592418D01*
X211732290Y-64597699D01*
X211715110Y-64602447D01*
X211697646Y-64606667D01*
X211679896Y-64610367D01*
X211661856Y-64613552D01*
X211643523Y-64616229D01*
X211624894Y-64618405D01*
X211605966Y-64620086D01*
X211586734Y-64621279D01*
X211567196Y-64621989D01*
X211547350Y-64622225D01*
X211526253Y-64621963D01*
X211505465Y-64621174D01*
X211484983Y-64619852D01*
X211464805Y-64617988D01*
X211444925Y-64615578D01*
X211425342Y-64612614D01*
X211406052Y-64609091D01*
X211387052Y-64605001D01*
X211368338Y-64600337D01*
X211349907Y-64595095D01*
X211331757Y-64589266D01*
X211313883Y-64582845D01*
X211296283Y-64575825D01*
X211278952Y-64568199D01*
X211261889Y-64559961D01*
X211245090Y-64551105D01*
X211228603Y-64542120D01*
X211212481Y-64532669D01*
X211196724Y-64522757D01*
X211181332Y-64512385D01*
X211166304Y-64501557D01*
X211151640Y-64490277D01*
X211137342Y-64478548D01*
X211123408Y-64466372D01*
X211109838Y-64453754D01*
X211096634Y-64440696D01*
X211083793Y-64427202D01*
X211071318Y-64413275D01*
X211059207Y-64398918D01*
X211047461Y-64384135D01*
X211036079Y-64368929D01*
X211025063Y-64353302D01*
X211014462Y-64337336D01*
X211004331Y-64321107D01*
X210994668Y-64304610D01*
X210985474Y-64287843D01*
X210976749Y-64270802D01*
X210968492Y-64253485D01*
X210960705Y-64235888D01*
X210953386Y-64218008D01*
X210946537Y-64199841D01*
X210940156Y-64181384D01*
X210934243Y-64162635D01*
X210928800Y-64143589D01*
X210923825Y-64124243D01*
X210919320Y-64104595D01*
X210915283Y-64084641D01*
X210911715Y-64064377D01*
X210908668Y-64044114D01*
X210906198Y-64024164D01*
X210904307Y-64004526D01*
X210902998Y-63985201D01*
X210902276Y-63966188D01*
X210902143Y-63947488D01*
X210902603Y-63929100D01*
X210903658Y-63911025D01*
X210905313Y-63893262D01*
X210907569Y-63875812D01*
X210910432Y-63858675D01*
X210913903Y-63841850D01*
X210917986Y-63825337D01*
X210922684Y-63809137D01*
X210928001Y-63793250D01*
X210933940Y-63777675D01*
X210940424Y-63762465D01*
X210947374Y-63747671D01*
X210954787Y-63733294D01*
X210962658Y-63719334D01*
X210970986Y-63705791D01*
X210979766Y-63692664D01*
X210988995Y-63679954D01*
X210998670Y-63667661D01*
X211008788Y-63655785D01*
X211019345Y-63644325D01*
X211030339Y-63633282D01*
X211041766Y-63622656D01*
X211053622Y-63612446D01*
X211065905Y-63602653D01*
X211078611Y-63593277D01*
X211091737Y-63584317D01*
X211105645Y-63575852D01*
X211119865Y-63567957D01*
X211134398Y-63560628D01*
X211149244Y-63553862D01*
X211164402Y-63547656D01*
X211179873Y-63542007D01*
X211195656Y-63536912D01*
X211211752Y-63532366D01*
X211228160Y-63528368D01*
X211244881Y-63524913D01*
X211261915Y-63521999D01*
X211279261Y-63519622D01*
X211296919Y-63517779D01*
X211314890Y-63516466D01*
X211333174Y-63515681D01*
X211351770Y-63515420D01*
X211365418Y-63515551D01*
X211378865Y-63515950D01*
X211392117Y-63516621D01*
X211405179Y-63517573D01*
X211418059Y-63518811D01*
X211430764Y-63520342D01*
X211443299Y-63522173D01*
X211455672Y-63524310D01*
X211467888Y-63526759D01*
X211479954Y-63529528D01*
X211491877Y-63532622D01*
X211503663Y-63536048D01*
X211515320Y-63539812D01*
X211526852Y-63543922D01*
X211538267Y-63548383D01*
X211549572Y-63553202D01*
X211560406Y-63557943D01*
X211571237Y-63562995D01*
X211582061Y-63568361D01*
X211592876Y-63574038D01*
X211603677Y-63580029D01*
X211614463Y-63586332D01*
X211625229Y-63592947D01*
X211635972Y-63599875D01*
X211646688Y-63607115D01*
X211657376Y-63614668D01*
X211668031Y-63622534D01*
X211678650Y-63630712D01*
X211689231Y-63639203D01*
X211699768Y-63648006D01*
X211710261Y-63657122D01*
X211720704Y-63666550D01*
X211722927Y-63666550D01*
X211609579Y-63188712D01*
X210858374Y-63188712D01*
X210822814Y-62982020D01*
X211791825Y-62982020D01*
X211998517Y-63913247D01*
G37*
G36*
X208690698Y-67813928D02*
G01*
X208705812Y-67814819D01*
X208720670Y-67816303D01*
X208735273Y-67818375D01*
X208749626Y-67821035D01*
X208763729Y-67824279D01*
X208777585Y-67828105D01*
X208791196Y-67832511D01*
X208804566Y-67837495D01*
X208817695Y-67843054D01*
X208830587Y-67849186D01*
X208843244Y-67855889D01*
X208855668Y-67863160D01*
X208867861Y-67870997D01*
X208879826Y-67879398D01*
X208891565Y-67888360D01*
X208902744Y-67897826D01*
X208913623Y-67907741D01*
X208924199Y-67918108D01*
X208934470Y-67928929D01*
X208944434Y-67940207D01*
X208954087Y-67951944D01*
X208963429Y-67964142D01*
X208972456Y-67976803D01*
X208981167Y-67989930D01*
X208989558Y-68003526D01*
X208997628Y-68017591D01*
X209005374Y-68032130D01*
X209012794Y-68047144D01*
X209019886Y-68062635D01*
X209026647Y-68078606D01*
X209033075Y-68095059D01*
X209039411Y-68111940D01*
X209045304Y-68129194D01*
X209050760Y-68146821D01*
X209055782Y-68164820D01*
X209060376Y-68183192D01*
X209064546Y-68201937D01*
X209068296Y-68221054D01*
X209071632Y-68240544D01*
X209074558Y-68260406D01*
X209077079Y-68280642D01*
X209080924Y-68322230D01*
X209083203Y-68365309D01*
X209083955Y-68409878D01*
X209083203Y-68453920D01*
X209082257Y-68475426D01*
X209080924Y-68496583D01*
X209079200Y-68517386D01*
X209077079Y-68537830D01*
X209074558Y-68557910D01*
X209071632Y-68577623D01*
X209068296Y-68596963D01*
X209064546Y-68615926D01*
X209060376Y-68634506D01*
X209055782Y-68652701D01*
X209050760Y-68670503D01*
X209045304Y-68687910D01*
X209039411Y-68704917D01*
X209033075Y-68721518D01*
X209026647Y-68737989D01*
X209019886Y-68754010D01*
X209012794Y-68769580D01*
X209005374Y-68784695D01*
X208997628Y-68799354D01*
X208989558Y-68813554D01*
X208981167Y-68827293D01*
X208972456Y-68840569D01*
X208963429Y-68853378D01*
X208954087Y-68865720D01*
X208944434Y-68877591D01*
X208934470Y-68888989D01*
X208924199Y-68899912D01*
X208913623Y-68910358D01*
X208902744Y-68920324D01*
X208891565Y-68929807D01*
X208879826Y-68938752D01*
X208867861Y-68947102D01*
X208855668Y-68954861D01*
X208843244Y-68962030D01*
X208830587Y-68968612D01*
X208817695Y-68974610D01*
X208804566Y-68980026D01*
X208791196Y-68984861D01*
X208777585Y-68989119D01*
X208763729Y-68992802D01*
X208749626Y-68995912D01*
X208735273Y-68998451D01*
X208720670Y-69000421D01*
X208705812Y-69001826D01*
X208690698Y-69002667D01*
X208675326Y-69002947D01*
X208659953Y-69002667D01*
X208644840Y-69001826D01*
X208629982Y-69000421D01*
X208615378Y-68998451D01*
X208601026Y-68995912D01*
X208586923Y-68992802D01*
X208573066Y-68989119D01*
X208559455Y-68984861D01*
X208546085Y-68980026D01*
X208532956Y-68974610D01*
X208520064Y-68968612D01*
X208507407Y-68962030D01*
X208494983Y-68954861D01*
X208482790Y-68947102D01*
X208470825Y-68938752D01*
X208459086Y-68929807D01*
X208447907Y-68920324D01*
X208437028Y-68910358D01*
X208426452Y-68899912D01*
X208416181Y-68888989D01*
X208406218Y-68877591D01*
X208396564Y-68865720D01*
X208387222Y-68853378D01*
X208378195Y-68840569D01*
X208369485Y-68827293D01*
X208361093Y-68813554D01*
X208353023Y-68799354D01*
X208345277Y-68784695D01*
X208337857Y-68769580D01*
X208330765Y-68754010D01*
X208324005Y-68737989D01*
X208317577Y-68721518D01*
X208311241Y-68704917D01*
X208305347Y-68687910D01*
X208299892Y-68670503D01*
X208294870Y-68652701D01*
X208290276Y-68634506D01*
X208286106Y-68615926D01*
X208282355Y-68596963D01*
X208279019Y-68577623D01*
X208276093Y-68557910D01*
X208273572Y-68537830D01*
X208269728Y-68496583D01*
X208267448Y-68453920D01*
X208266697Y-68409878D01*
X208365276Y-68409878D01*
X208365873Y-68447371D01*
X208367661Y-68483540D01*
X208369003Y-68501134D01*
X208370643Y-68518405D01*
X208372581Y-68535354D01*
X208374816Y-68551985D01*
X208377351Y-68568298D01*
X208380183Y-68584297D01*
X208383313Y-68599984D01*
X208386741Y-68615361D01*
X208390468Y-68630430D01*
X208394493Y-68645195D01*
X208398816Y-68659656D01*
X208403436Y-68673818D01*
X208408598Y-68687625D01*
X208413951Y-68701025D01*
X208419500Y-68714019D01*
X208425249Y-68726611D01*
X208431203Y-68738801D01*
X208437366Y-68750594D01*
X208443744Y-68761991D01*
X208450341Y-68772994D01*
X208457161Y-68783605D01*
X208464210Y-68793828D01*
X208471492Y-68803664D01*
X208479011Y-68813116D01*
X208486772Y-68822186D01*
X208494780Y-68830876D01*
X208503040Y-68839189D01*
X208511556Y-68847127D01*
X208520295Y-68854636D01*
X208529223Y-68861661D01*
X208538342Y-68868201D01*
X208547654Y-68874257D01*
X208557162Y-68879828D01*
X208566867Y-68884915D01*
X208576774Y-68889517D01*
X208586882Y-68893635D01*
X208597196Y-68897268D01*
X208607717Y-68900417D01*
X208618447Y-68903082D01*
X208629390Y-68905262D01*
X208640547Y-68906957D01*
X208651920Y-68908169D01*
X208663512Y-68908895D01*
X208675326Y-68909137D01*
X208686860Y-68908895D01*
X208698210Y-68908169D01*
X208709378Y-68906957D01*
X208720367Y-68905262D01*
X208731179Y-68903082D01*
X208741817Y-68900417D01*
X208752282Y-68897268D01*
X208762577Y-68893635D01*
X208772704Y-68889517D01*
X208782666Y-68884915D01*
X208792465Y-68879828D01*
X208802103Y-68874257D01*
X208811583Y-68868201D01*
X208820907Y-68861661D01*
X208830077Y-68854636D01*
X208839095Y-68847127D01*
X208847629Y-68839189D01*
X208855936Y-68830876D01*
X208864015Y-68822186D01*
X208871864Y-68813116D01*
X208879480Y-68803664D01*
X208886860Y-68793828D01*
X208894003Y-68783605D01*
X208900906Y-68772994D01*
X208907567Y-68761991D01*
X208913983Y-68750594D01*
X208920153Y-68738801D01*
X208926073Y-68726611D01*
X208931741Y-68714019D01*
X208937156Y-68701025D01*
X208942315Y-68687625D01*
X208947215Y-68673818D01*
X208955634Y-68645195D01*
X208962991Y-68615361D01*
X208969267Y-68584297D01*
X208974444Y-68551985D01*
X208978502Y-68518405D01*
X208981425Y-68483540D01*
X208983192Y-68447371D01*
X208983785Y-68409878D01*
X208983192Y-68372318D01*
X208981425Y-68335968D01*
X208978502Y-68300849D01*
X208974444Y-68266978D01*
X208969267Y-68234373D01*
X208966265Y-68218552D01*
X208962991Y-68203055D01*
X208959446Y-68187883D01*
X208955634Y-68173040D01*
X208951556Y-68158528D01*
X208947215Y-68144349D01*
X208942315Y-68130524D01*
X208937156Y-68117074D01*
X208931741Y-68104001D01*
X208926073Y-68091308D01*
X208920153Y-68078997D01*
X208913983Y-68067070D01*
X208907567Y-68055529D01*
X208900906Y-68044378D01*
X208894003Y-68033618D01*
X208886860Y-68023252D01*
X208879480Y-68013281D01*
X208871864Y-68003709D01*
X208864015Y-67994537D01*
X208855936Y-67985769D01*
X208847629Y-67977405D01*
X208839095Y-67969449D01*
X208830077Y-67962220D01*
X208820907Y-67955441D01*
X208811583Y-67949113D01*
X208802103Y-67943239D01*
X208792465Y-67937822D01*
X208782666Y-67932864D01*
X208772704Y-67928367D01*
X208762577Y-67924333D01*
X208752282Y-67920765D01*
X208741817Y-67917666D01*
X208731179Y-67915037D01*
X208720367Y-67912880D01*
X208709378Y-67911199D01*
X208698210Y-67909995D01*
X208686860Y-67909271D01*
X208675326Y-67909029D01*
X208663512Y-67909271D01*
X208651920Y-67909995D01*
X208640547Y-67911199D01*
X208629390Y-67912880D01*
X208618447Y-67915037D01*
X208607717Y-67917666D01*
X208597196Y-67920765D01*
X208586882Y-67924333D01*
X208576774Y-67928367D01*
X208566867Y-67932864D01*
X208557162Y-67937822D01*
X208547654Y-67943239D01*
X208538342Y-67949113D01*
X208529223Y-67955441D01*
X208520295Y-67962220D01*
X208511556Y-67969449D01*
X208503040Y-67977405D01*
X208494780Y-67985769D01*
X208486772Y-67994537D01*
X208479011Y-68003709D01*
X208471492Y-68013281D01*
X208464210Y-68023252D01*
X208457161Y-68033618D01*
X208450341Y-68044378D01*
X208443744Y-68055529D01*
X208437366Y-68067070D01*
X208431203Y-68078997D01*
X208425249Y-68091308D01*
X208419500Y-68104001D01*
X208413951Y-68117074D01*
X208408598Y-68130524D01*
X208403436Y-68144349D01*
X208398816Y-68158528D01*
X208394493Y-68173040D01*
X208386741Y-68203055D01*
X208380183Y-68234373D01*
X208374816Y-68266978D01*
X208370643Y-68300849D01*
X208367661Y-68335968D01*
X208365873Y-68372318D01*
X208365276Y-68409878D01*
X208266697Y-68409878D01*
X208267448Y-68365309D01*
X208268395Y-68343583D01*
X208269728Y-68322230D01*
X208271452Y-68301249D01*
X208273572Y-68280642D01*
X208276093Y-68260406D01*
X208279019Y-68240544D01*
X208282355Y-68221054D01*
X208286106Y-68201937D01*
X208290276Y-68183192D01*
X208294870Y-68164820D01*
X208299892Y-68146821D01*
X208305347Y-68129194D01*
X208311241Y-68111940D01*
X208317577Y-68095059D01*
X208324005Y-68078606D01*
X208330765Y-68062635D01*
X208337857Y-68047144D01*
X208345277Y-68032130D01*
X208353023Y-68017591D01*
X208361093Y-68003526D01*
X208369485Y-67989930D01*
X208378195Y-67976803D01*
X208387222Y-67964142D01*
X208396564Y-67951944D01*
X208406218Y-67940207D01*
X208416181Y-67928929D01*
X208426452Y-67918108D01*
X208437028Y-67907741D01*
X208447907Y-67897826D01*
X208459086Y-67888360D01*
X208470825Y-67879398D01*
X208482790Y-67870997D01*
X208494983Y-67863160D01*
X208507407Y-67855889D01*
X208520064Y-67849186D01*
X208532956Y-67843054D01*
X208546085Y-67837495D01*
X208559455Y-67832511D01*
X208573066Y-67828105D01*
X208586923Y-67824279D01*
X208601026Y-67821035D01*
X208615378Y-67818375D01*
X208629982Y-67816303D01*
X208644840Y-67814819D01*
X208659953Y-67813928D01*
X208675326Y-67813630D01*
X208690698Y-67813928D01*
G37*
G36*
X205990174Y-66822500D02*
G01*
X204903371Y-66822500D01*
X204867811Y-66611362D01*
X205714584Y-66611362D01*
X205630128Y-66102410D01*
X204845586Y-66102410D01*
X204812248Y-65893495D01*
X205594569Y-65893495D01*
X205516781Y-65417880D01*
X204670009Y-65417880D01*
X204634449Y-65204520D01*
X205721251Y-65204520D01*
X205990174Y-66822500D01*
G37*
G36*
X211134389Y-65180385D02*
G01*
X211158998Y-65181327D01*
X211183340Y-65182900D01*
X211207411Y-65185108D01*
X211231209Y-65187954D01*
X211254731Y-65191441D01*
X211277972Y-65195573D01*
X211300930Y-65200353D01*
X211323601Y-65205784D01*
X211345983Y-65211869D01*
X211368072Y-65218612D01*
X211389865Y-65226016D01*
X211411358Y-65234084D01*
X211432548Y-65242819D01*
X211453432Y-65252225D01*
X211474007Y-65262305D01*
X211494269Y-65272565D01*
X211514212Y-65283340D01*
X211533829Y-65294623D01*
X211553114Y-65306408D01*
X211572061Y-65318687D01*
X211590662Y-65331454D01*
X211608912Y-65344703D01*
X211626804Y-65358428D01*
X211644331Y-65372621D01*
X211661487Y-65387277D01*
X211678266Y-65402389D01*
X211694660Y-65417949D01*
X211710663Y-65433953D01*
X211726270Y-65450393D01*
X211741472Y-65467262D01*
X211756265Y-65484555D01*
X211770667Y-65502605D01*
X211784697Y-65520918D01*
X211798350Y-65539498D01*
X211811619Y-65558349D01*
X211824497Y-65577473D01*
X211836978Y-65596874D01*
X211849055Y-65616554D01*
X211860722Y-65636518D01*
X211871973Y-65656769D01*
X211882800Y-65677309D01*
X211893197Y-65698142D01*
X211903158Y-65719272D01*
X211912677Y-65740701D01*
X211921746Y-65762433D01*
X211930359Y-65784470D01*
X211938510Y-65806817D01*
X211953403Y-65852036D01*
X211966395Y-65897697D01*
X211977460Y-65943827D01*
X211986571Y-65990451D01*
X211990386Y-66013957D01*
X211993703Y-66037597D01*
X211996519Y-66061373D01*
X211998830Y-66085290D01*
X212000633Y-66109349D01*
X212001925Y-66133555D01*
X212002702Y-66157911D01*
X212002962Y-66182420D01*
X212002650Y-66207240D01*
X212001716Y-66231692D01*
X212000164Y-66255774D01*
X211997996Y-66279480D01*
X211995216Y-66302810D01*
X211991828Y-66325758D01*
X211987834Y-66348322D01*
X211983237Y-66370499D01*
X211978042Y-66392285D01*
X211972251Y-66413677D01*
X211965867Y-66434672D01*
X211958894Y-66455266D01*
X211951335Y-66475457D01*
X211943193Y-66495241D01*
X211934472Y-66514615D01*
X211925175Y-66533575D01*
X211914938Y-66552042D01*
X211904226Y-66569942D01*
X211893032Y-66587283D01*
X211881350Y-66604070D01*
X211869173Y-66620310D01*
X211856494Y-66636009D01*
X211843308Y-66651175D01*
X211829607Y-66665813D01*
X211815386Y-66679931D01*
X211800637Y-66693534D01*
X211785354Y-66706629D01*
X211769530Y-66719223D01*
X211753160Y-66731322D01*
X211736236Y-66742932D01*
X211718752Y-66754061D01*
X211700702Y-66764715D01*
X211682575Y-66774820D01*
X211664031Y-66784296D01*
X211645070Y-66793141D01*
X211625693Y-66801351D01*
X211605899Y-66808923D01*
X211585688Y-66815854D01*
X211565060Y-66822140D01*
X211544016Y-66827778D01*
X211522555Y-66832765D01*
X211500677Y-66837098D01*
X211478382Y-66840773D01*
X211455671Y-66843787D01*
X211432543Y-66846137D01*
X211408999Y-66847820D01*
X211385037Y-66848832D01*
X211360659Y-66849170D01*
X211339068Y-66848884D01*
X211317633Y-66848032D01*
X211296354Y-66846621D01*
X211275232Y-66844655D01*
X211254266Y-66842143D01*
X211233456Y-66839090D01*
X211212802Y-66835504D01*
X211192305Y-66831390D01*
X211171964Y-66826755D01*
X211151779Y-66821605D01*
X211131751Y-66815948D01*
X211111878Y-66809790D01*
X211092162Y-66803136D01*
X211072603Y-66795995D01*
X211053199Y-66788371D01*
X211033952Y-66780272D01*
X211015330Y-66771312D01*
X210996973Y-66761932D01*
X210978882Y-66752129D01*
X210961061Y-66741899D01*
X210943514Y-66731240D01*
X210926243Y-66720147D01*
X210909253Y-66708619D01*
X210892546Y-66696651D01*
X210876125Y-66684240D01*
X210859994Y-66671383D01*
X210844156Y-66658076D01*
X210828614Y-66644318D01*
X210813372Y-66630103D01*
X210798432Y-66615429D01*
X210783799Y-66600294D01*
X210769475Y-66584692D01*
X210755149Y-66568675D01*
X210741337Y-66552297D01*
X210728034Y-66535560D01*
X210715232Y-66518469D01*
X210702924Y-66501026D01*
X210691105Y-66483234D01*
X210679768Y-66465098D01*
X210668906Y-66446619D01*
X210658513Y-66427802D01*
X210648583Y-66408650D01*
X210639108Y-66389166D01*
X210630082Y-66369353D01*
X210621499Y-66349214D01*
X210613353Y-66328753D01*
X210605636Y-66307973D01*
X210598342Y-66286877D01*
X210842817Y-66286877D01*
X210851412Y-66307010D01*
X210860528Y-66326570D01*
X210870164Y-66345556D01*
X210880322Y-66363970D01*
X210891000Y-66381811D01*
X210902200Y-66399079D01*
X210913920Y-66415773D01*
X210926161Y-66431895D01*
X210938923Y-66447444D01*
X210952206Y-66462420D01*
X210966010Y-66476823D01*
X210980334Y-66490653D01*
X210995180Y-66503909D01*
X211010546Y-66516593D01*
X211026434Y-66528704D01*
X211042842Y-66540242D01*
X211060057Y-66550763D01*
X211077529Y-66560653D01*
X211095256Y-66569904D01*
X211113233Y-66578511D01*
X211131457Y-66586466D01*
X211149926Y-66593764D01*
X211168635Y-66600398D01*
X211187582Y-66606361D01*
X211206764Y-66611647D01*
X211226176Y-66616250D01*
X211245817Y-66620162D01*
X211265682Y-66623377D01*
X211285769Y-66625890D01*
X211306074Y-66627692D01*
X211326593Y-66628778D01*
X211347324Y-66629142D01*
X211372354Y-66628648D01*
X211396606Y-66627171D01*
X211420083Y-66624718D01*
X211442788Y-66621294D01*
X211464725Y-66616906D01*
X211485897Y-66611562D01*
X211506307Y-66605266D01*
X211525958Y-66598027D01*
X211544854Y-66589850D01*
X211562998Y-66580742D01*
X211580394Y-66570709D01*
X211597043Y-66559758D01*
X211612951Y-66547896D01*
X211628119Y-66535129D01*
X211642552Y-66521463D01*
X211656252Y-66506905D01*
X211669170Y-66491173D01*
X211681255Y-66474813D01*
X211692507Y-66457821D01*
X211702925Y-66440195D01*
X211712509Y-66421930D01*
X211721260Y-66403024D01*
X211729178Y-66383474D01*
X211736262Y-66363276D01*
X211742513Y-66342426D01*
X211747930Y-66320922D01*
X211752514Y-66298761D01*
X211756264Y-66275938D01*
X211759181Y-66252452D01*
X211761265Y-66228298D01*
X211762515Y-66203473D01*
X211762932Y-66177975D01*
X211762207Y-66142237D01*
X211760050Y-66106681D01*
X211756486Y-66071282D01*
X211751542Y-66036013D01*
X211745243Y-66000848D01*
X211737617Y-65965761D01*
X211728688Y-65930726D01*
X211718482Y-65895717D01*
X211712909Y-65878344D01*
X211707022Y-65861225D01*
X211700824Y-65844354D01*
X211694312Y-65827723D01*
X211687488Y-65811326D01*
X211680352Y-65795158D01*
X211672903Y-65779211D01*
X211665142Y-65763479D01*
X211657068Y-65747955D01*
X211648681Y-65732633D01*
X211639982Y-65717506D01*
X211630971Y-65702568D01*
X211621647Y-65687813D01*
X211612010Y-65673233D01*
X211602061Y-65658823D01*
X211591799Y-65644575D01*
X211581226Y-65630614D01*
X211570343Y-65617063D01*
X211559154Y-65603916D01*
X211547662Y-65591165D01*
X211535871Y-65578806D01*
X211523783Y-65566831D01*
X211511402Y-65555233D01*
X211498732Y-65544007D01*
X211485775Y-65533145D01*
X211472535Y-65522641D01*
X211459015Y-65512489D01*
X211445218Y-65502682D01*
X211431148Y-65493214D01*
X211416808Y-65484077D01*
X211402200Y-65475267D01*
X211387329Y-65466775D01*
X211372589Y-65458701D01*
X211357543Y-65451148D01*
X211342197Y-65444116D01*
X211326558Y-65437605D01*
X211310633Y-65431614D01*
X211294427Y-65426145D01*
X211277948Y-65421196D01*
X211261203Y-65416769D01*
X211244196Y-65412862D01*
X211226936Y-65409476D01*
X211209429Y-65406611D01*
X211191680Y-65404267D01*
X211173697Y-65402444D01*
X211155486Y-65401142D01*
X211137054Y-65400360D01*
X211118407Y-65400100D01*
X211098639Y-65400439D01*
X211079340Y-65401458D01*
X211060509Y-65403162D01*
X211042148Y-65405552D01*
X211024255Y-65408632D01*
X211006831Y-65412406D01*
X210989875Y-65416876D01*
X210973389Y-65422047D01*
X210957371Y-65427921D01*
X210941822Y-65434501D01*
X210926742Y-65441791D01*
X210912131Y-65449793D01*
X210897989Y-65458513D01*
X210884315Y-65467951D01*
X210871110Y-65478112D01*
X210858374Y-65489000D01*
X210846628Y-65500538D01*
X210835559Y-65512653D01*
X210825167Y-65525347D01*
X210815453Y-65538624D01*
X210806415Y-65552487D01*
X210798055Y-65566939D01*
X210790371Y-65581984D01*
X210783365Y-65597625D01*
X210777036Y-65613864D01*
X210771385Y-65630706D01*
X210766410Y-65648153D01*
X210762113Y-65666210D01*
X210758492Y-65684878D01*
X210755549Y-65704161D01*
X210753283Y-65724063D01*
X210751694Y-65744587D01*
X210509443Y-65744587D01*
X210509730Y-65723100D01*
X210510593Y-65701978D01*
X210512036Y-65681220D01*
X210514061Y-65660827D01*
X210516673Y-65640798D01*
X210519873Y-65621134D01*
X210523667Y-65601835D01*
X210528056Y-65582900D01*
X210533044Y-65564330D01*
X210538634Y-65546125D01*
X210544830Y-65528284D01*
X210551635Y-65510808D01*
X210559052Y-65493697D01*
X210567084Y-65476950D01*
X210575735Y-65460567D01*
X210585008Y-65444550D01*
X210594802Y-65428924D01*
X210605019Y-65413721D01*
X210615666Y-65398948D01*
X210626749Y-65384612D01*
X210638275Y-65370718D01*
X210650250Y-65357273D01*
X210662681Y-65344284D01*
X210675574Y-65331758D01*
X210688936Y-65319700D01*
X210702774Y-65308118D01*
X210717093Y-65297017D01*
X210731901Y-65286405D01*
X210747203Y-65276288D01*
X210763007Y-65266672D01*
X210779319Y-65257563D01*
X210796145Y-65248970D01*
X210813362Y-65240505D01*
X210830850Y-65232609D01*
X210848617Y-65225280D01*
X210866674Y-65218515D01*
X210885031Y-65212309D01*
X210903697Y-65206660D01*
X210922682Y-65201564D01*
X210941996Y-65197019D01*
X210961649Y-65193020D01*
X210981650Y-65189566D01*
X211002009Y-65186651D01*
X211022735Y-65184274D01*
X211043840Y-65182431D01*
X211065332Y-65181118D01*
X211087221Y-65180333D01*
X211109517Y-65180072D01*
X211134389Y-65180385D01*
G37*
G36*
X211392924Y-68842433D02*
G01*
X211396983Y-68842662D01*
X211400963Y-68843049D01*
X211404862Y-68843600D01*
X211408676Y-68844318D01*
X211412405Y-68845208D01*
X211416045Y-68846276D01*
X211419594Y-68847525D01*
X211423050Y-68848961D01*
X211426410Y-68850587D01*
X211429673Y-68852409D01*
X211432836Y-68854432D01*
X211435896Y-68856659D01*
X211438851Y-68859096D01*
X211441699Y-68861747D01*
X211444438Y-68864618D01*
X211447326Y-68867356D01*
X211450028Y-68870204D01*
X211452543Y-68873159D01*
X211454872Y-68876219D01*
X211457015Y-68879382D01*
X211458971Y-68882645D01*
X211460741Y-68886005D01*
X211462325Y-68889461D01*
X211463723Y-68893010D01*
X211464934Y-68896650D01*
X211465959Y-68900379D01*
X211466797Y-68904193D01*
X211467449Y-68908092D01*
X211467915Y-68912072D01*
X211468194Y-68916131D01*
X211468288Y-68920267D01*
X211468194Y-68924386D01*
X211467915Y-68928397D01*
X211467449Y-68932306D01*
X211466797Y-68936118D01*
X211465959Y-68939836D01*
X211464934Y-68943465D01*
X211463723Y-68947011D01*
X211462325Y-68950477D01*
X211460741Y-68953869D01*
X211458971Y-68957191D01*
X211457015Y-68960448D01*
X211454872Y-68963644D01*
X211452543Y-68966785D01*
X211450028Y-68969874D01*
X211447326Y-68972917D01*
X211444438Y-68975917D01*
X211441699Y-68978788D01*
X211438851Y-68981439D01*
X211435896Y-68983876D01*
X211432836Y-68986103D01*
X211429673Y-68988125D01*
X211426410Y-68989948D01*
X211423050Y-68991574D01*
X211419594Y-68993009D01*
X211416045Y-68994259D01*
X211412405Y-68995326D01*
X211408676Y-68996217D01*
X211404862Y-68996935D01*
X211400963Y-68997485D01*
X211396983Y-68997873D01*
X211392924Y-68998102D01*
X211388788Y-68998177D01*
X211384669Y-68998102D01*
X211380658Y-68997873D01*
X211376749Y-68997485D01*
X211372937Y-68996935D01*
X211369219Y-68996217D01*
X211365590Y-68995326D01*
X211362044Y-68994259D01*
X211358578Y-68993009D01*
X211355186Y-68991574D01*
X211351864Y-68989948D01*
X211348607Y-68988125D01*
X211345411Y-68986103D01*
X211342270Y-68983876D01*
X211339181Y-68981439D01*
X211336138Y-68978788D01*
X211333138Y-68975917D01*
X211330530Y-68972917D01*
X211328073Y-68969874D01*
X211325770Y-68966785D01*
X211323623Y-68963644D01*
X211321634Y-68960448D01*
X211319806Y-68957191D01*
X211318141Y-68953869D01*
X211316642Y-68950477D01*
X211315310Y-68947011D01*
X211314148Y-68943465D01*
X211313158Y-68939836D01*
X211312343Y-68936118D01*
X211311706Y-68932306D01*
X211311247Y-68928397D01*
X211310970Y-68924386D01*
X211310877Y-68920267D01*
X211310970Y-68916131D01*
X211311247Y-68912072D01*
X211311706Y-68908092D01*
X211312343Y-68904193D01*
X211313158Y-68900379D01*
X211314148Y-68896650D01*
X211315310Y-68893010D01*
X211316642Y-68889461D01*
X211318141Y-68886005D01*
X211319806Y-68882645D01*
X211321634Y-68879382D01*
X211323623Y-68876219D01*
X211325770Y-68873159D01*
X211328073Y-68870204D01*
X211330530Y-68867356D01*
X211333138Y-68864618D01*
X211336138Y-68861747D01*
X211339181Y-68859096D01*
X211342270Y-68856659D01*
X211345411Y-68854432D01*
X211348607Y-68852409D01*
X211351864Y-68850587D01*
X211355186Y-68848961D01*
X211358578Y-68847525D01*
X211362044Y-68846276D01*
X211365590Y-68845208D01*
X211369219Y-68844318D01*
X211372937Y-68843600D01*
X211376749Y-68843049D01*
X211380658Y-68842662D01*
X211384669Y-68842433D01*
X211388788Y-68842358D01*
X211392924Y-68842433D01*
G37*
G36*
X209001476Y-66822500D02*
G01*
X208734776Y-66822500D01*
X208516971Y-66402447D01*
X207865779Y-66402447D01*
X207792436Y-66822500D01*
X207539071Y-66822500D01*
X207660887Y-66197977D01*
X207901338Y-66197977D01*
X208412514Y-66197977D01*
X208263606Y-65911275D01*
X208156926Y-65697915D01*
X208025799Y-65426770D01*
X208015797Y-65502265D01*
X208005796Y-65572344D01*
X207995795Y-65637421D01*
X207985794Y-65697915D01*
X207969125Y-65807929D01*
X207952456Y-65911275D01*
X207901338Y-66197977D01*
X207660887Y-66197977D01*
X207854666Y-65204520D01*
X208145814Y-65204520D01*
X209001476Y-66822500D01*
G37*
G36*
X207110128Y-64600000D02*
G01*
X206103335Y-64600000D01*
X206069998Y-64388862D01*
X206834538Y-64388862D01*
X206601176Y-62982020D01*
X206841205Y-62982020D01*
X207110128Y-64600000D01*
G37*
G36*
X209402822Y-63913247D02*
G01*
X209176128Y-63913247D01*
X209169669Y-63901345D01*
X209162797Y-63889807D01*
X209155515Y-63878634D01*
X209147825Y-63867825D01*
X209139732Y-63857381D01*
X209131239Y-63847302D01*
X209122348Y-63837587D01*
X209113064Y-63828237D01*
X209103389Y-63819251D01*
X209093326Y-63810630D01*
X209082880Y-63802374D01*
X209072052Y-63794483D01*
X209060847Y-63786956D01*
X209049267Y-63779793D01*
X209037316Y-63772995D01*
X209024997Y-63766562D01*
X209012001Y-63760519D01*
X208998848Y-63754890D01*
X208985539Y-63749671D01*
X208972074Y-63744858D01*
X208958453Y-63740450D01*
X208944675Y-63736441D01*
X208930741Y-63732830D01*
X208916651Y-63729613D01*
X208902404Y-63726787D01*
X208888001Y-63724348D01*
X208873442Y-63722293D01*
X208858727Y-63720619D01*
X208843855Y-63719323D01*
X208828827Y-63718401D01*
X208813643Y-63717850D01*
X208798303Y-63717667D01*
X208780696Y-63718033D01*
X208763711Y-63719135D01*
X208747344Y-63720978D01*
X208731593Y-63723571D01*
X208716454Y-63726919D01*
X208701923Y-63731028D01*
X208694885Y-63733371D01*
X208687999Y-63735906D01*
X208681262Y-63738636D01*
X208674676Y-63741559D01*
X208668240Y-63744678D01*
X208661953Y-63747993D01*
X208655814Y-63751506D01*
X208649825Y-63755216D01*
X208643983Y-63759124D01*
X208638290Y-63763232D01*
X208632743Y-63767540D01*
X208627344Y-63772049D01*
X208622091Y-63776760D01*
X208616984Y-63781674D01*
X208612023Y-63786791D01*
X208607207Y-63792112D01*
X208602536Y-63797639D01*
X208598009Y-63803371D01*
X208593626Y-63809311D01*
X208589388Y-63815457D01*
X208581417Y-63828167D01*
X208574173Y-63841294D01*
X208567652Y-63854837D01*
X208561849Y-63868797D01*
X208556764Y-63883174D01*
X208552391Y-63897968D01*
X208548728Y-63913178D01*
X208545771Y-63928805D01*
X208543518Y-63944849D01*
X208541964Y-63961309D01*
X208541107Y-63978186D01*
X208540944Y-63995480D01*
X208541471Y-64013190D01*
X208542685Y-64031318D01*
X208544582Y-64049862D01*
X208547160Y-64068822D01*
X208549400Y-64081271D01*
X208551952Y-64093608D01*
X208554817Y-64105829D01*
X208557995Y-64117926D01*
X208561485Y-64129892D01*
X208565287Y-64141722D01*
X208569403Y-64153409D01*
X208573830Y-64164945D01*
X208578570Y-64176326D01*
X208583623Y-64187544D01*
X208588988Y-64198592D01*
X208594666Y-64209465D01*
X208600656Y-64220155D01*
X208606959Y-64230657D01*
X208613575Y-64240963D01*
X208620502Y-64251067D01*
X208628082Y-64260547D01*
X208635821Y-64269815D01*
X208643723Y-64278869D01*
X208651791Y-64287704D01*
X208660028Y-64296318D01*
X208668438Y-64304707D01*
X208677024Y-64312868D01*
X208685788Y-64320798D01*
X208694735Y-64328494D01*
X208703868Y-64335952D01*
X208713189Y-64343169D01*
X208722703Y-64350142D01*
X208732412Y-64356868D01*
X208742319Y-64363343D01*
X208752428Y-64369564D01*
X208762742Y-64375527D01*
X208773212Y-64380788D01*
X208783787Y-64385733D01*
X208794465Y-64390358D01*
X208805248Y-64394662D01*
X208816135Y-64398640D01*
X208827126Y-64402289D01*
X208838221Y-64405605D01*
X208849420Y-64408587D01*
X208860724Y-64411230D01*
X208872131Y-64413531D01*
X208883643Y-64415487D01*
X208895259Y-64417095D01*
X208906979Y-64418351D01*
X208918804Y-64419252D01*
X208930732Y-64419796D01*
X208942765Y-64419977D01*
X208960008Y-64419639D01*
X208976732Y-64418627D01*
X208992942Y-64416945D01*
X209008642Y-64414595D01*
X209023833Y-64411581D01*
X209038519Y-64407905D01*
X209052705Y-64403573D01*
X209066392Y-64398586D01*
X209079584Y-64392948D01*
X209092285Y-64386662D01*
X209104497Y-64379731D01*
X209116224Y-64372159D01*
X209127470Y-64363949D01*
X209138237Y-64355104D01*
X209148528Y-64345627D01*
X209158348Y-64335522D01*
X209167202Y-64324922D01*
X209175429Y-64313957D01*
X209183024Y-64302628D01*
X209189984Y-64290934D01*
X209196305Y-64278875D01*
X209201986Y-64266451D01*
X209207022Y-64253663D01*
X209211410Y-64240511D01*
X209215147Y-64226993D01*
X209218229Y-64213111D01*
X209220654Y-64198865D01*
X209222418Y-64184253D01*
X209223518Y-64169278D01*
X209223950Y-64153937D01*
X209223712Y-64138232D01*
X209222800Y-64122162D01*
X209458385Y-64122162D01*
X209460157Y-64139977D01*
X209461306Y-64157579D01*
X209461838Y-64174967D01*
X209461754Y-64192136D01*
X209461057Y-64209085D01*
X209459752Y-64225808D01*
X209457842Y-64242304D01*
X209455329Y-64258568D01*
X209452217Y-64274598D01*
X209448510Y-64290391D01*
X209444209Y-64305942D01*
X209439320Y-64321250D01*
X209433845Y-64336310D01*
X209427786Y-64351119D01*
X209421149Y-64365674D01*
X209413935Y-64379972D01*
X209406200Y-64393958D01*
X209397995Y-64407576D01*
X209389322Y-64420822D01*
X209380181Y-64433694D01*
X209370570Y-64446189D01*
X209360491Y-64458302D01*
X209349943Y-64470032D01*
X209338926Y-64481374D01*
X209327440Y-64492325D01*
X209315485Y-64502883D01*
X209303062Y-64513043D01*
X209290170Y-64522803D01*
X209276809Y-64532159D01*
X209262979Y-64541108D01*
X209248680Y-64549647D01*
X209233913Y-64557773D01*
X209218363Y-64565821D01*
X209202550Y-64573304D01*
X209186470Y-64580226D01*
X209170120Y-64586596D01*
X209153496Y-64592418D01*
X209136596Y-64597699D01*
X209119415Y-64602447D01*
X209101952Y-64606667D01*
X209084202Y-64610367D01*
X209066162Y-64613552D01*
X209047829Y-64616229D01*
X209029200Y-64618405D01*
X209010271Y-64620086D01*
X208991040Y-64621279D01*
X208971502Y-64621989D01*
X208951655Y-64622225D01*
X208930558Y-64621963D01*
X208909771Y-64621174D01*
X208889289Y-64619852D01*
X208869110Y-64617988D01*
X208849231Y-64615578D01*
X208829648Y-64612614D01*
X208810358Y-64609091D01*
X208791357Y-64605001D01*
X208772644Y-64600337D01*
X208754213Y-64595095D01*
X208736062Y-64589266D01*
X208718188Y-64582845D01*
X208700588Y-64575825D01*
X208683258Y-64568199D01*
X208666195Y-64559961D01*
X208649395Y-64551105D01*
X208632909Y-64542120D01*
X208616787Y-64532669D01*
X208601030Y-64522757D01*
X208585637Y-64512385D01*
X208570609Y-64501557D01*
X208555946Y-64490277D01*
X208541647Y-64478548D01*
X208527713Y-64466372D01*
X208514144Y-64453754D01*
X208500939Y-64440696D01*
X208488099Y-64427202D01*
X208475623Y-64413275D01*
X208463513Y-64398918D01*
X208451766Y-64384135D01*
X208440385Y-64368929D01*
X208429368Y-64353302D01*
X208418767Y-64337336D01*
X208408636Y-64321107D01*
X208398973Y-64304610D01*
X208389779Y-64287843D01*
X208381054Y-64270802D01*
X208372798Y-64253485D01*
X208365011Y-64235888D01*
X208357692Y-64218008D01*
X208350842Y-64199841D01*
X208344461Y-64181384D01*
X208338549Y-64162635D01*
X208333106Y-64143589D01*
X208328131Y-64124243D01*
X208323625Y-64104595D01*
X208319588Y-64084641D01*
X208316020Y-64064377D01*
X208312973Y-64044114D01*
X208310503Y-64024164D01*
X208308612Y-64004526D01*
X208307304Y-63985201D01*
X208306582Y-63966188D01*
X208306449Y-63947488D01*
X208306908Y-63929100D01*
X208307964Y-63911025D01*
X208309618Y-63893262D01*
X208311875Y-63875812D01*
X208314737Y-63858675D01*
X208318208Y-63841850D01*
X208322291Y-63825337D01*
X208326990Y-63809137D01*
X208332307Y-63793250D01*
X208338245Y-63777675D01*
X208344730Y-63762465D01*
X208351680Y-63747671D01*
X208359093Y-63733294D01*
X208366964Y-63719334D01*
X208375291Y-63705791D01*
X208384071Y-63692664D01*
X208393300Y-63679954D01*
X208402975Y-63667661D01*
X208413093Y-63655785D01*
X208423651Y-63644325D01*
X208434644Y-63633282D01*
X208446071Y-63622656D01*
X208457928Y-63612446D01*
X208470210Y-63602653D01*
X208482917Y-63593277D01*
X208496043Y-63584317D01*
X208509951Y-63575852D01*
X208524171Y-63567957D01*
X208538704Y-63560628D01*
X208553550Y-63553862D01*
X208568708Y-63547656D01*
X208584179Y-63542007D01*
X208599962Y-63536912D01*
X208616058Y-63532366D01*
X208632466Y-63528368D01*
X208649187Y-63524913D01*
X208666220Y-63521999D01*
X208683566Y-63519622D01*
X208701224Y-63517779D01*
X208719195Y-63516466D01*
X208737479Y-63515681D01*
X208756075Y-63515420D01*
X208769723Y-63515551D01*
X208783170Y-63515950D01*
X208796422Y-63516621D01*
X208809484Y-63517573D01*
X208822365Y-63518811D01*
X208835069Y-63520342D01*
X208847604Y-63522173D01*
X208859977Y-63524310D01*
X208872193Y-63526759D01*
X208884260Y-63529528D01*
X208896183Y-63532622D01*
X208907969Y-63536048D01*
X208919625Y-63539812D01*
X208931158Y-63543922D01*
X208942573Y-63548383D01*
X208953878Y-63553202D01*
X208964712Y-63557943D01*
X208975543Y-63562995D01*
X208986367Y-63568361D01*
X208997182Y-63574038D01*
X209007983Y-63580029D01*
X209018769Y-63586332D01*
X209029534Y-63592947D01*
X209040277Y-63599875D01*
X209050994Y-63607115D01*
X209061682Y-63614668D01*
X209072337Y-63622534D01*
X209082956Y-63630712D01*
X209093536Y-63639203D01*
X209104074Y-63648006D01*
X209114566Y-63657122D01*
X209125010Y-63666550D01*
X209127233Y-63666550D01*
X209013885Y-63188712D01*
X208262680Y-63188712D01*
X208227120Y-62982020D01*
X209196130Y-62982020D01*
X209402822Y-63913247D01*
G37*
G36*
X209601075Y-67812226D02*
G01*
X209614503Y-67812785D01*
X209627737Y-67813717D01*
X209640769Y-67815021D01*
X209653597Y-67816698D01*
X209666216Y-67818748D01*
X209678619Y-67821170D01*
X209690805Y-67823965D01*
X209702766Y-67827132D01*
X209714499Y-67830673D01*
X209725999Y-67834585D01*
X209737262Y-67838871D01*
X209748282Y-67843529D01*
X209759056Y-67848560D01*
X209769578Y-67853963D01*
X209779844Y-67859740D01*
X209790130Y-67865851D01*
X209800119Y-67872258D01*
X209809816Y-67878958D01*
X209819221Y-67885950D01*
X209828338Y-67893230D01*
X209837168Y-67900797D01*
X209845714Y-67908648D01*
X209853978Y-67916781D01*
X209861962Y-67925193D01*
X209869670Y-67933883D01*
X209877102Y-67942847D01*
X209884262Y-67952084D01*
X209891152Y-67961591D01*
X209897774Y-67971365D01*
X209904131Y-67981406D01*
X209910224Y-67991709D01*
X209915720Y-68002237D01*
X209920879Y-68012954D01*
X209925697Y-68023861D01*
X209930174Y-68034962D01*
X209934305Y-68046259D01*
X209938089Y-68057753D01*
X209941524Y-68069448D01*
X209944608Y-68081345D01*
X209947337Y-68093448D01*
X209949710Y-68105757D01*
X209951724Y-68118277D01*
X209953377Y-68131008D01*
X209954667Y-68143953D01*
X209955592Y-68157116D01*
X209956148Y-68170497D01*
X209956334Y-68184099D01*
X209856164Y-68184099D01*
X209855884Y-68168783D01*
X209855046Y-68153839D01*
X209853649Y-68139268D01*
X209851692Y-68125070D01*
X209849177Y-68111245D01*
X209846102Y-68097792D01*
X209842469Y-68084712D01*
X209838277Y-68072004D01*
X209833525Y-68059669D01*
X209828215Y-68047707D01*
X209822346Y-68036118D01*
X209815917Y-68024901D01*
X209808930Y-68014056D01*
X209801384Y-68003585D01*
X209793279Y-67993486D01*
X209784614Y-67983759D01*
X209775186Y-67974518D01*
X209765382Y-67965872D01*
X209755201Y-67957823D01*
X209744641Y-67950369D01*
X209733698Y-67943513D01*
X209722372Y-67937252D01*
X209710658Y-67931588D01*
X209698556Y-67926520D01*
X209686062Y-67922048D01*
X209673175Y-67918172D01*
X209659892Y-67914893D01*
X209646210Y-67912210D01*
X209632128Y-67910123D01*
X209617643Y-67908632D01*
X209602753Y-67907738D01*
X209587455Y-67907440D01*
X209572735Y-67907701D01*
X209558388Y-67908486D01*
X209544413Y-67909798D01*
X209530811Y-67911638D01*
X209517582Y-67914010D01*
X209504725Y-67916914D01*
X209492241Y-67920355D01*
X209480130Y-67924333D01*
X209468391Y-67928852D01*
X209457025Y-67933914D01*
X209446032Y-67939520D01*
X209435411Y-67945674D01*
X209425163Y-67952378D01*
X209415288Y-67959633D01*
X209405785Y-67967443D01*
X209396655Y-67975809D01*
X209388270Y-67984623D01*
X209380410Y-67993775D01*
X209373076Y-68003266D01*
X209366271Y-68013100D01*
X209359997Y-68023278D01*
X209354256Y-68033804D01*
X209349051Y-68044679D01*
X209344384Y-68055906D01*
X209340257Y-68067486D01*
X209336673Y-68079423D01*
X209333634Y-68091719D01*
X209331142Y-68104376D01*
X209329200Y-68117396D01*
X209327810Y-68130781D01*
X209326974Y-68144535D01*
X209326695Y-68158659D01*
X209326788Y-68166093D01*
X209327065Y-68173488D01*
X209327523Y-68180840D01*
X209328161Y-68188148D01*
X209328976Y-68195410D01*
X209329965Y-68202623D01*
X209331127Y-68209785D01*
X209332459Y-68216893D01*
X209333959Y-68223945D01*
X209335624Y-68230939D01*
X209337452Y-68237872D01*
X209339440Y-68244742D01*
X209341587Y-68251548D01*
X209343890Y-68258285D01*
X209346347Y-68264953D01*
X209348955Y-68271549D01*
X209355290Y-68284216D01*
X209362371Y-68297163D01*
X209370197Y-68310370D01*
X209378768Y-68323820D01*
X209388084Y-68337493D01*
X209398146Y-68351372D01*
X209408953Y-68365436D01*
X209420505Y-68379669D01*
X209447336Y-68408562D01*
X209477745Y-68440287D01*
X209511731Y-68474696D01*
X209549294Y-68511638D01*
X209959514Y-68896418D01*
X209959514Y-68987047D01*
X209215396Y-68987047D01*
X209215396Y-68891647D01*
X209814825Y-68891647D01*
X209814825Y-68890058D01*
X209479335Y-68573648D01*
X209457792Y-68553074D01*
X209437275Y-68533078D01*
X209417763Y-68513641D01*
X209399239Y-68494745D01*
X209381684Y-68476370D01*
X209365079Y-68458498D01*
X209349406Y-68441110D01*
X209334645Y-68424188D01*
X209321379Y-68407037D01*
X209309006Y-68390128D01*
X209297529Y-68373405D01*
X209286945Y-68356812D01*
X209281989Y-68348548D01*
X209277256Y-68340294D01*
X209272747Y-68332046D01*
X209268461Y-68323795D01*
X209264400Y-68315535D01*
X209260561Y-68307259D01*
X209256946Y-68298959D01*
X209253555Y-68290629D01*
X209250369Y-68282561D01*
X209247372Y-68274453D01*
X209244566Y-68266303D01*
X209241953Y-68258109D01*
X209239536Y-68249868D01*
X209237317Y-68241578D01*
X209235298Y-68233237D01*
X209233482Y-68224843D01*
X209231871Y-68216392D01*
X209230467Y-68207884D01*
X209229272Y-68199315D01*
X209228290Y-68190683D01*
X209227522Y-68181985D01*
X209226970Y-68173221D01*
X209226637Y-68164386D01*
X209226526Y-68155479D01*
X209226712Y-68143051D01*
X209227268Y-68130806D01*
X209228192Y-68118743D01*
X209229482Y-68106860D01*
X209231135Y-68095153D01*
X209233150Y-68083622D01*
X209235523Y-68072262D01*
X209238252Y-68061073D01*
X209241335Y-68050051D01*
X209244770Y-68039195D01*
X209248555Y-68028502D01*
X209252686Y-68017969D01*
X209257162Y-68007595D01*
X209261981Y-67997377D01*
X209267139Y-67987313D01*
X209272636Y-67977400D01*
X209278449Y-67967990D01*
X209284558Y-67958838D01*
X209290960Y-67949943D01*
X209297653Y-67941302D01*
X209304636Y-67932912D01*
X209311904Y-67924771D01*
X209319457Y-67916877D01*
X209327292Y-67909228D01*
X209335406Y-67901821D01*
X209343797Y-67894654D01*
X209352464Y-67887725D01*
X209361402Y-67881031D01*
X209370611Y-67874569D01*
X209380088Y-67868339D01*
X209389830Y-67862336D01*
X209399835Y-67856560D01*
X209410344Y-67851343D01*
X209421005Y-67846430D01*
X209431820Y-67841823D01*
X209442790Y-67837529D01*
X209453919Y-67833552D01*
X209465208Y-67829896D01*
X209476661Y-67826566D01*
X209488279Y-67823567D01*
X209500065Y-67820904D01*
X209512020Y-67818580D01*
X209524148Y-67816601D01*
X209536451Y-67814971D01*
X209548931Y-67813696D01*
X209561590Y-67812779D01*
X209574430Y-67812225D01*
X209587455Y-67812040D01*
X209601075Y-67812226D01*
G37*
G36*
X210203473Y-68842433D02*
G01*
X210207532Y-68842662D01*
X210211512Y-68843049D01*
X210215411Y-68843600D01*
X210219225Y-68844318D01*
X210222954Y-68845208D01*
X210226594Y-68846276D01*
X210230143Y-68847525D01*
X210233599Y-68848961D01*
X210236959Y-68850587D01*
X210240222Y-68852409D01*
X210243384Y-68854432D01*
X210246445Y-68856659D01*
X210249400Y-68859096D01*
X210252248Y-68861747D01*
X210254987Y-68864618D01*
X210257875Y-68867356D01*
X210260577Y-68870204D01*
X210263092Y-68873159D01*
X210265421Y-68876219D01*
X210267564Y-68879382D01*
X210269520Y-68882645D01*
X210271290Y-68886005D01*
X210272874Y-68889461D01*
X210274271Y-68893010D01*
X210275483Y-68896650D01*
X210276507Y-68900379D01*
X210277346Y-68904193D01*
X210277998Y-68908092D01*
X210278464Y-68912072D01*
X210278743Y-68916131D01*
X210278837Y-68920267D01*
X210278743Y-68924386D01*
X210278464Y-68928397D01*
X210277998Y-68932306D01*
X210277346Y-68936118D01*
X210276507Y-68939836D01*
X210275483Y-68943465D01*
X210274271Y-68947011D01*
X210272874Y-68950477D01*
X210271290Y-68953869D01*
X210269520Y-68957191D01*
X210267564Y-68960448D01*
X210265421Y-68963644D01*
X210263092Y-68966785D01*
X210260577Y-68969874D01*
X210257875Y-68972917D01*
X210254987Y-68975917D01*
X210252248Y-68978788D01*
X210249400Y-68981439D01*
X210246445Y-68983876D01*
X210243384Y-68986103D01*
X210240222Y-68988125D01*
X210236959Y-68989948D01*
X210233599Y-68991574D01*
X210230143Y-68993009D01*
X210226594Y-68994259D01*
X210222954Y-68995326D01*
X210219225Y-68996217D01*
X210215411Y-68996935D01*
X210211512Y-68997485D01*
X210207532Y-68997873D01*
X210203473Y-68998102D01*
X210199337Y-68998177D01*
X210195218Y-68998102D01*
X210191207Y-68997873D01*
X210187297Y-68997485D01*
X210183486Y-68996935D01*
X210179768Y-68996217D01*
X210176139Y-68995326D01*
X210172593Y-68994259D01*
X210169127Y-68993009D01*
X210165735Y-68991574D01*
X210162413Y-68989948D01*
X210159156Y-68988125D01*
X210155959Y-68986103D01*
X210152819Y-68983876D01*
X210149730Y-68981439D01*
X210146687Y-68978788D01*
X210143687Y-68975917D01*
X210141078Y-68972917D01*
X210138622Y-68969874D01*
X210136319Y-68966785D01*
X210134172Y-68963644D01*
X210132183Y-68960448D01*
X210130355Y-68957191D01*
X210128690Y-68953869D01*
X210127190Y-68950477D01*
X210125859Y-68947011D01*
X210124697Y-68943465D01*
X210123707Y-68939836D01*
X210122892Y-68936118D01*
X210122254Y-68932306D01*
X210121796Y-68928397D01*
X210121519Y-68924386D01*
X210121426Y-68920267D01*
X210121519Y-68916131D01*
X210121796Y-68912072D01*
X210122254Y-68908092D01*
X210122892Y-68904193D01*
X210123707Y-68900379D01*
X210124697Y-68896650D01*
X210125859Y-68893010D01*
X210127190Y-68889461D01*
X210128690Y-68886005D01*
X210130355Y-68882645D01*
X210132183Y-68879382D01*
X210134172Y-68876219D01*
X210136319Y-68873159D01*
X210138622Y-68870204D01*
X210141078Y-68867356D01*
X210143687Y-68864618D01*
X210146687Y-68861747D01*
X210149730Y-68859096D01*
X210152819Y-68856659D01*
X210155959Y-68854432D01*
X210159156Y-68852409D01*
X210162413Y-68850587D01*
X210165735Y-68848961D01*
X210169127Y-68847525D01*
X210172593Y-68846276D01*
X210176139Y-68845208D01*
X210179768Y-68844318D01*
X210183486Y-68843600D01*
X210187297Y-68843049D01*
X210191207Y-68842662D01*
X210195218Y-68842433D01*
X210199337Y-68842358D01*
X210203473Y-68842433D01*
G37*
G36*
X210798805Y-67812208D02*
G01*
X210811646Y-67812714D01*
X210824305Y-67813560D01*
X210836785Y-67814748D01*
X210849087Y-67816281D01*
X210861215Y-67818161D01*
X210873171Y-67820390D01*
X210884957Y-67822971D01*
X210896574Y-67825906D01*
X210908027Y-67829197D01*
X210919316Y-67832848D01*
X210930445Y-67836859D01*
X210941416Y-67841233D01*
X210952230Y-67845973D01*
X210962891Y-67851081D01*
X210973400Y-67856560D01*
X210983406Y-67862056D01*
X210993151Y-67867814D01*
X211002635Y-67873832D01*
X211011858Y-67880112D01*
X211020820Y-67886652D01*
X211029522Y-67893453D01*
X211037962Y-67900514D01*
X211046142Y-67907837D01*
X211054061Y-67915421D01*
X211061719Y-67923265D01*
X211069116Y-67931370D01*
X211076253Y-67939736D01*
X211083128Y-67948363D01*
X211089743Y-67957251D01*
X211096097Y-67966400D01*
X211102190Y-67975809D01*
X211107686Y-67985425D01*
X211112845Y-67995194D01*
X211117663Y-68005121D01*
X211122139Y-68015211D01*
X211126271Y-68025470D01*
X211130055Y-68035900D01*
X211133490Y-68046508D01*
X211136573Y-68057297D01*
X211139303Y-68068272D01*
X211141676Y-68079439D01*
X211143690Y-68090801D01*
X211145343Y-68102363D01*
X211146633Y-68114131D01*
X211147557Y-68126108D01*
X211148114Y-68138299D01*
X211148300Y-68150709D01*
X211046540Y-68150709D01*
X211046260Y-68136883D01*
X211045422Y-68123428D01*
X211044024Y-68110340D01*
X211042068Y-68097618D01*
X211039552Y-68085260D01*
X211036478Y-68073262D01*
X211032845Y-68061623D01*
X211028652Y-68050341D01*
X211023901Y-68039412D01*
X211018591Y-68028835D01*
X211012721Y-68018608D01*
X211006293Y-68008727D01*
X210999306Y-67999192D01*
X210991759Y-67989998D01*
X210983654Y-67981145D01*
X210974990Y-67972629D01*
X210965878Y-67964543D01*
X210956425Y-67956978D01*
X210946628Y-67949935D01*
X210936482Y-67943413D01*
X210925982Y-67937414D01*
X210915123Y-67931935D01*
X210903900Y-67926979D01*
X210892310Y-67922545D01*
X210880347Y-67918632D01*
X210868007Y-67915240D01*
X210855284Y-67912371D01*
X210842176Y-67910023D01*
X210828675Y-67908197D01*
X210814779Y-67906893D01*
X210800483Y-67906110D01*
X210785781Y-67905849D01*
X210771638Y-67906092D01*
X210757831Y-67906818D01*
X210744360Y-67908030D01*
X210731223Y-67909725D01*
X210718423Y-67911905D01*
X210705957Y-67914570D01*
X210693827Y-67917719D01*
X210682033Y-67921352D01*
X210670574Y-67925470D01*
X210659450Y-67930072D01*
X210648661Y-67935159D01*
X210638208Y-67940730D01*
X210628091Y-67946786D01*
X210618309Y-67953326D01*
X210608862Y-67960351D01*
X210599750Y-67967860D01*
X210591086Y-67975778D01*
X210582981Y-67984030D01*
X210575435Y-67992612D01*
X210568448Y-68001523D01*
X210562019Y-68010760D01*
X210556150Y-68020320D01*
X210550840Y-68030202D01*
X210546089Y-68040403D01*
X210541896Y-68050921D01*
X210538263Y-68061753D01*
X210535189Y-68072898D01*
X210532673Y-68084352D01*
X210530717Y-68096113D01*
X210529319Y-68108180D01*
X210528481Y-68120549D01*
X210528201Y-68133219D01*
X210528517Y-68145013D01*
X210529462Y-68156541D01*
X210531031Y-68167799D01*
X210533220Y-68178783D01*
X210536023Y-68189486D01*
X210539437Y-68199906D01*
X210543456Y-68210037D01*
X210548076Y-68219874D01*
X210553292Y-68229413D01*
X210559100Y-68238650D01*
X210565495Y-68247579D01*
X210572472Y-68256195D01*
X210580027Y-68264495D01*
X210588155Y-68272474D01*
X210596851Y-68280127D01*
X210606110Y-68287449D01*
X210616116Y-68294380D01*
X210626457Y-68300864D01*
X210637134Y-68306901D01*
X210648146Y-68312491D01*
X210659493Y-68317634D01*
X210671176Y-68322329D01*
X210683194Y-68326577D01*
X210695548Y-68330379D01*
X210708237Y-68333732D01*
X210721261Y-68336639D01*
X210734621Y-68339099D01*
X210748316Y-68341111D01*
X210762346Y-68342676D01*
X210776712Y-68343794D01*
X210791413Y-68344465D01*
X210806450Y-68344688D01*
X210874820Y-68344688D01*
X210874820Y-68440088D01*
X210806450Y-68440088D01*
X210794916Y-68440200D01*
X210783566Y-68440536D01*
X210772397Y-68441095D01*
X210761408Y-68441877D01*
X210750596Y-68442883D01*
X210739959Y-68444113D01*
X210729494Y-68445566D01*
X210719199Y-68447243D01*
X210709072Y-68449144D01*
X210699110Y-68451268D01*
X210689311Y-68453616D01*
X210679673Y-68456187D01*
X210670193Y-68458982D01*
X210660869Y-68462001D01*
X210651699Y-68465243D01*
X210642680Y-68468708D01*
X210634128Y-68472379D01*
X210625768Y-68476236D01*
X210617603Y-68480279D01*
X210609638Y-68484509D01*
X210601878Y-68488925D01*
X210594328Y-68493527D01*
X210586992Y-68498316D01*
X210579876Y-68503291D01*
X210572982Y-68508452D01*
X210566317Y-68513800D01*
X210559885Y-68519334D01*
X210553691Y-68525054D01*
X210547738Y-68530960D01*
X210542033Y-68537053D01*
X210536579Y-68543333D01*
X210531381Y-68549798D01*
X210526742Y-68556413D01*
X210522369Y-68563139D01*
X210518266Y-68569978D01*
X210514438Y-68576928D01*
X210510889Y-68583989D01*
X210507624Y-68591163D01*
X210504648Y-68598448D01*
X210501966Y-68605846D01*
X210499581Y-68613355D01*
X210497500Y-68620975D01*
X210495726Y-68628708D01*
X210494264Y-68636552D01*
X210493119Y-68644509D01*
X210492295Y-68652577D01*
X210491797Y-68660756D01*
X210491630Y-68669048D01*
X210491947Y-68682314D01*
X210492897Y-68695280D01*
X210494481Y-68707943D01*
X210496699Y-68720300D01*
X210499550Y-68732351D01*
X210503034Y-68744091D01*
X210507152Y-68755520D01*
X210511903Y-68766634D01*
X210517288Y-68777431D01*
X210523306Y-68787909D01*
X210529958Y-68798066D01*
X210537244Y-68807899D01*
X210545163Y-68817406D01*
X210553715Y-68826585D01*
X210562901Y-68835433D01*
X210572720Y-68843948D01*
X210582763Y-68852034D01*
X210593213Y-68859599D01*
X210604069Y-68866642D01*
X210615327Y-68873164D01*
X210626986Y-68879164D01*
X210639044Y-68884642D01*
X210651497Y-68889598D01*
X210664344Y-68894033D01*
X210677582Y-68897945D01*
X210691209Y-68901337D01*
X210705223Y-68904206D01*
X210719621Y-68906554D01*
X210734401Y-68908380D01*
X210749561Y-68909684D01*
X210765098Y-68910467D01*
X210781010Y-68910728D01*
X210797184Y-68910449D01*
X210812916Y-68909613D01*
X210828209Y-68908223D01*
X210843070Y-68906281D01*
X210857502Y-68903789D01*
X210871510Y-68900750D01*
X210885098Y-68897166D01*
X210898272Y-68893039D01*
X210911037Y-68888372D01*
X210923395Y-68883166D01*
X210935354Y-68877426D01*
X210946916Y-68871151D01*
X210958087Y-68864346D01*
X210968872Y-68857012D01*
X210979274Y-68849152D01*
X210989299Y-68840767D01*
X210998839Y-68831637D01*
X211007780Y-68822131D01*
X211016120Y-68812249D01*
X211023857Y-68801986D01*
X211030988Y-68791342D01*
X211037512Y-68780313D01*
X211043425Y-68768898D01*
X211048725Y-68757094D01*
X211053411Y-68744898D01*
X211057480Y-68732309D01*
X211060929Y-68719324D01*
X211063756Y-68705941D01*
X211065959Y-68692157D01*
X211067535Y-68677970D01*
X211068483Y-68663378D01*
X211068799Y-68648378D01*
X211175330Y-68648378D01*
X211175125Y-68661402D01*
X211174513Y-68674240D01*
X211173495Y-68686892D01*
X211172075Y-68699357D01*
X211170254Y-68711636D01*
X211168035Y-68723729D01*
X211165420Y-68735635D01*
X211162411Y-68747355D01*
X211159011Y-68758889D01*
X211155221Y-68770236D01*
X211151046Y-68781397D01*
X211146486Y-68792372D01*
X211141544Y-68803160D01*
X211136222Y-68813762D01*
X211130523Y-68824178D01*
X211124449Y-68834407D01*
X211117759Y-68844133D01*
X211110804Y-68853630D01*
X211103579Y-68862895D01*
X211096078Y-68871921D01*
X211088298Y-68880706D01*
X211080234Y-68889244D01*
X211071881Y-68897530D01*
X211063235Y-68905560D01*
X211054290Y-68913329D01*
X211045043Y-68920833D01*
X211035488Y-68928066D01*
X211025621Y-68935024D01*
X211015438Y-68941704D01*
X211004933Y-68948098D01*
X210994101Y-68954205D01*
X210982939Y-68960017D01*
X210971798Y-68965496D01*
X210960434Y-68970604D01*
X210948852Y-68975344D01*
X210937053Y-68979718D01*
X210925040Y-68983729D01*
X210912815Y-68987379D01*
X210900381Y-68990671D01*
X210887739Y-68993606D01*
X210874892Y-68996187D01*
X210861842Y-68998416D01*
X210848593Y-69000296D01*
X210835145Y-69001829D01*
X210821501Y-69003017D01*
X210807664Y-69003863D01*
X210793637Y-69004369D01*
X210779420Y-69004537D01*
X210765501Y-69004369D01*
X210751769Y-69003866D01*
X210738223Y-69003028D01*
X210724863Y-69001854D01*
X210711690Y-69000345D01*
X210698703Y-68998500D01*
X210685902Y-68996320D01*
X210673288Y-68993805D01*
X210660860Y-68990954D01*
X210648618Y-68987768D01*
X210636563Y-68984246D01*
X210624694Y-68980389D01*
X210613011Y-68976197D01*
X210601514Y-68971669D01*
X210590204Y-68966806D01*
X210579080Y-68961607D01*
X210567919Y-68956111D01*
X210557091Y-68950353D01*
X210546593Y-68944335D01*
X210536424Y-68938056D01*
X210526581Y-68931516D01*
X210517062Y-68924715D01*
X210507864Y-68917653D01*
X210498985Y-68910330D01*
X210490423Y-68902746D01*
X210482175Y-68894902D01*
X210474239Y-68886797D01*
X210466614Y-68878431D01*
X210459295Y-68869804D01*
X210452282Y-68860916D01*
X210445571Y-68851767D01*
X210439161Y-68842358D01*
X210433087Y-68832743D01*
X210427388Y-68822976D01*
X210422067Y-68813056D01*
X210417125Y-68802980D01*
X210412565Y-68792746D01*
X210408389Y-68782350D01*
X210404600Y-68771792D01*
X210401200Y-68761069D01*
X210398191Y-68750177D01*
X210395576Y-68739116D01*
X210393356Y-68727883D01*
X210391535Y-68716474D01*
X210390115Y-68704889D01*
X210389098Y-68693124D01*
X210388486Y-68681178D01*
X210388281Y-68669048D01*
X210388560Y-68656042D01*
X210389396Y-68643260D01*
X210390786Y-68630702D01*
X210392728Y-68618367D01*
X210395220Y-68606256D01*
X210398259Y-68594368D01*
X210401843Y-68582704D01*
X210405970Y-68571263D01*
X210410637Y-68560046D01*
X210415842Y-68549053D01*
X210421583Y-68538283D01*
X210427857Y-68527737D01*
X210434662Y-68517414D01*
X210441996Y-68507315D01*
X210449856Y-68497440D01*
X210458240Y-68487788D01*
X210467352Y-68478471D01*
X210476802Y-68469599D01*
X210486592Y-68461170D01*
X210496724Y-68453181D01*
X210507200Y-68445630D01*
X210518024Y-68438514D01*
X210529197Y-68431831D01*
X210540722Y-68425580D01*
X210552601Y-68419757D01*
X210564836Y-68414360D01*
X210577430Y-68409387D01*
X210590384Y-68404835D01*
X210603703Y-68400703D01*
X210617386Y-68396988D01*
X210631438Y-68393687D01*
X210645860Y-68390798D01*
X210645860Y-68389209D01*
X210633209Y-68385464D01*
X210620892Y-68381386D01*
X210608911Y-68376977D01*
X210597266Y-68372240D01*
X210585956Y-68367177D01*
X210574981Y-68361790D01*
X210564342Y-68356082D01*
X210554038Y-68350055D01*
X210544070Y-68343711D01*
X210534436Y-68337052D01*
X210525139Y-68330082D01*
X210516176Y-68322801D01*
X210507550Y-68315214D01*
X210499258Y-68307321D01*
X210491302Y-68299125D01*
X210483681Y-68290629D01*
X210476732Y-68281610D01*
X210470197Y-68272440D01*
X210464081Y-68263116D01*
X210458390Y-68253637D01*
X210453127Y-68243998D01*
X210448297Y-68234199D01*
X210443905Y-68224238D01*
X210439956Y-68214110D01*
X210436453Y-68203815D01*
X210433403Y-68193350D01*
X210430809Y-68182713D01*
X210428676Y-68171901D01*
X210427010Y-68160912D01*
X210425813Y-68149743D01*
X210425092Y-68138393D01*
X210424851Y-68126859D01*
X210425037Y-68115605D01*
X210425596Y-68104500D01*
X210426528Y-68093544D01*
X210427832Y-68082737D01*
X210429509Y-68072079D01*
X210431558Y-68061570D01*
X210433981Y-68051210D01*
X210436776Y-68040999D01*
X210439943Y-68030938D01*
X210443484Y-68021025D01*
X210447397Y-68011261D01*
X210451682Y-68001647D01*
X210456340Y-67992181D01*
X210461371Y-67982865D01*
X210466775Y-67973698D01*
X210472551Y-67964680D01*
X210478627Y-67955866D01*
X210484932Y-67947311D01*
X210491476Y-67939012D01*
X210498264Y-67930967D01*
X210505304Y-67923173D01*
X210512602Y-67915629D01*
X210520166Y-67908331D01*
X210528002Y-67901278D01*
X210536118Y-67894468D01*
X210544520Y-67887897D01*
X210553216Y-67881564D01*
X210562212Y-67875466D01*
X210571515Y-67869601D01*
X210581133Y-67863966D01*
X210591073Y-67858560D01*
X210601341Y-67853380D01*
X210611570Y-67848461D01*
X210621983Y-67843843D01*
X210632577Y-67839528D01*
X210643351Y-67835517D01*
X210654302Y-67831814D01*
X210665428Y-67828421D01*
X210676726Y-67825340D01*
X210688194Y-67822574D01*
X210699830Y-67820124D01*
X210711631Y-67817993D01*
X210723596Y-67816184D01*
X210735720Y-67814698D01*
X210748004Y-67813539D01*
X210760443Y-67812708D01*
X210773036Y-67812207D01*
X210785781Y-67812040D01*
X210798805Y-67812208D01*
G37*
G36*
X205904423Y-64600000D02*
G01*
X204817620Y-64600000D01*
X204782060Y-64388862D01*
X205628833Y-64388862D01*
X205544378Y-63879910D01*
X204759835Y-63879910D01*
X204726497Y-63670995D01*
X205508818Y-63670995D01*
X205431030Y-63195380D01*
X204584258Y-63195380D01*
X204548698Y-62982020D01*
X205635500Y-62982020D01*
X205904423Y-64600000D01*
G37*
G36*
X212056982Y-68012379D02*
G01*
X212056982Y-68122089D01*
X211780323Y-67937650D01*
X211778733Y-67937650D01*
X211778733Y-68987047D01*
X211676973Y-68987047D01*
X211676973Y-67829530D01*
X211783502Y-67829530D01*
X212056982Y-68012379D01*
G37*
G36*
X206865184Y-67813817D02*
G01*
X206878506Y-67814378D01*
X206891568Y-67815317D01*
X206904369Y-67816636D01*
X206916908Y-67818337D01*
X206929187Y-67820422D01*
X206941205Y-67822893D01*
X206952963Y-67825754D01*
X206964459Y-67829005D01*
X206975695Y-67832651D01*
X206986669Y-67836692D01*
X206997383Y-67841132D01*
X207007836Y-67845972D01*
X207018028Y-67851215D01*
X207027959Y-67856864D01*
X207037630Y-67862920D01*
X207047338Y-67869049D01*
X207056791Y-67875512D01*
X207065991Y-67882306D01*
X207074945Y-67889428D01*
X207083657Y-67896876D01*
X207092131Y-67904648D01*
X207100372Y-67912741D01*
X207108385Y-67921153D01*
X207116174Y-67929882D01*
X207123744Y-67938926D01*
X207131101Y-67948282D01*
X207138247Y-67957947D01*
X207145189Y-67967920D01*
X207151930Y-67978198D01*
X207158475Y-67988779D01*
X207164830Y-67999660D01*
X207170979Y-68010802D01*
X207176907Y-68022168D01*
X207188108Y-68045571D01*
X207198453Y-68069868D01*
X207207958Y-68095059D01*
X207216644Y-68121145D01*
X207224529Y-68148125D01*
X207231631Y-68176000D01*
X207237970Y-68204769D01*
X207243491Y-68234349D01*
X207248156Y-68264618D01*
X207252000Y-68295520D01*
X207255062Y-68327000D01*
X207257379Y-68359002D01*
X207258987Y-68391469D01*
X207259925Y-68424347D01*
X207260229Y-68457578D01*
X207259819Y-68490465D01*
X207258590Y-68522346D01*
X207256540Y-68553220D01*
X207253671Y-68583089D01*
X207249981Y-68611951D01*
X207245472Y-68639807D01*
X207240143Y-68666657D01*
X207233994Y-68692500D01*
X207227026Y-68717338D01*
X207219237Y-68741169D01*
X207210629Y-68763994D01*
X207201201Y-68785813D01*
X207190953Y-68806626D01*
X207179885Y-68826433D01*
X207167997Y-68845233D01*
X207155290Y-68863028D01*
X207141594Y-68880058D01*
X207127337Y-68895973D01*
X207112517Y-68910775D01*
X207097131Y-68924466D01*
X207081176Y-68937048D01*
X207064651Y-68948524D01*
X207047552Y-68958896D01*
X207029879Y-68968166D01*
X207011628Y-68976337D01*
X206992796Y-68983411D01*
X206973383Y-68989390D01*
X206953385Y-68994277D01*
X206932800Y-68998074D01*
X206911626Y-69000783D01*
X206889860Y-69002407D01*
X206867500Y-69002947D01*
X206853600Y-69002761D01*
X206839924Y-69002199D01*
X206826471Y-69001260D01*
X206813242Y-68999941D01*
X206800236Y-68998241D01*
X206787454Y-68996156D01*
X206774896Y-68993684D01*
X206762561Y-68990823D01*
X206750449Y-68987572D01*
X206738562Y-68983926D01*
X206726898Y-68979885D01*
X206715457Y-68975445D01*
X206704240Y-68970605D01*
X206693247Y-68965362D01*
X206682477Y-68959713D01*
X206671931Y-68953657D01*
X206661365Y-68947266D01*
X206651130Y-68940611D01*
X206641222Y-68933691D01*
X206631634Y-68926503D01*
X206622364Y-68919045D01*
X206613405Y-68911314D01*
X206604754Y-68903309D01*
X206596406Y-68895026D01*
X206588356Y-68886464D01*
X206580599Y-68877620D01*
X206573131Y-68868492D01*
X206565948Y-68859077D01*
X206559043Y-68849374D01*
X206552414Y-68839380D01*
X206546055Y-68829092D01*
X206539961Y-68818508D01*
X206534185Y-68807683D01*
X206528782Y-68796673D01*
X206523751Y-68785482D01*
X206519093Y-68774112D01*
X206514807Y-68762565D01*
X206510894Y-68750843D01*
X206507354Y-68738948D01*
X206504186Y-68726884D01*
X206501392Y-68714652D01*
X206498969Y-68702255D01*
X206496920Y-68689694D01*
X206495243Y-68676973D01*
X206493938Y-68664094D01*
X206493007Y-68651058D01*
X206492448Y-68637869D01*
X206492262Y-68624528D01*
X206594021Y-68624528D01*
X206594152Y-68634310D01*
X206594546Y-68643981D01*
X206595206Y-68653539D01*
X206596133Y-68662986D01*
X206597330Y-68672321D01*
X206598800Y-68681544D01*
X206600545Y-68690656D01*
X206602567Y-68699655D01*
X206604869Y-68708543D01*
X206607452Y-68717319D01*
X206610320Y-68725984D01*
X206613474Y-68734536D01*
X206616916Y-68742977D01*
X206620650Y-68751305D01*
X206624678Y-68759522D01*
X206629001Y-68767628D01*
X206633846Y-68775566D01*
X206638845Y-68783285D01*
X206644003Y-68790791D01*
X206649323Y-68798086D01*
X206654811Y-68805177D01*
X206660472Y-68812067D01*
X206666309Y-68818762D01*
X206672328Y-68825265D01*
X206678534Y-68831583D01*
X206684930Y-68837718D01*
X206691522Y-68843677D01*
X206698315Y-68849463D01*
X206705312Y-68855082D01*
X206712519Y-68860537D01*
X206719940Y-68865834D01*
X206727581Y-68870978D01*
X206735668Y-68875599D01*
X206743832Y-68879921D01*
X206752075Y-68883946D01*
X206760399Y-68887673D01*
X206768808Y-68891101D01*
X206777302Y-68894231D01*
X206785885Y-68897063D01*
X206794559Y-68899598D01*
X206803326Y-68901833D01*
X206812189Y-68903771D01*
X206821149Y-68905411D01*
X206830210Y-68906752D01*
X206839373Y-68907796D01*
X206848641Y-68908541D01*
X206858016Y-68908988D01*
X206867500Y-68909137D01*
X206876406Y-68908989D01*
X206885236Y-68908547D01*
X206893986Y-68907817D01*
X206902654Y-68906802D01*
X206911239Y-68905508D01*
X206919737Y-68903939D01*
X206928147Y-68902100D01*
X206936466Y-68899995D01*
X206944692Y-68897629D01*
X206952823Y-68895008D01*
X206960856Y-68892134D01*
X206968788Y-68889014D01*
X206976618Y-68885652D01*
X206984343Y-68882052D01*
X206991961Y-68878219D01*
X206999470Y-68874157D01*
X207006830Y-68869592D01*
X207014004Y-68864835D01*
X207020991Y-68859882D01*
X207027792Y-68854730D01*
X207034407Y-68849372D01*
X207040835Y-68843805D01*
X207047077Y-68838023D01*
X207053133Y-68832023D01*
X207059002Y-68825799D01*
X207064685Y-68819346D01*
X207070181Y-68812661D01*
X207075492Y-68805738D01*
X207080616Y-68798573D01*
X207085553Y-68791161D01*
X207090305Y-68783497D01*
X207094870Y-68775578D01*
X207099528Y-68767751D01*
X207103960Y-68759774D01*
X207108163Y-68751643D01*
X207112136Y-68743355D01*
X207115876Y-68734910D01*
X207119381Y-68726303D01*
X207122649Y-68717534D01*
X207125676Y-68708599D01*
X207128461Y-68699497D01*
X207131002Y-68690224D01*
X207133296Y-68680779D01*
X207135340Y-68671160D01*
X207137133Y-68661363D01*
X207138672Y-68651387D01*
X207139955Y-68641230D01*
X207140980Y-68630888D01*
X207141426Y-68621106D01*
X207141573Y-68611435D01*
X207141416Y-68601877D01*
X207140955Y-68592430D01*
X207140186Y-68583095D01*
X207139107Y-68573872D01*
X207137716Y-68564760D01*
X207136011Y-68555761D01*
X207133989Y-68546873D01*
X207131648Y-68538097D01*
X207128985Y-68529432D01*
X207125999Y-68520880D01*
X207122687Y-68512439D01*
X207119046Y-68504110D01*
X207115075Y-68495893D01*
X207110770Y-68487788D01*
X207106186Y-68479552D01*
X207101379Y-68471540D01*
X207096348Y-68463752D01*
X207091094Y-68456187D01*
X207085616Y-68448846D01*
X207079914Y-68441728D01*
X207073989Y-68434834D01*
X207067840Y-68428163D01*
X207061468Y-68421717D01*
X207054872Y-68415493D01*
X207048052Y-68409493D01*
X207041009Y-68403717D01*
X207033742Y-68398165D01*
X207026252Y-68392836D01*
X207018538Y-68387730D01*
X207010600Y-68382849D01*
X207002495Y-68377948D01*
X206994278Y-68373380D01*
X206985949Y-68369143D01*
X206977508Y-68365234D01*
X206968956Y-68361652D01*
X206960292Y-68358393D01*
X206951516Y-68355456D01*
X206942628Y-68352837D01*
X206933628Y-68350536D01*
X206924517Y-68348549D01*
X206915293Y-68346874D01*
X206905958Y-68345509D01*
X206896512Y-68344451D01*
X206886953Y-68343698D01*
X206877283Y-68343248D01*
X206867500Y-68343099D01*
X206857736Y-68343248D01*
X206848119Y-68343695D01*
X206838646Y-68344440D01*
X206829316Y-68345484D01*
X206820125Y-68346825D01*
X206811071Y-68348465D01*
X206802153Y-68350403D01*
X206793367Y-68352639D01*
X206784712Y-68355173D01*
X206776184Y-68358005D01*
X206767783Y-68361135D01*
X206759505Y-68364564D01*
X206751348Y-68368290D01*
X206743310Y-68372315D01*
X206735388Y-68376638D01*
X206727581Y-68381259D01*
X206719940Y-68385842D01*
X206712519Y-68390649D01*
X206705312Y-68395680D01*
X206698315Y-68400935D01*
X206691522Y-68406413D01*
X206684930Y-68412114D01*
X206678534Y-68418040D01*
X206672328Y-68424188D01*
X206666309Y-68430561D01*
X206660472Y-68437157D01*
X206654811Y-68443976D01*
X206649323Y-68451020D01*
X206644003Y-68458286D01*
X206638845Y-68465777D01*
X206633846Y-68473491D01*
X206629001Y-68481428D01*
X206624678Y-68489534D01*
X206620650Y-68497751D01*
X206616916Y-68506079D01*
X206613474Y-68514520D01*
X206610320Y-68523072D01*
X206607452Y-68531737D01*
X206604869Y-68540513D01*
X206602567Y-68549401D01*
X206600545Y-68558400D01*
X206598800Y-68567512D01*
X206597330Y-68576735D01*
X206596133Y-68586070D01*
X206595206Y-68595517D01*
X206594546Y-68605075D01*
X206594152Y-68614746D01*
X206594021Y-68624528D01*
X206492262Y-68624528D01*
X206492448Y-68611188D01*
X206493007Y-68598001D01*
X206493938Y-68584973D01*
X206495243Y-68572108D01*
X206496920Y-68559410D01*
X206498969Y-68546885D01*
X206501392Y-68534537D01*
X206504186Y-68522371D01*
X206507354Y-68510391D01*
X206510894Y-68498601D01*
X206514807Y-68487008D01*
X206519093Y-68475615D01*
X206523751Y-68464427D01*
X206528782Y-68453448D01*
X206534185Y-68442684D01*
X206539961Y-68432139D01*
X206546054Y-68421555D01*
X206552411Y-68411267D01*
X206559033Y-68401272D01*
X206565923Y-68391569D01*
X206573083Y-68382154D01*
X206580515Y-68373026D01*
X206588223Y-68364182D01*
X206596207Y-68355620D01*
X206604471Y-68347337D01*
X206613017Y-68339332D01*
X206621847Y-68331601D01*
X206630964Y-68324143D01*
X206640369Y-68316955D01*
X206650065Y-68310035D01*
X206660055Y-68303380D01*
X206670341Y-68296989D01*
X206680570Y-68291213D01*
X206690983Y-68285809D01*
X206701578Y-68280778D01*
X206712352Y-68276120D01*
X206723303Y-68271835D01*
X206734428Y-68267922D01*
X206745726Y-68264381D01*
X206757194Y-68261214D01*
X206768830Y-68258419D01*
X206780631Y-68255997D01*
X206792595Y-68253947D01*
X206804720Y-68252270D01*
X206817004Y-68250966D01*
X206829443Y-68250034D01*
X206842036Y-68249475D01*
X206854781Y-68249289D01*
X206867525Y-68249476D01*
X206880121Y-68250037D01*
X206892568Y-68250976D01*
X206904865Y-68252295D01*
X206917014Y-68253996D01*
X206929013Y-68256081D01*
X206940864Y-68258552D01*
X206952565Y-68261413D01*
X206964118Y-68264664D01*
X206975521Y-68268310D01*
X206986775Y-68272351D01*
X206997880Y-68276791D01*
X207008836Y-68281631D01*
X207019643Y-68286874D01*
X207030301Y-68292523D01*
X207040810Y-68298579D01*
X207051057Y-68304671D01*
X207060930Y-68311022D01*
X207070426Y-68317630D01*
X207079541Y-68324491D01*
X207088275Y-68331603D01*
X207096624Y-68338965D01*
X207104587Y-68346574D01*
X207112161Y-68354427D01*
X207119344Y-68362523D01*
X207126133Y-68370858D01*
X207132526Y-68379431D01*
X207138520Y-68388240D01*
X207144115Y-68397281D01*
X207149306Y-68406553D01*
X207154092Y-68416053D01*
X207158470Y-68425779D01*
X207160060Y-68425779D01*
X207160023Y-68396060D01*
X207159318Y-68367126D01*
X207157946Y-68338979D01*
X207155911Y-68311622D01*
X207153214Y-68285056D01*
X207149858Y-68259285D01*
X207145846Y-68234311D01*
X207141179Y-68210135D01*
X207135859Y-68186761D01*
X207129890Y-68164190D01*
X207123274Y-68142425D01*
X207116012Y-68121468D01*
X207108107Y-68101322D01*
X207099562Y-68081988D01*
X207090379Y-68063470D01*
X207080560Y-68045769D01*
X207070144Y-68029298D01*
X207059166Y-68013873D01*
X207047625Y-67999496D01*
X207035518Y-67986169D01*
X207022843Y-67973895D01*
X207009597Y-67962676D01*
X206995778Y-67952515D01*
X206981384Y-67943413D01*
X206966412Y-67935373D01*
X206950860Y-67928398D01*
X206934726Y-67922490D01*
X206918008Y-67917650D01*
X206900702Y-67913882D01*
X206882807Y-67911188D01*
X206864321Y-67909569D01*
X206845241Y-67909029D01*
X206833446Y-67909235D01*
X206821912Y-67909852D01*
X206810639Y-67910885D01*
X206799627Y-67912334D01*
X206788876Y-67914202D01*
X206778386Y-67916492D01*
X206768157Y-67919206D01*
X206758188Y-67922346D01*
X206748480Y-67925914D01*
X206739034Y-67929914D01*
X206729848Y-67934346D01*
X206720922Y-67939215D01*
X206712258Y-67944521D01*
X206703855Y-67950267D01*
X206695712Y-67956456D01*
X206687831Y-67963089D01*
X206680248Y-67970357D01*
X206673002Y-67977856D01*
X206666097Y-67985592D01*
X206659534Y-67993573D01*
X206653315Y-68001805D01*
X206647444Y-68010295D01*
X206641922Y-68019052D01*
X206636752Y-68028080D01*
X206631936Y-68037389D01*
X206627476Y-68046983D01*
X206623375Y-68056872D01*
X206619635Y-68067060D01*
X206616258Y-68077556D01*
X206613247Y-68088367D01*
X206610604Y-68099499D01*
X206608331Y-68110959D01*
X206506571Y-68110959D01*
X206508676Y-68094469D01*
X206511413Y-68078386D01*
X206514778Y-68062709D01*
X206518769Y-68047434D01*
X206523385Y-68032560D01*
X206528623Y-68018084D01*
X206534480Y-68004005D01*
X206540955Y-67990318D01*
X206548044Y-67977024D01*
X206555746Y-67964118D01*
X206564058Y-67951598D01*
X206572978Y-67939463D01*
X206582504Y-67927710D01*
X206592633Y-67916337D01*
X206603363Y-67905341D01*
X206614691Y-67894720D01*
X206626784Y-67884900D01*
X206639218Y-67875714D01*
X206651996Y-67867162D01*
X206665124Y-67859243D01*
X206678605Y-67851958D01*
X206692446Y-67845306D01*
X206706649Y-67839287D01*
X206721221Y-67833902D01*
X206736165Y-67829151D01*
X206751487Y-67825033D01*
X206767190Y-67821549D01*
X206783280Y-67818698D01*
X206799762Y-67816481D01*
X206816639Y-67814897D01*
X206833917Y-67813947D01*
X206851601Y-67813630D01*
X206865184Y-67813817D01*
G37*
G36*
X204685751Y-66822500D02*
G01*
X204445721Y-66822500D01*
X204343486Y-66211312D01*
X203954549Y-66211312D01*
X203734522Y-66822500D01*
X203483379Y-66822500D01*
X203723409Y-66171307D01*
X203703615Y-66163989D01*
X203684237Y-66156201D01*
X203665277Y-66147945D01*
X203646733Y-66139220D01*
X203628606Y-66130026D01*
X203610895Y-66120363D01*
X203593601Y-66110232D01*
X203576724Y-66099632D01*
X203560264Y-66088563D01*
X203544220Y-66077025D01*
X203528593Y-66065018D01*
X203513383Y-66052542D01*
X203498589Y-66039598D01*
X203484212Y-66026185D01*
X203470252Y-66012303D01*
X203456709Y-65997952D01*
X203443687Y-65982768D01*
X203431289Y-65967215D01*
X203419517Y-65951291D01*
X203408370Y-65934993D01*
X203397847Y-65918317D01*
X203387950Y-65901261D01*
X203378678Y-65883820D01*
X203370031Y-65865991D01*
X203362010Y-65847773D01*
X203354613Y-65829160D01*
X203347841Y-65810150D01*
X203341695Y-65790739D01*
X203336173Y-65770925D01*
X203331277Y-65750704D01*
X203327005Y-65730072D01*
X203323359Y-65709027D01*
X203319036Y-65680247D01*
X203316066Y-65652245D01*
X203315208Y-65637768D01*
X203555749Y-65637768D01*
X203555932Y-65653213D01*
X203556895Y-65669127D01*
X203558640Y-65685509D01*
X203561167Y-65702360D01*
X203564371Y-65719237D01*
X203568155Y-65735697D01*
X203572525Y-65751741D01*
X203577488Y-65767368D01*
X203583050Y-65782578D01*
X203589217Y-65797372D01*
X203595996Y-65811749D01*
X203603394Y-65825709D01*
X203611417Y-65839252D01*
X203620071Y-65852379D01*
X203629364Y-65865088D01*
X203639301Y-65877382D01*
X203649890Y-65889258D01*
X203661136Y-65900718D01*
X203673046Y-65911761D01*
X203685626Y-65922387D01*
X203698753Y-65932467D01*
X203712297Y-65941873D01*
X203726257Y-65950609D01*
X203740633Y-65958677D01*
X203755427Y-65966080D01*
X203770637Y-65972823D01*
X203786264Y-65978909D01*
X203802308Y-65984339D01*
X203818768Y-65989119D01*
X203835645Y-65993251D01*
X203852939Y-65996738D01*
X203870650Y-65999584D01*
X203888777Y-66001792D01*
X203907321Y-66003365D01*
X203926282Y-66004307D01*
X203945659Y-66004620D01*
X204310149Y-66004620D01*
X204212359Y-65413435D01*
X203850091Y-65413435D01*
X203830427Y-65413746D01*
X203811436Y-65414676D01*
X203793117Y-65416218D01*
X203775464Y-65418366D01*
X203758476Y-65421113D01*
X203742148Y-65424452D01*
X203726478Y-65428377D01*
X203711463Y-65432882D01*
X203697099Y-65437959D01*
X203683382Y-65443604D01*
X203670310Y-65449808D01*
X203657880Y-65456565D01*
X203646088Y-65463870D01*
X203634930Y-65471715D01*
X203624404Y-65480094D01*
X203614507Y-65489000D01*
X203605313Y-65498819D01*
X203596900Y-65509106D01*
X203589269Y-65519863D01*
X203582419Y-65531088D01*
X203576351Y-65542783D01*
X203571064Y-65554946D01*
X203566558Y-65567577D01*
X203562833Y-65580678D01*
X203559890Y-65594247D01*
X203557729Y-65608286D01*
X203556348Y-65622793D01*
X203555749Y-65637768D01*
X203315208Y-65637768D01*
X203314452Y-65625018D01*
X203314191Y-65598562D01*
X203315285Y-65572875D01*
X203317733Y-65547953D01*
X203321536Y-65523792D01*
X203326693Y-65500390D01*
X203333204Y-65477744D01*
X203341070Y-65455849D01*
X203350289Y-65434703D01*
X203360864Y-65414303D01*
X203372792Y-65394645D01*
X203386075Y-65375726D01*
X203400712Y-65357543D01*
X203416704Y-65340092D01*
X203433868Y-65323919D01*
X203452021Y-65308743D01*
X203471164Y-65294569D01*
X203491297Y-65281404D01*
X203512419Y-65269256D01*
X203534531Y-65258129D01*
X203557633Y-65248031D01*
X203581725Y-65238969D01*
X203606806Y-65230948D01*
X203632877Y-65223975D01*
X203659938Y-65218058D01*
X203687988Y-65213201D01*
X203717028Y-65209413D01*
X203747058Y-65206699D01*
X203778077Y-65205066D01*
X203810086Y-65204520D01*
X204416829Y-65204520D01*
X204685751Y-66822500D01*
G37*
G36*
X209254656Y-65891272D02*
G01*
X210056978Y-65891272D01*
X209943631Y-65204520D01*
X210183661Y-65204520D01*
X210452583Y-66822500D01*
X210212553Y-66822500D01*
X210092539Y-66100187D01*
X209287993Y-66100187D01*
X209408008Y-66822500D01*
X209165756Y-66822500D01*
X208899056Y-65204520D01*
X209139085Y-65204520D01*
X209254656Y-65891272D01*
G37*
G36*
X210700578Y-63913247D02*
G01*
X210473883Y-63913247D01*
X210467424Y-63901345D01*
X210460552Y-63889807D01*
X210453270Y-63878634D01*
X210445581Y-63867825D01*
X210437488Y-63857381D01*
X210428994Y-63847302D01*
X210420104Y-63837587D01*
X210410819Y-63828237D01*
X210401144Y-63819251D01*
X210391082Y-63810630D01*
X210380635Y-63802374D01*
X210369808Y-63794483D01*
X210358602Y-63786956D01*
X210347023Y-63779793D01*
X210335072Y-63772995D01*
X210322753Y-63766562D01*
X210309757Y-63760519D01*
X210296604Y-63754890D01*
X210283295Y-63749671D01*
X210269830Y-63744858D01*
X210256208Y-63740450D01*
X210242430Y-63736441D01*
X210228496Y-63732830D01*
X210214406Y-63729613D01*
X210200159Y-63726787D01*
X210185757Y-63724348D01*
X210171197Y-63722293D01*
X210156482Y-63720619D01*
X210141610Y-63719323D01*
X210126583Y-63718401D01*
X210111398Y-63717850D01*
X210096058Y-63717667D01*
X210078451Y-63718033D01*
X210061466Y-63719135D01*
X210045099Y-63720978D01*
X210029348Y-63723571D01*
X210014209Y-63726919D01*
X209999679Y-63731028D01*
X209992641Y-63733371D01*
X209985754Y-63735906D01*
X209979018Y-63738636D01*
X209972431Y-63741559D01*
X209965995Y-63744678D01*
X209959708Y-63747993D01*
X209953570Y-63751506D01*
X209947580Y-63755216D01*
X209941739Y-63759124D01*
X209936045Y-63763232D01*
X209930499Y-63767540D01*
X209925099Y-63772049D01*
X209919846Y-63776760D01*
X209914739Y-63781674D01*
X209909778Y-63786791D01*
X209904962Y-63792112D01*
X209900291Y-63797639D01*
X209895765Y-63803371D01*
X209891382Y-63809311D01*
X209887143Y-63815457D01*
X209879173Y-63828167D01*
X209871929Y-63841294D01*
X209865407Y-63854837D01*
X209859605Y-63868797D01*
X209854519Y-63883174D01*
X209850146Y-63897968D01*
X209846483Y-63913178D01*
X209843527Y-63928805D01*
X209841273Y-63944849D01*
X209839720Y-63961309D01*
X209838863Y-63978186D01*
X209838700Y-63995480D01*
X209839226Y-64013190D01*
X209840440Y-64031318D01*
X209842338Y-64049862D01*
X209844915Y-64068822D01*
X209847155Y-64081271D01*
X209849708Y-64093608D01*
X209852573Y-64105829D01*
X209855750Y-64117926D01*
X209859240Y-64129892D01*
X209863043Y-64141722D01*
X209867158Y-64153409D01*
X209871586Y-64164945D01*
X209876326Y-64176326D01*
X209881379Y-64187544D01*
X209886744Y-64198592D01*
X209892422Y-64209465D01*
X209898412Y-64220155D01*
X209904715Y-64230657D01*
X209911330Y-64240963D01*
X209918258Y-64251067D01*
X209925838Y-64260547D01*
X209933577Y-64269815D01*
X209941479Y-64278869D01*
X209949547Y-64287704D01*
X209957784Y-64296318D01*
X209966194Y-64304707D01*
X209974779Y-64312868D01*
X209983544Y-64320798D01*
X209992491Y-64328494D01*
X210001624Y-64335952D01*
X210010945Y-64343169D01*
X210020459Y-64350142D01*
X210030167Y-64356868D01*
X210040075Y-64363343D01*
X210050184Y-64369564D01*
X210060498Y-64375527D01*
X210070968Y-64380788D01*
X210081543Y-64385733D01*
X210092221Y-64390358D01*
X210103004Y-64394662D01*
X210113890Y-64398640D01*
X210124881Y-64402289D01*
X210135976Y-64405605D01*
X210147176Y-64408587D01*
X210158479Y-64411230D01*
X210169887Y-64413531D01*
X210181399Y-64415487D01*
X210193015Y-64417095D01*
X210204735Y-64418351D01*
X210216559Y-64419252D01*
X210228488Y-64419796D01*
X210240521Y-64419977D01*
X210257763Y-64419639D01*
X210274487Y-64418627D01*
X210290698Y-64416945D01*
X210306397Y-64414595D01*
X210321588Y-64411581D01*
X210336275Y-64407905D01*
X210350460Y-64403573D01*
X210364147Y-64398586D01*
X210377339Y-64392948D01*
X210390040Y-64386662D01*
X210402252Y-64379731D01*
X210413980Y-64372159D01*
X210425225Y-64363949D01*
X210435992Y-64355104D01*
X210446283Y-64345627D01*
X210456103Y-64335522D01*
X210464958Y-64324922D01*
X210473184Y-64313957D01*
X210480779Y-64302628D01*
X210487739Y-64290934D01*
X210494061Y-64278875D01*
X210499741Y-64266451D01*
X210504777Y-64253663D01*
X210509165Y-64240511D01*
X210512902Y-64226993D01*
X210515985Y-64213111D01*
X210518409Y-64198865D01*
X210520173Y-64184253D01*
X210521273Y-64169278D01*
X210521706Y-64153937D01*
X210521467Y-64138232D01*
X210520555Y-64122162D01*
X210756140Y-64122162D01*
X210757912Y-64139977D01*
X210759062Y-64157579D01*
X210759593Y-64174967D01*
X210759509Y-64192136D01*
X210758813Y-64209085D01*
X210757508Y-64225808D01*
X210755597Y-64242304D01*
X210753084Y-64258568D01*
X210749972Y-64274598D01*
X210746265Y-64290391D01*
X210741965Y-64305942D01*
X210737075Y-64321250D01*
X210731600Y-64336310D01*
X210725542Y-64351119D01*
X210718904Y-64365674D01*
X210711690Y-64379972D01*
X210703955Y-64393958D01*
X210695751Y-64407576D01*
X210687078Y-64420822D01*
X210677936Y-64433694D01*
X210668325Y-64446189D01*
X210658246Y-64458302D01*
X210647698Y-64470032D01*
X210636681Y-64481374D01*
X210625195Y-64492325D01*
X210613241Y-64502883D01*
X210600817Y-64513043D01*
X210587925Y-64522803D01*
X210574564Y-64532159D01*
X210560734Y-64541108D01*
X210546436Y-64549647D01*
X210531668Y-64557773D01*
X210516119Y-64565821D01*
X210500306Y-64573304D01*
X210484225Y-64580226D01*
X210467875Y-64586596D01*
X210451252Y-64592418D01*
X210434351Y-64597699D01*
X210417171Y-64602447D01*
X210399707Y-64606667D01*
X210381957Y-64610367D01*
X210363917Y-64613552D01*
X210345584Y-64616229D01*
X210326955Y-64618405D01*
X210308026Y-64620086D01*
X210288795Y-64621279D01*
X210269257Y-64621989D01*
X210249411Y-64622225D01*
X210228314Y-64621963D01*
X210207526Y-64621174D01*
X210187045Y-64619852D01*
X210166866Y-64617988D01*
X210146986Y-64615578D01*
X210127403Y-64612614D01*
X210108113Y-64609091D01*
X210089113Y-64605001D01*
X210070399Y-64600337D01*
X210051969Y-64595095D01*
X210033818Y-64589266D01*
X210015944Y-64582845D01*
X209998344Y-64575825D01*
X209981013Y-64568199D01*
X209963950Y-64559961D01*
X209947151Y-64551105D01*
X209930664Y-64542120D01*
X209914542Y-64532669D01*
X209898785Y-64522757D01*
X209883393Y-64512385D01*
X209868365Y-64501557D01*
X209853702Y-64490277D01*
X209839403Y-64478548D01*
X209825469Y-64466372D01*
X209811899Y-64453754D01*
X209798695Y-64440696D01*
X209785855Y-64427202D01*
X209773379Y-64413275D01*
X209761268Y-64398918D01*
X209749522Y-64384135D01*
X209738141Y-64368929D01*
X209727124Y-64353302D01*
X209716523Y-64337336D01*
X209706391Y-64321107D01*
X209696729Y-64304610D01*
X209687535Y-64287843D01*
X209678810Y-64270802D01*
X209670553Y-64253485D01*
X209662766Y-64235888D01*
X209655447Y-64218008D01*
X209648597Y-64199841D01*
X209642216Y-64181384D01*
X209636304Y-64162635D01*
X209630861Y-64143589D01*
X209625886Y-64124243D01*
X209621381Y-64104595D01*
X209617344Y-64084641D01*
X209613776Y-64064377D01*
X209610729Y-64044114D01*
X209608259Y-64024164D01*
X209606368Y-64004526D01*
X209605059Y-63985201D01*
X209604337Y-63966188D01*
X209604204Y-63947488D01*
X209604664Y-63929100D01*
X209605719Y-63911025D01*
X209607373Y-63893262D01*
X209609630Y-63875812D01*
X209612492Y-63858675D01*
X209615963Y-63841850D01*
X209620046Y-63825337D01*
X209624745Y-63809137D01*
X209630062Y-63793250D01*
X209636001Y-63777675D01*
X209642485Y-63762465D01*
X209649435Y-63747671D01*
X209656848Y-63733294D01*
X209664719Y-63719334D01*
X209673046Y-63705791D01*
X209681826Y-63692664D01*
X209691055Y-63679954D01*
X209700731Y-63667661D01*
X209710849Y-63655785D01*
X209721406Y-63644325D01*
X209732400Y-63633282D01*
X209743826Y-63622656D01*
X209755683Y-63612446D01*
X209767966Y-63602653D01*
X209780672Y-63593277D01*
X209793798Y-63584317D01*
X209807706Y-63575852D01*
X209821926Y-63567957D01*
X209836460Y-63560628D01*
X209851305Y-63553862D01*
X209866463Y-63547656D01*
X209881934Y-63542007D01*
X209897717Y-63536912D01*
X209913813Y-63532366D01*
X209930221Y-63528368D01*
X209946942Y-63524913D01*
X209963976Y-63521999D01*
X209981322Y-63519622D01*
X209998980Y-63517779D01*
X210016951Y-63516466D01*
X210035235Y-63515681D01*
X210053831Y-63515420D01*
X210067479Y-63515551D01*
X210080926Y-63515950D01*
X210094178Y-63516621D01*
X210107240Y-63517573D01*
X210120121Y-63518811D01*
X210132825Y-63520342D01*
X210145360Y-63522173D01*
X210157733Y-63524310D01*
X210169949Y-63526759D01*
X210182015Y-63529528D01*
X210193938Y-63532622D01*
X210205725Y-63536048D01*
X210217381Y-63539812D01*
X210228913Y-63543922D01*
X210240328Y-63548383D01*
X210251633Y-63553202D01*
X210262467Y-63557943D01*
X210273298Y-63562995D01*
X210284122Y-63568361D01*
X210294937Y-63574038D01*
X210305739Y-63580029D01*
X210316524Y-63586332D01*
X210327290Y-63592947D01*
X210338033Y-63599875D01*
X210348750Y-63607115D01*
X210359437Y-63614668D01*
X210370092Y-63622534D01*
X210380711Y-63630712D01*
X210391292Y-63639203D01*
X210401829Y-63648006D01*
X210412322Y-63657122D01*
X210422765Y-63666550D01*
X210424988Y-63666550D01*
X210311640Y-63188712D01*
X209560436Y-63188712D01*
X209524875Y-62982020D01*
X210493885Y-62982020D01*
X210700578Y-63913247D01*
G37*
G36*
X207777481Y-67812226D02*
G01*
X207790910Y-67812785D01*
X207804143Y-67813717D01*
X207817175Y-67815021D01*
X207830003Y-67816698D01*
X207842622Y-67818748D01*
X207855026Y-67821170D01*
X207867211Y-67823965D01*
X207879172Y-67827132D01*
X207890905Y-67830673D01*
X207902406Y-67834585D01*
X207913668Y-67838871D01*
X207924689Y-67843529D01*
X207935463Y-67848560D01*
X207945985Y-67853963D01*
X207956251Y-67859740D01*
X207966536Y-67865851D01*
X207976526Y-67872258D01*
X207986222Y-67878958D01*
X207995628Y-67885950D01*
X208004744Y-67893230D01*
X208013574Y-67900797D01*
X208022120Y-67908648D01*
X208030384Y-67916781D01*
X208038368Y-67925193D01*
X208046076Y-67933883D01*
X208053508Y-67942847D01*
X208060668Y-67952084D01*
X208067558Y-67961591D01*
X208074180Y-67971365D01*
X208080537Y-67981406D01*
X208086630Y-67991709D01*
X208092127Y-68002237D01*
X208097285Y-68012954D01*
X208102104Y-68023861D01*
X208106580Y-68034962D01*
X208110711Y-68046259D01*
X208114496Y-68057753D01*
X208117931Y-68069448D01*
X208121014Y-68081345D01*
X208123743Y-68093448D01*
X208126116Y-68105757D01*
X208128131Y-68118277D01*
X208129784Y-68131008D01*
X208131074Y-68143953D01*
X208131998Y-68157116D01*
X208132554Y-68170497D01*
X208132740Y-68184099D01*
X208032570Y-68184099D01*
X208032291Y-68168783D01*
X208031452Y-68153839D01*
X208030055Y-68139268D01*
X208028099Y-68125070D01*
X208025583Y-68111245D01*
X208022509Y-68097792D01*
X208018875Y-68084712D01*
X208014683Y-68072004D01*
X208009932Y-68059669D01*
X208004621Y-68047707D01*
X207998752Y-68036118D01*
X207992324Y-68024901D01*
X207985336Y-68014056D01*
X207977790Y-68003585D01*
X207969685Y-67993486D01*
X207961021Y-67983759D01*
X207951592Y-67974518D01*
X207941789Y-67965872D01*
X207931608Y-67957823D01*
X207921047Y-67950369D01*
X207910105Y-67943513D01*
X207898778Y-67937252D01*
X207887064Y-67931588D01*
X207874962Y-67926520D01*
X207862468Y-67922048D01*
X207849581Y-67918172D01*
X207836298Y-67914893D01*
X207822616Y-67912210D01*
X207808534Y-67910123D01*
X207794049Y-67908632D01*
X207779159Y-67907738D01*
X207763861Y-67907440D01*
X207749141Y-67907701D01*
X207734794Y-67908486D01*
X207720819Y-67909798D01*
X207707217Y-67911638D01*
X207693988Y-67914010D01*
X207681132Y-67916914D01*
X207668648Y-67920355D01*
X207656536Y-67924333D01*
X207644798Y-67928852D01*
X207633432Y-67933914D01*
X207622438Y-67939520D01*
X207611818Y-67945674D01*
X207601569Y-67952378D01*
X207591694Y-67959633D01*
X207582191Y-67967443D01*
X207573061Y-67975809D01*
X207564677Y-67984623D01*
X207556817Y-67993775D01*
X207549483Y-68003266D01*
X207542678Y-68013100D01*
X207536403Y-68023278D01*
X207530663Y-68033804D01*
X207525457Y-68044679D01*
X207520790Y-68055906D01*
X207516664Y-68067486D01*
X207513080Y-68079423D01*
X207510040Y-68091719D01*
X207507549Y-68104376D01*
X207505607Y-68117396D01*
X207504217Y-68130781D01*
X207503381Y-68144535D01*
X207503102Y-68158659D01*
X207503195Y-68166093D01*
X207503471Y-68173488D01*
X207503930Y-68180840D01*
X207504567Y-68188148D01*
X207505382Y-68195410D01*
X207506372Y-68202623D01*
X207507534Y-68209785D01*
X207508865Y-68216893D01*
X207510365Y-68223945D01*
X207512030Y-68230939D01*
X207513858Y-68237872D01*
X207515846Y-68244742D01*
X207517993Y-68251548D01*
X207520296Y-68258285D01*
X207522753Y-68264953D01*
X207525361Y-68271549D01*
X207531697Y-68284216D01*
X207538777Y-68297163D01*
X207546603Y-68310370D01*
X207555174Y-68323820D01*
X207564490Y-68337493D01*
X207574552Y-68351372D01*
X207585359Y-68365436D01*
X207596911Y-68379669D01*
X207623743Y-68408562D01*
X207654151Y-68440287D01*
X207688137Y-68474696D01*
X207725701Y-68511638D01*
X208135920Y-68896418D01*
X208135920Y-68987047D01*
X207391802Y-68987047D01*
X207391802Y-68891647D01*
X207991230Y-68891647D01*
X207991230Y-68890058D01*
X207655741Y-68573648D01*
X207634199Y-68553074D01*
X207613681Y-68533078D01*
X207594169Y-68513641D01*
X207575645Y-68494745D01*
X207558090Y-68476370D01*
X207541485Y-68458498D01*
X207525812Y-68441110D01*
X207511052Y-68424188D01*
X207497785Y-68407037D01*
X207485413Y-68390128D01*
X207473935Y-68373405D01*
X207463352Y-68356812D01*
X207458395Y-68348548D01*
X207453663Y-68340294D01*
X207449153Y-68332046D01*
X207444868Y-68323795D01*
X207440806Y-68315535D01*
X207436968Y-68307259D01*
X207433353Y-68298959D01*
X207429962Y-68290629D01*
X207426776Y-68282561D01*
X207423779Y-68274453D01*
X207420973Y-68266303D01*
X207418360Y-68258109D01*
X207415943Y-68249868D01*
X207413723Y-68241578D01*
X207411704Y-68233237D01*
X207409888Y-68224843D01*
X207408277Y-68216392D01*
X207406873Y-68207884D01*
X207405678Y-68199315D01*
X207404696Y-68190683D01*
X207403928Y-68181985D01*
X207403376Y-68173221D01*
X207403043Y-68164386D01*
X207402932Y-68155479D01*
X207403118Y-68143051D01*
X207403674Y-68130806D01*
X207404598Y-68118743D01*
X207405888Y-68106860D01*
X207407542Y-68095153D01*
X207409556Y-68083622D01*
X207411929Y-68072262D01*
X207414658Y-68061073D01*
X207417741Y-68050051D01*
X207421176Y-68039195D01*
X207424961Y-68028502D01*
X207429092Y-68017969D01*
X207433568Y-68007595D01*
X207438387Y-67997377D01*
X207443545Y-67987313D01*
X207449042Y-67977400D01*
X207454855Y-67967990D01*
X207460964Y-67958838D01*
X207467366Y-67949943D01*
X207474059Y-67941302D01*
X207481041Y-67932912D01*
X207488310Y-67924771D01*
X207495863Y-67916877D01*
X207503698Y-67909228D01*
X207511812Y-67901821D01*
X207520203Y-67894654D01*
X207528869Y-67887725D01*
X207537808Y-67881031D01*
X207547017Y-67874569D01*
X207556494Y-67868339D01*
X207566236Y-67862336D01*
X207576241Y-67856560D01*
X207586751Y-67851343D01*
X207597411Y-67846430D01*
X207608226Y-67841823D01*
X207619196Y-67837529D01*
X207630325Y-67833552D01*
X207641615Y-67829896D01*
X207653067Y-67826566D01*
X207664685Y-67823567D01*
X207676471Y-67820904D01*
X207688426Y-67818580D01*
X207700554Y-67816601D01*
X207712857Y-67814971D01*
X207725337Y-67813696D01*
X207737996Y-67812779D01*
X207750836Y-67812225D01*
X207763861Y-67812040D01*
X207777481Y-67812226D01*
G37*
G36*
X204600000Y-64600000D02*
G01*
X204039931Y-64600000D01*
X203994248Y-64599141D01*
X203949711Y-64596566D01*
X203906320Y-64592279D01*
X203864075Y-64586283D01*
X203822976Y-64578581D01*
X203783023Y-64569176D01*
X203744217Y-64558071D01*
X203706556Y-64545271D01*
X203670041Y-64530777D01*
X203634672Y-64514594D01*
X203600449Y-64496725D01*
X203567372Y-64477172D01*
X203535440Y-64455939D01*
X203504655Y-64433030D01*
X203475016Y-64408448D01*
X203446523Y-64382195D01*
X203419228Y-64354483D01*
X203393183Y-64325521D01*
X203368388Y-64295309D01*
X203344844Y-64263847D01*
X203322549Y-64231134D01*
X203301505Y-64197172D01*
X203281711Y-64161959D01*
X203263167Y-64125496D01*
X203245873Y-64087783D01*
X203229829Y-64048820D01*
X203215036Y-64008607D01*
X203201492Y-63967143D01*
X203189199Y-63924429D01*
X203178156Y-63880465D01*
X203168363Y-63835252D01*
X203159821Y-63788787D01*
X203155212Y-63757819D01*
X203151391Y-63727421D01*
X203148364Y-63697589D01*
X203146138Y-63668321D01*
X203144720Y-63639612D01*
X203144418Y-63625554D01*
X203386508Y-63625554D01*
X203387453Y-63656306D01*
X203389479Y-63688008D01*
X203392588Y-63720658D01*
X203396785Y-63754252D01*
X203402073Y-63788787D01*
X203408375Y-63823714D01*
X203415608Y-63857654D01*
X203423765Y-63890612D01*
X203432841Y-63922589D01*
X203442828Y-63953589D01*
X203453720Y-63983616D01*
X203465511Y-64012673D01*
X203478194Y-64040763D01*
X203491762Y-64067890D01*
X203506209Y-64094056D01*
X203521529Y-64119264D01*
X203537715Y-64143519D01*
X203554760Y-64166823D01*
X203572659Y-64189180D01*
X203591403Y-64210593D01*
X203610988Y-64231065D01*
X203631876Y-64250442D01*
X203653702Y-64268570D01*
X203676465Y-64285447D01*
X203700166Y-64301074D01*
X203724804Y-64315450D01*
X203750380Y-64328577D01*
X203776894Y-64340454D01*
X203804346Y-64351080D01*
X203832734Y-64360456D01*
X203862061Y-64368582D01*
X203892325Y-64375458D01*
X203923527Y-64381084D01*
X203955666Y-64385459D01*
X203988744Y-64388584D01*
X204022758Y-64390460D01*
X204057710Y-64391085D01*
X204324411Y-64391085D01*
X204126608Y-63193157D01*
X203808791Y-63193157D01*
X203775715Y-63193758D01*
X203743999Y-63195562D01*
X203713652Y-63198578D01*
X203684678Y-63202811D01*
X203670708Y-63205387D01*
X203657084Y-63208269D01*
X203643807Y-63211459D01*
X203630878Y-63214957D01*
X203618297Y-63218765D01*
X203606065Y-63222882D01*
X203594182Y-63227311D01*
X203582651Y-63232051D01*
X203571472Y-63237104D01*
X203560644Y-63242470D01*
X203550170Y-63248151D01*
X203540050Y-63254146D01*
X203530285Y-63260457D01*
X203520876Y-63267085D01*
X203511823Y-63274030D01*
X203503127Y-63281293D01*
X203494790Y-63288876D01*
X203486811Y-63296778D01*
X203479193Y-63305001D01*
X203471934Y-63313546D01*
X203465037Y-63322413D01*
X203458503Y-63331603D01*
X203452331Y-63341116D01*
X203446523Y-63350955D01*
X203435793Y-63371035D01*
X203426108Y-63392102D01*
X203417472Y-63414151D01*
X203409887Y-63437181D01*
X203403356Y-63461187D01*
X203397884Y-63486167D01*
X203393473Y-63512117D01*
X203390127Y-63539034D01*
X203387849Y-63566915D01*
X203386641Y-63595755D01*
X203386508Y-63625554D01*
X203144418Y-63625554D01*
X203144115Y-63611461D01*
X203144331Y-63583862D01*
X203145374Y-63556814D01*
X203147251Y-63530313D01*
X203149967Y-63504355D01*
X203153530Y-63478938D01*
X203157945Y-63454058D01*
X203163221Y-63429712D01*
X203169362Y-63405897D01*
X203176375Y-63382609D01*
X203184268Y-63359845D01*
X203192942Y-63337288D01*
X203202300Y-63315451D01*
X203212348Y-63294324D01*
X203223092Y-63273897D01*
X203234540Y-63254160D01*
X203246698Y-63235103D01*
X203259572Y-63216717D01*
X203273168Y-63198992D01*
X203287494Y-63181917D01*
X203302555Y-63165485D01*
X203318359Y-63149684D01*
X203334912Y-63134504D01*
X203352220Y-63119937D01*
X203370290Y-63105972D01*
X203389128Y-63092600D01*
X203408741Y-63079810D01*
X203428664Y-63068090D01*
X203449258Y-63057103D01*
X203470516Y-63046852D01*
X203492432Y-63037339D01*
X203514998Y-63028569D01*
X203538210Y-63020545D01*
X203562059Y-63013269D01*
X203586541Y-63006745D01*
X203611647Y-63000977D01*
X203637372Y-62995967D01*
X203663708Y-62991719D01*
X203690651Y-62988236D01*
X203718192Y-62985521D01*
X203746326Y-62983578D01*
X203775046Y-62982410D01*
X203804346Y-62982020D01*
X204331078Y-62982020D01*
X204600000Y-64600000D01*
G37*
%LPC*%
D11*
%TO.C,D4*%
X231560000Y-58900000D03*
D12*
X234100000Y-58900000D03*
%TD*%
D11*
%TO.C,D10*%
X201530000Y-36900000D03*
D12*
X204070000Y-36900000D03*
%TD*%
D11*
%TO.C,D3*%
X231630000Y-46600000D03*
D12*
X234170000Y-46600000D03*
%TD*%
D13*
%TO.C,R1*%
X207390000Y-56800000D03*
X215010000Y-56800000D03*
%TD*%
D11*
%TO.C,D5*%
X224330000Y-68800000D03*
D12*
X226870000Y-68800000D03*
%TD*%
D13*
%TO.C,RV1*%
X202400000Y-54410000D03*
X202400000Y-46790000D03*
%TD*%
D14*
%TO.C,H2*%
X214200000Y-65800000D03*
%TD*%
D11*
%TO.C,D9*%
X194160000Y-46500000D03*
D12*
X196700000Y-46500000D03*
%TD*%
D11*
%TO.C,D8*%
X194130000Y-58700000D03*
D12*
X196670000Y-58700000D03*
%TD*%
D13*
%TO.C,R2*%
X201210000Y-60960000D03*
X208830000Y-60960000D03*
%TD*%
D15*
%TO.C,C1*%
X217500000Y-39300000D03*
D13*
X219500000Y-39300000D03*
%TD*%
D14*
%TO.C,H1*%
X214200000Y-62200000D03*
%TD*%
D11*
%TO.C,D7*%
X201430000Y-68400000D03*
D12*
X203970000Y-68400000D03*
%TD*%
D16*
%TO.C,U2*%
X218680000Y-44740000D03*
D17*
X218680000Y-47280000D03*
X218680000Y-49820000D03*
X218680000Y-52360000D03*
X218680000Y-54900000D03*
X218680000Y-57440000D03*
X218680000Y-59980000D03*
X218680000Y-62520000D03*
X226300000Y-62520000D03*
X226300000Y-59980000D03*
X226300000Y-57440000D03*
X226300000Y-54900000D03*
X226300000Y-52360000D03*
X226300000Y-49820000D03*
X226300000Y-47280000D03*
X226300000Y-44740000D03*
%TD*%
D15*
%TO.C,C2*%
X208844888Y-39100000D03*
D13*
X210844888Y-39100000D03*
%TD*%
D15*
%TO.C,U1*%
X207280000Y-45060000D03*
D13*
X207280000Y-47600000D03*
X207280000Y-50140000D03*
X207280000Y-52680000D03*
X214900000Y-52680000D03*
X214900000Y-50140000D03*
X214900000Y-47600000D03*
X214900000Y-45060000D03*
%TD*%
D11*
%TO.C,D1*%
X212930000Y-33100000D03*
D12*
X215470000Y-33100000D03*
%TD*%
D11*
%TO.C,D2*%
X224260000Y-37000000D03*
D12*
X226800000Y-37000000D03*
%TD*%
D11*
%TO.C,D6*%
X212860000Y-72300000D03*
D12*
X215400000Y-72300000D03*
%TD*%
%LPD*%
M02*
