%TF.GenerationSoftware,KiCad,Pcbnew,9.0.6*%
%TF.CreationDate,2026-01-03T23:36:41-08:00*%
%TF.ProjectId,Chaser,43686173-6572-42e6-9b69-6361645f7063,rev?*%
%TF.SameCoordinates,Original*%
%TF.FileFunction,Copper,L1,Top*%
%TF.FilePolarity,Positive*%
%FSLAX46Y46*%
G04 Gerber Fmt 4.6, Leading zero omitted, Abs format (unit mm)*
G04 Created by KiCad (PCBNEW 9.0.6) date 2026-01-03 23:36:41*
%MOMM*%
%LPD*%
G01*
G04 APERTURE LIST*
G04 Aperture macros list*
%AMRoundRect*
0 Rectangle with rounded corners*
0 $1 Rounding radius*
0 $2 $3 $4 $5 $6 $7 $8 $9 X,Y pos of 4 corners*
0 Add a 4 corners polygon primitive as box body*
4,1,4,$2,$3,$4,$5,$6,$7,$8,$9,$2,$3,0*
0 Add four circle primitives for the rounded corners*
1,1,$1+$1,$2,$3*
1,1,$1+$1,$4,$5*
1,1,$1+$1,$6,$7*
1,1,$1+$1,$8,$9*
0 Add four rect primitives between the rounded corners*
20,1,$1+$1,$2,$3,$4,$5,0*
20,1,$1+$1,$4,$5,$6,$7,0*
20,1,$1+$1,$6,$7,$8,$9,0*
20,1,$1+$1,$8,$9,$2,$3,0*%
G04 Aperture macros list end*
%TA.AperFunction,ComponentPad*%
%ADD10R,1.800000X1.800000*%
%TD*%
%TA.AperFunction,ComponentPad*%
%ADD11C,1.800000*%
%TD*%
%TA.AperFunction,ComponentPad*%
%ADD12C,1.600000*%
%TD*%
%TA.AperFunction,ComponentPad*%
%ADD13C,1.440000*%
%TD*%
%TA.AperFunction,ComponentPad*%
%ADD14R,1.700000X1.700000*%
%TD*%
%TA.AperFunction,ComponentPad*%
%ADD15RoundRect,0.250000X-0.550000X-0.550000X0.550000X-0.550000X0.550000X0.550000X-0.550000X0.550000X0*%
%TD*%
%TA.AperFunction,ComponentPad*%
%ADD16R,1.295400X1.295400*%
%TD*%
%TA.AperFunction,ComponentPad*%
%ADD17C,1.295400*%
%TD*%
%TA.AperFunction,ViaPad*%
%ADD18C,0.600000*%
%TD*%
%TA.AperFunction,Conductor*%
%ADD19C,0.200000*%
%TD*%
G04 APERTURE END LIST*
D10*
%TO.P,D4,1,K*%
%TO.N,Net-(D1-K)*%
X231560000Y-58900000D03*
D11*
%TO.P,D4,2,A*%
%TO.N,Net-(D4-A)*%
X234100000Y-58900000D03*
%TD*%
D10*
%TO.P,D10,1,K*%
%TO.N,Net-(D1-K)*%
X201530000Y-36900000D03*
D11*
%TO.P,D10,2,A*%
%TO.N,Net-(D10-A)*%
X204070000Y-36900000D03*
%TD*%
D10*
%TO.P,D3,1,K*%
%TO.N,Net-(D1-K)*%
X231630000Y-46600000D03*
D11*
%TO.P,D3,2,A*%
%TO.N,Net-(D3-A)*%
X234170000Y-46600000D03*
%TD*%
D12*
%TO.P,R1,1*%
%TO.N,+5V*%
X207390000Y-56800000D03*
%TO.P,R1,2*%
%TO.N,Net-(U1-DIS)*%
X215010000Y-56800000D03*
%TD*%
D10*
%TO.P,D5,1,K*%
%TO.N,Net-(D1-K)*%
X224330000Y-68800000D03*
D11*
%TO.P,D5,2,A*%
%TO.N,Net-(D5-A)*%
X226870000Y-68800000D03*
%TD*%
D13*
%TO.P,RV1,1,1*%
%TO.N,Net-(U1-DIS)*%
X202200000Y-48200000D03*
%TO.P,RV1,2,2*%
X202200000Y-50740000D03*
%TO.P,RV1,3,3*%
%TO.N,TR*%
X202200000Y-53280000D03*
%TD*%
D14*
%TO.P,H2,1,1*%
%TO.N,GND*%
X214200000Y-65800000D03*
%TD*%
D10*
%TO.P,D9,1,K*%
%TO.N,Net-(D1-K)*%
X194160000Y-46500000D03*
D11*
%TO.P,D9,2,A*%
%TO.N,Net-(D9-A)*%
X196700000Y-46500000D03*
%TD*%
D10*
%TO.P,D8,1,K*%
%TO.N,Net-(D1-K)*%
X194130000Y-58700000D03*
D11*
%TO.P,D8,2,A*%
%TO.N,Net-(D8-A)*%
X196670000Y-58700000D03*
%TD*%
D12*
%TO.P,R2,1*%
%TO.N,Net-(D1-K)*%
X201210000Y-60960000D03*
%TO.P,R2,2*%
%TO.N,GND*%
X208830000Y-60960000D03*
%TD*%
D15*
%TO.P,C1,1*%
%TO.N,TR*%
X217500000Y-39300000D03*
D12*
%TO.P,C1,2*%
%TO.N,GND*%
X219500000Y-39300000D03*
%TD*%
D14*
%TO.P,H1,1,1*%
%TO.N,+5V*%
X214200000Y-62200000D03*
%TD*%
D10*
%TO.P,D7,1,K*%
%TO.N,Net-(D1-K)*%
X201430000Y-68400000D03*
D11*
%TO.P,D7,2,A*%
%TO.N,Net-(D7-A)*%
X203970000Y-68400000D03*
%TD*%
D16*
%TO.P,U2,1,Q5*%
%TO.N,Net-(D5-A)*%
X218680000Y-44740000D03*
D17*
%TO.P,U2,2,Q1*%
%TO.N,Net-(D9-A)*%
X218680000Y-47280000D03*
%TO.P,U2,3,Q0*%
%TO.N,Net-(D10-A)*%
X218680000Y-49820000D03*
%TO.P,U2,4,Q2*%
%TO.N,Net-(D8-A)*%
X218680000Y-52360000D03*
%TO.P,U2,5,Q6*%
%TO.N,Net-(D4-A)*%
X218680000Y-54900000D03*
%TO.P,U2,6,Q7*%
%TO.N,Net-(D3-A)*%
X218680000Y-57440000D03*
%TO.P,U2,7,Q3*%
%TO.N,Net-(D7-A)*%
X218680000Y-59980000D03*
%TO.P,U2,8,VSS*%
%TO.N,GND*%
X218680000Y-62520000D03*
%TO.P,U2,9,Q8*%
%TO.N,Net-(D2-A)*%
X226300000Y-62520000D03*
%TO.P,U2,10,Q4*%
%TO.N,Net-(D6-A)*%
X226300000Y-59980000D03*
%TO.P,U2,11,Q9*%
%TO.N,Net-(D1-A)*%
X226300000Y-57440000D03*
%TO.P,U2,12,Cout*%
%TO.N,unconnected-(U2-Cout-Pad12)*%
X226300000Y-54900000D03*
%TO.P,U2,13,CKEN*%
%TO.N,GND*%
X226300000Y-52360000D03*
%TO.P,U2,14,CLK*%
%TO.N,OUT*%
X226300000Y-49820000D03*
%TO.P,U2,15,Reset*%
%TO.N,GND*%
X226300000Y-47280000D03*
%TO.P,U2,16,VDD*%
%TO.N,+5V*%
X226300000Y-44740000D03*
%TD*%
D12*
%TO.P,C2,1*%
%TO.N,GND*%
X208200000Y-39300000D03*
%TO.P,C2,2*%
%TO.N,Net-(U1-CV)*%
X213200000Y-39300000D03*
%TD*%
D15*
%TO.P,U1,1,GND*%
%TO.N,GND*%
X207280000Y-45060000D03*
D12*
%TO.P,U1,2,TR*%
%TO.N,TR*%
X207280000Y-47600000D03*
%TO.P,U1,3,Q*%
%TO.N,OUT*%
X207280000Y-50140000D03*
%TO.P,U1,4,R*%
%TO.N,+5V*%
X207280000Y-52680000D03*
%TO.P,U1,5,CV*%
%TO.N,Net-(U1-CV)*%
X214900000Y-52680000D03*
%TO.P,U1,6,THR*%
%TO.N,TR*%
X214900000Y-50140000D03*
%TO.P,U1,7,DIS*%
%TO.N,Net-(U1-DIS)*%
X214900000Y-47600000D03*
%TO.P,U1,8,VCC*%
%TO.N,+5V*%
X214900000Y-45060000D03*
%TD*%
D10*
%TO.P,D1,1,K*%
%TO.N,Net-(D1-K)*%
X212930000Y-33100000D03*
D11*
%TO.P,D1,2,A*%
%TO.N,Net-(D1-A)*%
X215470000Y-33100000D03*
%TD*%
D10*
%TO.P,D2,1,K*%
%TO.N,Net-(D1-K)*%
X224260000Y-37000000D03*
D11*
%TO.P,D2,2,A*%
%TO.N,Net-(D2-A)*%
X226800000Y-37000000D03*
%TD*%
D10*
%TO.P,D6,1,K*%
%TO.N,Net-(D1-K)*%
X212860000Y-72300000D03*
D11*
%TO.P,D6,2,A*%
%TO.N,Net-(D6-A)*%
X215400000Y-72300000D03*
%TD*%
D18*
%TO.N,TR*%
X212304265Y-48504265D03*
X210100000Y-47600000D03*
%TO.N,Net-(U1-CV)*%
X210355735Y-48755735D03*
X211000000Y-50641000D03*
X212600000Y-45700000D03*
X211400000Y-44500000D03*
%TO.N,Net-(D3-A)*%
X230300000Y-51600000D03*
X223600000Y-58600000D03*
%TO.N,Net-(D4-A)*%
X223200000Y-59900000D03*
X220625735Y-59725735D03*
X229655735Y-59955735D03*
%TO.N,Net-(D5-A)*%
X228500000Y-46200000D03*
%TO.N,Net-(D10-A)*%
X216900000Y-44400000D03*
%TO.N,Net-(U1-DIS)*%
X213500000Y-47600000D03*
%TO.N,OUT*%
X208955735Y-50155735D03*
X224600000Y-50300000D03*
%TD*%
D19*
%TO.N,TR*%
X213560000Y-48800000D02*
X214900000Y-50140000D01*
X209200000Y-47600000D02*
X217500000Y-39300000D01*
X212600000Y-48800000D02*
X213560000Y-48800000D01*
X210100000Y-47600000D02*
X209200000Y-47600000D01*
X207280000Y-47600000D02*
X209200000Y-47600000D01*
X212304265Y-48504265D02*
X212600000Y-48800000D01*
%TO.N,GND*%
X223800000Y-57400000D02*
X223800000Y-54860000D01*
X223800000Y-54860000D02*
X223800000Y-49780000D01*
X208830000Y-60960000D02*
X213670000Y-65800000D01*
X205900000Y-58030000D02*
X208830000Y-60960000D01*
X223800000Y-54860000D02*
X226300000Y-52360000D01*
X215400000Y-65800000D02*
X218680000Y-62520000D01*
X214200000Y-65800000D02*
X215400000Y-65800000D01*
X213670000Y-65800000D02*
X214200000Y-65800000D01*
X218199000Y-37999000D02*
X219500000Y-39300000D01*
X208200000Y-44140000D02*
X207280000Y-45060000D01*
X209501000Y-37999000D02*
X218199000Y-37999000D01*
X205900000Y-46440000D02*
X205900000Y-58030000D01*
X207280000Y-45060000D02*
X205900000Y-46440000D01*
X208200000Y-39300000D02*
X208200000Y-44140000D01*
X208200000Y-39300000D02*
X209501000Y-37999000D01*
X218680000Y-62520000D02*
X223800000Y-57400000D01*
X223800000Y-49780000D02*
X226300000Y-47280000D01*
%TO.N,Net-(U1-CV)*%
X211400000Y-42500000D02*
X211400000Y-44500000D01*
X211000000Y-50641000D02*
X213039000Y-52680000D01*
X212600000Y-45700000D02*
X212600000Y-46511470D01*
X213200000Y-39300000D02*
X213200000Y-40700000D01*
X213039000Y-52680000D02*
X214900000Y-52680000D01*
X212600000Y-46511470D02*
X210355735Y-48755735D01*
X213200000Y-40700000D02*
X211400000Y-42500000D01*
%TO.N,Net-(D1-K)*%
X197100000Y-55730000D02*
X194130000Y-58700000D01*
X197100000Y-51800000D02*
X197100000Y-55730000D01*
X205563941Y-35863941D02*
X204700000Y-35000000D01*
X201430000Y-68400000D02*
X202830000Y-69800000D01*
X215730000Y-35900000D02*
X212930000Y-33100000D01*
X196960000Y-43700000D02*
X194160000Y-46500000D01*
X224260000Y-39230000D02*
X224260000Y-37000000D01*
X194160000Y-46500000D02*
X194160000Y-48860000D01*
X197100000Y-56850000D02*
X201210000Y-60960000D01*
X195331000Y-59901000D02*
X196766832Y-59901000D01*
X224260000Y-37000000D02*
X220700000Y-37000000D01*
X198400000Y-43700000D02*
X196960000Y-43700000D01*
X201530000Y-36900000D02*
X201530000Y-40570000D01*
X194160000Y-48860000D02*
X197100000Y-51800000D01*
X204700000Y-35000000D02*
X203000000Y-35000000D01*
X206500000Y-69800000D02*
X207100000Y-69200000D01*
X219600000Y-35900000D02*
X215730000Y-35900000D01*
X228100000Y-62360000D02*
X231560000Y-58900000D01*
X207100000Y-69200000D02*
X208800000Y-69200000D01*
X231630000Y-46600000D02*
X224260000Y-39230000D01*
X224330000Y-68800000D02*
X228100000Y-65030000D01*
X211900000Y-72300000D02*
X212860000Y-72300000D01*
X210166059Y-35863941D02*
X205563941Y-35863941D01*
X231560000Y-46670000D02*
X231630000Y-46600000D01*
X201430000Y-64564168D02*
X201430000Y-68400000D01*
X194130000Y-58700000D02*
X195331000Y-59901000D01*
X228100000Y-65030000D02*
X228100000Y-62360000D01*
X220700000Y-37000000D02*
X219600000Y-35900000D01*
X212860000Y-72300000D02*
X216360000Y-68800000D01*
X201530000Y-40570000D02*
X198400000Y-43700000D01*
X197100000Y-55730000D02*
X197100000Y-56850000D01*
X201530000Y-36470000D02*
X201530000Y-36900000D01*
X196766832Y-59901000D02*
X201430000Y-64564168D01*
X203000000Y-35000000D02*
X201530000Y-36470000D01*
X212930000Y-33100000D02*
X210166059Y-35863941D01*
X202830000Y-69800000D02*
X206500000Y-69800000D01*
X208800000Y-69200000D02*
X211900000Y-72300000D01*
X216360000Y-68800000D02*
X224330000Y-68800000D01*
X231560000Y-58900000D02*
X231560000Y-46670000D01*
%TO.N,Net-(D3-A)*%
X230300000Y-56000000D02*
X227700000Y-58600000D01*
X230300000Y-51600000D02*
X230300000Y-56000000D01*
X227700000Y-58600000D02*
X223600000Y-58600000D01*
%TO.N,Net-(D4-A)*%
X229655735Y-59955735D02*
X228700000Y-59000000D01*
X228700000Y-59000000D02*
X224100000Y-59000000D01*
X220625735Y-56845735D02*
X218680000Y-54900000D01*
X220625735Y-59725735D02*
X220625735Y-56845735D01*
X224100000Y-59000000D02*
X223200000Y-59900000D01*
%TO.N,Net-(D5-A)*%
X224000000Y-44700000D02*
X223960000Y-44740000D01*
X225500000Y-46200000D02*
X224000000Y-44700000D01*
X228500000Y-46200000D02*
X225500000Y-46200000D01*
X223960000Y-44740000D02*
X218680000Y-44740000D01*
%TO.N,Net-(D10-A)*%
X216900000Y-44400000D02*
X216900000Y-48040000D01*
X216900000Y-48040000D02*
X218680000Y-49820000D01*
%TO.N,+5V*%
X226300000Y-44740000D02*
X224960000Y-43400000D01*
X207390000Y-56800000D02*
X212790000Y-62200000D01*
X207280000Y-52680000D02*
X207280000Y-56690000D01*
X214900000Y-45060000D02*
X207280000Y-52680000D01*
X224960000Y-43400000D02*
X216560000Y-43400000D01*
X207280000Y-56690000D02*
X207390000Y-56800000D01*
X212790000Y-62200000D02*
X214200000Y-62200000D01*
X216560000Y-43400000D02*
X214900000Y-45060000D01*
%TO.N,Net-(U1-DIS)*%
X216300000Y-49000000D02*
X216300000Y-55510000D01*
X216300000Y-55510000D02*
X215010000Y-56800000D01*
X214900000Y-47600000D02*
X216300000Y-49000000D01*
X213500000Y-47600000D02*
X214900000Y-47600000D01*
%TO.N,OUT*%
X226300000Y-49820000D02*
X225080000Y-49820000D01*
X207295735Y-50155735D02*
X207280000Y-50140000D01*
X208955735Y-50155735D02*
X207295735Y-50155735D01*
X225080000Y-49820000D02*
X224600000Y-50300000D01*
%TD*%
M02*
