%TF.GenerationSoftware,KiCad,Pcbnew,9.0.6*%
%TF.CreationDate,2026-01-03T23:36:41-08:00*%
%TF.ProjectId,Chaser,43686173-6572-42e6-9b69-6361645f7063,rev?*%
%TF.SameCoordinates,Original*%
%TF.FileFunction,Profile,NP*%
%FSLAX46Y46*%
G04 Gerber Fmt 4.6, Leading zero omitted, Abs format (unit mm)*
G04 Created by KiCad (PCBNEW 9.0.6) date 2026-01-03 23:36:41*
%MOMM*%
%LPD*%
G01*
G04 APERTURE LIST*
%TA.AperFunction,Profile*%
%ADD10C,0.158749*%
%TD*%
G04 APERTURE END LIST*
D10*
X214405415Y-27450146D02*
X214706845Y-27473098D01*
X215003913Y-27510894D01*
X215296245Y-27563160D01*
X215583466Y-27629521D01*
X215865204Y-27709602D01*
X216141082Y-27803030D01*
X216410726Y-27909430D01*
X216673763Y-28028428D01*
X216929818Y-28159650D01*
X217178517Y-28302721D01*
X217419485Y-28457266D01*
X217652347Y-28622912D01*
X217876730Y-28799284D01*
X218092259Y-28986008D01*
X218298559Y-29182710D01*
X218495257Y-29389014D01*
X218681978Y-29604547D01*
X218858348Y-29828935D01*
X219023991Y-30061803D01*
X219178535Y-30302777D01*
X219321604Y-30551482D01*
X219452824Y-30807544D01*
X219571821Y-31070589D01*
X219678221Y-31340243D01*
X219771648Y-31616130D01*
X219851729Y-31897878D01*
X219918090Y-32185110D01*
X219970355Y-32477454D01*
X220008151Y-32774535D01*
X220031103Y-33075978D01*
X220038837Y-33381409D01*
X220034527Y-33607588D01*
X220021625Y-33833174D01*
X220000169Y-34057930D01*
X219970198Y-34281621D01*
X219931751Y-34504009D01*
X219884869Y-34724858D01*
X219829588Y-34943932D01*
X219765950Y-35160995D01*
X219748166Y-35216558D01*
X219824679Y-34995953D01*
X219909713Y-34778763D01*
X220003141Y-34565230D01*
X220104837Y-34355598D01*
X220214674Y-34150110D01*
X220332525Y-33949012D01*
X220458264Y-33752545D01*
X220591765Y-33560955D01*
X220777541Y-33318411D01*
X220973286Y-33088038D01*
X221178476Y-32869919D01*
X221392590Y-32664137D01*
X221615102Y-32470775D01*
X221845492Y-32289915D01*
X222083235Y-32121640D01*
X222327810Y-31966034D01*
X222578692Y-31823178D01*
X222835359Y-31693156D01*
X223097289Y-31576051D01*
X223363958Y-31471944D01*
X223634843Y-31380920D01*
X223909421Y-31303060D01*
X224187170Y-31238448D01*
X224467566Y-31187167D01*
X224750086Y-31149298D01*
X225034209Y-31124925D01*
X225319410Y-31114131D01*
X225605166Y-31116999D01*
X225890956Y-31133611D01*
X226176255Y-31164050D01*
X226460542Y-31208399D01*
X226743292Y-31266740D01*
X227023984Y-31339157D01*
X227302093Y-31425732D01*
X227577098Y-31526548D01*
X227848475Y-31641688D01*
X228115702Y-31771234D01*
X228378255Y-31915270D01*
X228635611Y-32073878D01*
X228887248Y-32247141D01*
X229129792Y-32432918D01*
X229360165Y-32628662D01*
X229578284Y-32833853D01*
X229784065Y-33047966D01*
X229977427Y-33270479D01*
X230158287Y-33500869D01*
X230326561Y-33738612D01*
X230482167Y-33983186D01*
X230625023Y-34234069D01*
X230755044Y-34490736D01*
X230872150Y-34752666D01*
X230976256Y-35019334D01*
X231067280Y-35290220D01*
X231145140Y-35564798D01*
X231209752Y-35842547D01*
X231261033Y-36122943D01*
X231298902Y-36405463D01*
X231323274Y-36689586D01*
X231334068Y-36974787D01*
X231331201Y-37260543D01*
X231314589Y-37546333D01*
X231284150Y-37831632D01*
X231239801Y-38115918D01*
X231181460Y-38398669D01*
X231109043Y-38679360D01*
X231022469Y-38957469D01*
X230921653Y-39232474D01*
X230806513Y-39503851D01*
X230676967Y-39771077D01*
X230532932Y-40033630D01*
X230374324Y-40290986D01*
X230201062Y-40542622D01*
X230131492Y-40636441D01*
X230060138Y-40728811D01*
X229987024Y-40819708D01*
X229912173Y-40909108D01*
X229835610Y-40996987D01*
X229757358Y-41083322D01*
X229677442Y-41168088D01*
X229595885Y-41251261D01*
X229512712Y-41332818D01*
X229427946Y-41412734D01*
X229341612Y-41490985D01*
X229253733Y-41567548D01*
X229164333Y-41642399D01*
X229073436Y-41715513D01*
X228981067Y-41786867D01*
X228887248Y-41856436D01*
X228982416Y-41788726D01*
X229078831Y-41722943D01*
X229176462Y-41659102D01*
X229275280Y-41597220D01*
X229375256Y-41537310D01*
X229476358Y-41479388D01*
X229578559Y-41423470D01*
X229681828Y-41369569D01*
X229786134Y-41317702D01*
X229891449Y-41267884D01*
X229997742Y-41220129D01*
X230104985Y-41174453D01*
X230213146Y-41130870D01*
X230322197Y-41089397D01*
X230432107Y-41050047D01*
X230542847Y-41012837D01*
X230835699Y-40925818D01*
X231129463Y-40854504D01*
X231423666Y-40798656D01*
X231717837Y-40758032D01*
X232011504Y-40732393D01*
X232304195Y-40721498D01*
X232595439Y-40725107D01*
X232884764Y-40742978D01*
X233171697Y-40774873D01*
X233455768Y-40820550D01*
X233736504Y-40879769D01*
X234013434Y-40952290D01*
X234286086Y-41037872D01*
X234553987Y-41136275D01*
X234816667Y-41247259D01*
X235073654Y-41370582D01*
X235324476Y-41506006D01*
X235568660Y-41653288D01*
X235805736Y-41812190D01*
X236035231Y-41982470D01*
X236256674Y-42163889D01*
X236469592Y-42356205D01*
X236673515Y-42559178D01*
X236867971Y-42772569D01*
X237052486Y-42996136D01*
X237226591Y-43229639D01*
X237389813Y-43472838D01*
X237541680Y-43725493D01*
X237681721Y-43987362D01*
X237809463Y-44258207D01*
X237924435Y-44537785D01*
X238026166Y-44825858D01*
X238113199Y-45118723D01*
X238184526Y-45412500D01*
X238240387Y-45706715D01*
X238281023Y-46000898D01*
X238306672Y-46294575D01*
X238317577Y-46587276D01*
X238313978Y-46878529D01*
X238296114Y-47167862D01*
X238264227Y-47454803D01*
X238218556Y-47738881D01*
X238159342Y-48019624D01*
X238086825Y-48296559D01*
X238001246Y-48569216D01*
X237902846Y-48837123D01*
X237791864Y-49099807D01*
X237668541Y-49356798D01*
X237533117Y-49607623D01*
X237385833Y-49851810D01*
X237226929Y-50088888D01*
X237056646Y-50318386D01*
X236875223Y-50539831D01*
X236682902Y-50752751D01*
X236479922Y-50956676D01*
X236266525Y-51151132D01*
X236042950Y-51335649D01*
X235809438Y-51509755D01*
X235566229Y-51672977D01*
X235313563Y-51824845D01*
X235051682Y-51964886D01*
X234780825Y-52092629D01*
X234501232Y-52207601D01*
X234213145Y-52309332D01*
X233996745Y-52375122D01*
X233778236Y-52432566D01*
X233557859Y-52481623D01*
X233335856Y-52522254D01*
X233112468Y-52554416D01*
X232887939Y-52578068D01*
X232662508Y-52593171D01*
X232436418Y-52599683D01*
X232377998Y-52599998D01*
X232611487Y-52604590D01*
X232844338Y-52618337D01*
X233076284Y-52641196D01*
X233307061Y-52673124D01*
X233536402Y-52714079D01*
X233764040Y-52764016D01*
X233989710Y-52822894D01*
X234213145Y-52890669D01*
X234501232Y-52992400D01*
X234780825Y-53107372D01*
X235051682Y-53235115D01*
X235313563Y-53375155D01*
X235566229Y-53527023D01*
X235809438Y-53690245D01*
X236042950Y-53864351D01*
X236266525Y-54048868D01*
X236479922Y-54243324D01*
X236682902Y-54447248D01*
X236875223Y-54660169D01*
X237056646Y-54881614D01*
X237226929Y-55111111D01*
X237385833Y-55348190D01*
X237533117Y-55592377D01*
X237668541Y-55843203D01*
X237791864Y-56100193D01*
X237902846Y-56362878D01*
X238001246Y-56630785D01*
X238086825Y-56903442D01*
X238159342Y-57180378D01*
X238218556Y-57461121D01*
X238264227Y-57745199D01*
X238296114Y-58032141D01*
X238313978Y-58321474D01*
X238317577Y-58612727D01*
X238306672Y-58905429D01*
X238281023Y-59199107D01*
X238240387Y-59493289D01*
X238184526Y-59787505D01*
X238113199Y-60081282D01*
X238026166Y-60374149D01*
X237924435Y-60662220D01*
X237809463Y-60941798D01*
X237681721Y-61212642D01*
X237541680Y-61474511D01*
X237389813Y-61727165D01*
X237226591Y-61970364D01*
X237052486Y-62203866D01*
X236867971Y-62427433D01*
X236673515Y-62640823D01*
X236469592Y-62843796D01*
X236256674Y-63036112D01*
X236035231Y-63217530D01*
X235805736Y-63387810D01*
X235568660Y-63546712D01*
X235324476Y-63693994D01*
X235073654Y-63829417D01*
X234816667Y-63952741D01*
X234553987Y-64063724D01*
X234286086Y-64162127D01*
X234013434Y-64247709D01*
X233736504Y-64320230D01*
X233455768Y-64379449D01*
X233171697Y-64425125D01*
X232884764Y-64457020D01*
X232595439Y-64474892D01*
X232304195Y-64478500D01*
X232011504Y-64467605D01*
X231717837Y-64441965D01*
X231423666Y-64401341D01*
X231129463Y-64345493D01*
X230835699Y-64274179D01*
X230542847Y-64187160D01*
X230329054Y-64113129D01*
X230118473Y-64031124D01*
X229911322Y-63941254D01*
X229707822Y-63843627D01*
X229508191Y-63738350D01*
X229312649Y-63625530D01*
X229121415Y-63505276D01*
X228934709Y-63377696D01*
X228887248Y-63343565D01*
X228981067Y-63413135D01*
X229073436Y-63484489D01*
X229164333Y-63557603D01*
X229253733Y-63632454D01*
X229341612Y-63709017D01*
X229427946Y-63787268D01*
X229512712Y-63867184D01*
X229595885Y-63948740D01*
X229677442Y-64031913D01*
X229757358Y-64116679D01*
X229835610Y-64203014D01*
X229912173Y-64290893D01*
X229987024Y-64380293D01*
X230060138Y-64471190D01*
X230131492Y-64563560D01*
X230201062Y-64657379D01*
X230374324Y-64909016D01*
X230532932Y-65166372D01*
X230676967Y-65428925D01*
X230806513Y-65696151D01*
X230921653Y-65967528D01*
X231022469Y-66242532D01*
X231109043Y-66520642D01*
X231181460Y-66801333D01*
X231239801Y-67084084D01*
X231284150Y-67368370D01*
X231314589Y-67653669D01*
X231331201Y-67939459D01*
X231334068Y-68225216D01*
X231323274Y-68510417D01*
X231298902Y-68794539D01*
X231261033Y-69077060D01*
X231209752Y-69357456D01*
X231145140Y-69635205D01*
X231067280Y-69909783D01*
X230976256Y-70180668D01*
X230872150Y-70447337D01*
X230755044Y-70709267D01*
X230625023Y-70965934D01*
X230482167Y-71216817D01*
X230326561Y-71461391D01*
X230158287Y-71699135D01*
X229977427Y-71929525D01*
X229784065Y-72152038D01*
X229578284Y-72366151D01*
X229360165Y-72571341D01*
X229129792Y-72767086D01*
X228887248Y-72952862D01*
X228635611Y-73126125D01*
X228378255Y-73284732D01*
X228115702Y-73428768D01*
X227848475Y-73558314D01*
X227577098Y-73673453D01*
X227302093Y-73774269D01*
X227023984Y-73860844D01*
X226743292Y-73933260D01*
X226460542Y-73991602D01*
X226176255Y-74035950D01*
X225890956Y-74066389D01*
X225605166Y-74083001D01*
X225319410Y-74085868D01*
X225034209Y-74075074D01*
X224750086Y-74050702D01*
X224467566Y-74012833D01*
X224187170Y-73961551D01*
X223909421Y-73896939D01*
X223634843Y-73819080D01*
X223363958Y-73728055D01*
X223097289Y-73623949D01*
X222835359Y-73506844D01*
X222578692Y-73376822D01*
X222327810Y-73233966D01*
X222083235Y-73078359D01*
X221845492Y-72910085D01*
X221615102Y-72729225D01*
X221392590Y-72535863D01*
X221178476Y-72330081D01*
X220973286Y-72111962D01*
X220777541Y-71881589D01*
X220591765Y-71639044D01*
X220526137Y-71546861D01*
X220462318Y-71453508D01*
X220400320Y-71359010D01*
X220340157Y-71263396D01*
X220281846Y-71166693D01*
X220225398Y-71068927D01*
X220170829Y-70970127D01*
X220118153Y-70870319D01*
X220067383Y-70769531D01*
X220018535Y-70667790D01*
X219971622Y-70565122D01*
X219926658Y-70461556D01*
X219883658Y-70357118D01*
X219842636Y-70251837D01*
X219803606Y-70145738D01*
X219766582Y-70038849D01*
X219748166Y-69983446D01*
X219815942Y-70206886D01*
X219874821Y-70432571D01*
X219924758Y-70660228D01*
X219965712Y-70889587D01*
X219997640Y-71120374D01*
X220020498Y-71352319D01*
X220034245Y-71585149D01*
X220038837Y-71818593D01*
X220031103Y-72124024D01*
X220008151Y-72425466D01*
X219970355Y-72722547D01*
X219918090Y-73014890D01*
X219851729Y-73302123D01*
X219771648Y-73583870D01*
X219678221Y-73859757D01*
X219571821Y-74129411D01*
X219452824Y-74392456D01*
X219321604Y-74648518D01*
X219178535Y-74897223D01*
X219023991Y-75138197D01*
X218858348Y-75371064D01*
X218681978Y-75595452D01*
X218495257Y-75810985D01*
X218298559Y-76017290D01*
X218092259Y-76213991D01*
X217876730Y-76400715D01*
X217652347Y-76577087D01*
X217419485Y-76742733D01*
X217178517Y-76897279D01*
X216929818Y-77040349D01*
X216673763Y-77171571D01*
X216410726Y-77290569D01*
X216141082Y-77396969D01*
X215865204Y-77490397D01*
X215583466Y-77570479D01*
X215296245Y-77636839D01*
X215003913Y-77689105D01*
X214706845Y-77726901D01*
X214405415Y-77749853D01*
X214099998Y-77757587D01*
X213794582Y-77749853D01*
X213493152Y-77726901D01*
X213196084Y-77689105D01*
X212903752Y-77636839D01*
X212616531Y-77570479D01*
X212334794Y-77490397D01*
X212058916Y-77396969D01*
X211789271Y-77290569D01*
X211526234Y-77171571D01*
X211270179Y-77040349D01*
X211021481Y-76897279D01*
X210780514Y-76742733D01*
X210547652Y-76577087D01*
X210323269Y-76400715D01*
X210107740Y-76213991D01*
X209901440Y-76017290D01*
X209704742Y-75810985D01*
X209518021Y-75595452D01*
X209341652Y-75371064D01*
X209176009Y-75138197D01*
X209021465Y-74897223D01*
X208878396Y-74648518D01*
X208747176Y-74392456D01*
X208628179Y-74129411D01*
X208521780Y-73859757D01*
X208428353Y-73583870D01*
X208348272Y-73302123D01*
X208281912Y-73014890D01*
X208229646Y-72722547D01*
X208191851Y-72425466D01*
X208168899Y-72124024D01*
X208161165Y-71818593D01*
X208165474Y-71592414D01*
X208178377Y-71366828D01*
X208199833Y-71142072D01*
X208229804Y-70918382D01*
X208268250Y-70695994D01*
X208315133Y-70475145D01*
X208370413Y-70256069D01*
X208434051Y-70039004D01*
X208451831Y-69983446D01*
X208375319Y-70204048D01*
X208290286Y-70421238D01*
X208196859Y-70634771D01*
X208095164Y-70844403D01*
X207985328Y-71049890D01*
X207867477Y-71250989D01*
X207741737Y-71447455D01*
X207608237Y-71639044D01*
X207422460Y-71881589D01*
X207226715Y-72111962D01*
X207021525Y-72330081D01*
X206807412Y-72535863D01*
X206584899Y-72729225D01*
X206354509Y-72910085D01*
X206116766Y-73078359D01*
X205872191Y-73233966D01*
X205621309Y-73376822D01*
X205364642Y-73506844D01*
X205102712Y-73623949D01*
X204836043Y-73728055D01*
X204565159Y-73819080D01*
X204290580Y-73896939D01*
X204012832Y-73961551D01*
X203732435Y-74012833D01*
X203449915Y-74050702D01*
X203165793Y-74075074D01*
X202880592Y-74085868D01*
X202594835Y-74083001D01*
X202309046Y-74066389D01*
X202023747Y-74035950D01*
X201739460Y-73991602D01*
X201456710Y-73933260D01*
X201176019Y-73860844D01*
X200897910Y-73774269D01*
X200622905Y-73673453D01*
X200351529Y-73558314D01*
X200084303Y-73428768D01*
X199821750Y-73284732D01*
X199564394Y-73126125D01*
X199312758Y-72952862D01*
X199070213Y-72767086D01*
X198839840Y-72571341D01*
X198621721Y-72366151D01*
X198415938Y-72152038D01*
X198222576Y-71929525D01*
X198041716Y-71699135D01*
X197873441Y-71461391D01*
X197717835Y-71216817D01*
X197574979Y-70965934D01*
X197444957Y-70709267D01*
X197327851Y-70447337D01*
X197223745Y-70180668D01*
X197132721Y-69909783D01*
X197054861Y-69635205D01*
X196990249Y-69357456D01*
X196938967Y-69077060D01*
X196901099Y-68794539D01*
X196876726Y-68510417D01*
X196865932Y-68225216D01*
X196868800Y-67939459D01*
X196885412Y-67653669D01*
X196915851Y-67368370D01*
X196960200Y-67084084D01*
X197018541Y-66801333D01*
X197090958Y-66520642D01*
X197177533Y-66242532D01*
X197278349Y-65967528D01*
X197393489Y-65696151D01*
X197523035Y-65428925D01*
X197667071Y-65166372D01*
X197825679Y-64909016D01*
X197998942Y-64657379D01*
X198066313Y-64566492D01*
X198135358Y-64476961D01*
X198206058Y-64388810D01*
X198278389Y-64302060D01*
X198352330Y-64216731D01*
X198427859Y-64132847D01*
X198504956Y-64050428D01*
X198583598Y-63969496D01*
X198663763Y-63890073D01*
X198745431Y-63812180D01*
X198828578Y-63735839D01*
X198913185Y-63661072D01*
X198999229Y-63587900D01*
X199086688Y-63516345D01*
X199175541Y-63446429D01*
X199265766Y-63378172D01*
X199312758Y-63343565D01*
X199217589Y-63411276D01*
X199121173Y-63477060D01*
X199023541Y-63540900D01*
X198924722Y-63602783D01*
X198824746Y-63662692D01*
X198723642Y-63720614D01*
X198621441Y-63776532D01*
X198518173Y-63830432D01*
X198413866Y-63882299D01*
X198308550Y-63932117D01*
X198202257Y-63979872D01*
X198095014Y-64025547D01*
X197986853Y-64069129D01*
X197877802Y-64110602D01*
X197767892Y-64149950D01*
X197657152Y-64187160D01*
X197364301Y-64274179D01*
X197070537Y-64345493D01*
X196776335Y-64401341D01*
X196482164Y-64441965D01*
X196188497Y-64467605D01*
X195895806Y-64478500D01*
X195604562Y-64474892D01*
X195315238Y-64457020D01*
X195028305Y-64425125D01*
X194744234Y-64379449D01*
X194463498Y-64320230D01*
X194186569Y-64247709D01*
X193913917Y-64162127D01*
X193646015Y-64063724D01*
X193383335Y-63952741D01*
X193126349Y-63829417D01*
X192875527Y-63693994D01*
X192631343Y-63546712D01*
X192394267Y-63387810D01*
X192164772Y-63217530D01*
X191943329Y-63036112D01*
X191730410Y-62843796D01*
X191526487Y-62640823D01*
X191332032Y-62427433D01*
X191147516Y-62203866D01*
X190973411Y-61970364D01*
X190810189Y-61727165D01*
X190658322Y-61474511D01*
X190518281Y-61212642D01*
X190390539Y-60941798D01*
X190275566Y-60662220D01*
X190173836Y-60374149D01*
X190086802Y-60081282D01*
X190015475Y-59787505D01*
X189959614Y-59493289D01*
X189918978Y-59199107D01*
X189893328Y-58905429D01*
X189882423Y-58612727D01*
X189886023Y-58321474D01*
X189903887Y-58032141D01*
X189935774Y-57745199D01*
X189981445Y-57461121D01*
X190040659Y-57180378D01*
X190113176Y-56903442D01*
X190198754Y-56630785D01*
X190297155Y-56362878D01*
X190408137Y-56100193D01*
X190531460Y-55843203D01*
X190666884Y-55592377D01*
X190814168Y-55348190D01*
X190973072Y-55111111D01*
X191143355Y-54881614D01*
X191324778Y-54660169D01*
X191517099Y-54447248D01*
X191720078Y-54243324D01*
X191933475Y-54048868D01*
X192157050Y-53864351D01*
X192390562Y-53690245D01*
X192633771Y-53527023D01*
X192886436Y-53375155D01*
X193148317Y-53235115D01*
X193419173Y-53107372D01*
X193698765Y-52992400D01*
X193986851Y-52890669D01*
X194203253Y-52824880D01*
X194421763Y-52767436D01*
X194642141Y-52718378D01*
X194864145Y-52677748D01*
X195087533Y-52645586D01*
X195312062Y-52621933D01*
X195537492Y-52606830D01*
X195763581Y-52600319D01*
X195822003Y-52599998D01*
X195588513Y-52595407D01*
X195355662Y-52581660D01*
X195123714Y-52558802D01*
X194892937Y-52526875D01*
X194663596Y-52485921D01*
X194435958Y-52435984D01*
X194210287Y-52377107D01*
X193986851Y-52309332D01*
X193698765Y-52207601D01*
X193419173Y-52092629D01*
X193148317Y-51964886D01*
X192886436Y-51824845D01*
X192633771Y-51672977D01*
X192390562Y-51509755D01*
X192157050Y-51335649D01*
X191933475Y-51151132D01*
X191720078Y-50956676D01*
X191517099Y-50752751D01*
X191324778Y-50539831D01*
X191143355Y-50318386D01*
X190973072Y-50088888D01*
X190814168Y-49851810D01*
X190666884Y-49607623D01*
X190531460Y-49356798D01*
X190408137Y-49099807D01*
X190297155Y-48837123D01*
X190198754Y-48569216D01*
X190113176Y-48296559D01*
X190040659Y-48019624D01*
X189981445Y-47738881D01*
X189935774Y-47454803D01*
X189903887Y-47167862D01*
X189886023Y-46878529D01*
X189882423Y-46587276D01*
X189893328Y-46294575D01*
X189918978Y-46000898D01*
X189959614Y-45706715D01*
X190015475Y-45412500D01*
X190086802Y-45118723D01*
X190173836Y-44825858D01*
X190275566Y-44537785D01*
X190390539Y-44258207D01*
X190518281Y-43987362D01*
X190658322Y-43725493D01*
X190810189Y-43472838D01*
X190973411Y-43229639D01*
X191147516Y-42996136D01*
X191332032Y-42772569D01*
X191526487Y-42559178D01*
X191730410Y-42356205D01*
X191943329Y-42163889D01*
X192164772Y-41982470D01*
X192394267Y-41812190D01*
X192631343Y-41653288D01*
X192875527Y-41506006D01*
X193126349Y-41370582D01*
X193383335Y-41247259D01*
X193646015Y-41136275D01*
X193913917Y-41037872D01*
X194186569Y-40952290D01*
X194463498Y-40879769D01*
X194744234Y-40820550D01*
X195028305Y-40774873D01*
X195315238Y-40742978D01*
X195604562Y-40725107D01*
X195895806Y-40721498D01*
X196188497Y-40732393D01*
X196482164Y-40758032D01*
X196776335Y-40798656D01*
X197070537Y-40854504D01*
X197364301Y-40925818D01*
X197657152Y-41012837D01*
X197870945Y-41086869D01*
X198081526Y-41168875D01*
X198288676Y-41258745D01*
X198492177Y-41356374D01*
X198691808Y-41461651D01*
X198887350Y-41574471D01*
X199078584Y-41694724D01*
X199265290Y-41822303D01*
X199312758Y-41856436D01*
X199218938Y-41786867D01*
X199126568Y-41715513D01*
X199035670Y-41642399D01*
X198946270Y-41567548D01*
X198858390Y-41490985D01*
X198772055Y-41412734D01*
X198687289Y-41332818D01*
X198604116Y-41251261D01*
X198522560Y-41168088D01*
X198442644Y-41083322D01*
X198364392Y-40996987D01*
X198287829Y-40909108D01*
X198212979Y-40819708D01*
X198139865Y-40728811D01*
X198068511Y-40636441D01*
X197998942Y-40542622D01*
X197825679Y-40290986D01*
X197667071Y-40033630D01*
X197523035Y-39771077D01*
X197393489Y-39503851D01*
X197278349Y-39232474D01*
X197177533Y-38957469D01*
X197090958Y-38679360D01*
X197018541Y-38398669D01*
X196960200Y-38115918D01*
X196915851Y-37831632D01*
X196885412Y-37546333D01*
X196868800Y-37260543D01*
X196865932Y-36974787D01*
X196876726Y-36689586D01*
X196901099Y-36405463D01*
X196938967Y-36122943D01*
X196990249Y-35842547D01*
X197054861Y-35564798D01*
X197132721Y-35290220D01*
X197223745Y-35019334D01*
X197327851Y-34752666D01*
X197444957Y-34490736D01*
X197574979Y-34234069D01*
X197717835Y-33983186D01*
X197873441Y-33738612D01*
X198041716Y-33500869D01*
X198222576Y-33270479D01*
X198415938Y-33047966D01*
X198621721Y-32833853D01*
X198839840Y-32628662D01*
X199070213Y-32432918D01*
X199312758Y-32247141D01*
X199564394Y-32073878D01*
X199821750Y-31915270D01*
X200084303Y-31771234D01*
X200351529Y-31641688D01*
X200622905Y-31526548D01*
X200897910Y-31425732D01*
X201176019Y-31339157D01*
X201456710Y-31266740D01*
X201739460Y-31208399D01*
X202023747Y-31164050D01*
X202309046Y-31133611D01*
X202594835Y-31116999D01*
X202880592Y-31114131D01*
X203165793Y-31124925D01*
X203449915Y-31149298D01*
X203732435Y-31187167D01*
X204012832Y-31238448D01*
X204290580Y-31303060D01*
X204565159Y-31380920D01*
X204836043Y-31471944D01*
X205102712Y-31576051D01*
X205364642Y-31693156D01*
X205621309Y-31823178D01*
X205872191Y-31966034D01*
X206116766Y-32121640D01*
X206354509Y-32289915D01*
X206584899Y-32470775D01*
X206807412Y-32664137D01*
X207021525Y-32869919D01*
X207226715Y-33088038D01*
X207422460Y-33318411D01*
X207608237Y-33560955D01*
X207673864Y-33653138D01*
X207737684Y-33746492D01*
X207799682Y-33840990D01*
X207859844Y-33936604D01*
X207918156Y-34033307D01*
X207974603Y-34131073D01*
X208029172Y-34229873D01*
X208081849Y-34329681D01*
X208132618Y-34430470D01*
X208181466Y-34532211D01*
X208228380Y-34634879D01*
X208273343Y-34738445D01*
X208316343Y-34842883D01*
X208357365Y-34948166D01*
X208396396Y-35054265D01*
X208433420Y-35161155D01*
X208451831Y-35216558D01*
X208384056Y-34993115D01*
X208325179Y-34767430D01*
X208275242Y-34539772D01*
X208234289Y-34310413D01*
X208202361Y-34079626D01*
X208179503Y-33847682D01*
X208165756Y-33614852D01*
X208161165Y-33381409D01*
X208168899Y-33075978D01*
X208191851Y-32774535D01*
X208229646Y-32477454D01*
X208281912Y-32185110D01*
X208348272Y-31897878D01*
X208428353Y-31616130D01*
X208521780Y-31340243D01*
X208628179Y-31070589D01*
X208747176Y-30807544D01*
X208878396Y-30551482D01*
X209021465Y-30302777D01*
X209176009Y-30061803D01*
X209341652Y-29828935D01*
X209518021Y-29604547D01*
X209704742Y-29389014D01*
X209901440Y-29182710D01*
X210107740Y-28986008D01*
X210323269Y-28799284D01*
X210547652Y-28622912D01*
X210780514Y-28457266D01*
X211021481Y-28302721D01*
X211270179Y-28159650D01*
X211526234Y-28028428D01*
X211789271Y-27909430D01*
X212058916Y-27803030D01*
X212334794Y-27709602D01*
X212616531Y-27629521D01*
X212903752Y-27563160D01*
X213196084Y-27510894D01*
X213493152Y-27473098D01*
X213794582Y-27450146D01*
X214099998Y-27442413D01*
X214405415Y-27450146D01*
M02*
