%TF.GenerationSoftware,KiCad,Pcbnew,9.0.6*%
%TF.CreationDate,2026-01-03T20:02:15-08:00*%
%TF.ProjectId,Chaser,43686173-6572-42e6-9b69-6361645f7063,rev?*%
%TF.SameCoordinates,Original*%
%TF.FileFunction,Soldermask,Top*%
%TF.FilePolarity,Negative*%
%FSLAX46Y46*%
G04 Gerber Fmt 4.6, Leading zero omitted, Abs format (unit mm)*
G04 Created by KiCad (PCBNEW 9.0.6) date 2026-01-03 20:02:15*
%MOMM*%
%LPD*%
G01*
G04 APERTURE LIST*
G04 Aperture macros list*
%AMRoundRect*
0 Rectangle with rounded corners*
0 $1 Rounding radius*
0 $2 $3 $4 $5 $6 $7 $8 $9 X,Y pos of 4 corners*
0 Add a 4 corners polygon primitive as box body*
4,1,4,$2,$3,$4,$5,$6,$7,$8,$9,$2,$3,0*
0 Add four circle primitives for the rounded corners*
1,1,$1+$1,$2,$3*
1,1,$1+$1,$4,$5*
1,1,$1+$1,$6,$7*
1,1,$1+$1,$8,$9*
0 Add four rect primitives between the rounded corners*
20,1,$1+$1,$2,$3,$4,$5,0*
20,1,$1+$1,$4,$5,$6,$7,0*
20,1,$1+$1,$6,$7,$8,$9,0*
20,1,$1+$1,$8,$9,$2,$3,0*%
G04 Aperture macros list end*
%ADD10R,1.800000X1.800000*%
%ADD11C,1.800000*%
%ADD12C,1.600000*%
%ADD13R,1.700000X1.700000*%
%ADD14RoundRect,0.250000X-0.550000X-0.550000X0.550000X-0.550000X0.550000X0.550000X-0.550000X0.550000X0*%
%ADD15R,1.295400X1.295400*%
%ADD16C,1.295400*%
G04 APERTURE END LIST*
D10*
%TO.C,D4*%
X231560000Y-58900000D03*
D11*
X234100000Y-58900000D03*
%TD*%
D10*
%TO.C,D10*%
X201530000Y-36900000D03*
D11*
X204070000Y-36900000D03*
%TD*%
D10*
%TO.C,D3*%
X231630000Y-46600000D03*
D11*
X234170000Y-46600000D03*
%TD*%
D12*
%TO.C,R1*%
X207390000Y-56800000D03*
X215010000Y-56800000D03*
%TD*%
D10*
%TO.C,D5*%
X224330000Y-68800000D03*
D11*
X226870000Y-68800000D03*
%TD*%
D12*
%TO.C,RV1*%
X202400000Y-54410000D03*
X202400000Y-46790000D03*
%TD*%
D13*
%TO.C,H2*%
X214200000Y-65800000D03*
%TD*%
D10*
%TO.C,D9*%
X194160000Y-46500000D03*
D11*
X196700000Y-46500000D03*
%TD*%
D10*
%TO.C,D8*%
X194130000Y-58700000D03*
D11*
X196670000Y-58700000D03*
%TD*%
D12*
%TO.C,R2*%
X201210000Y-60960000D03*
X208830000Y-60960000D03*
%TD*%
D14*
%TO.C,C1*%
X217500000Y-39300000D03*
D12*
X219500000Y-39300000D03*
%TD*%
D13*
%TO.C,H1*%
X214200000Y-62200000D03*
%TD*%
D10*
%TO.C,D7*%
X201430000Y-68400000D03*
D11*
X203970000Y-68400000D03*
%TD*%
D15*
%TO.C,U2*%
X218680000Y-44740000D03*
D16*
X218680000Y-47280000D03*
X218680000Y-49820000D03*
X218680000Y-52360000D03*
X218680000Y-54900000D03*
X218680000Y-57440000D03*
X218680000Y-59980000D03*
X218680000Y-62520000D03*
X226300000Y-62520000D03*
X226300000Y-59980000D03*
X226300000Y-57440000D03*
X226300000Y-54900000D03*
X226300000Y-52360000D03*
X226300000Y-49820000D03*
X226300000Y-47280000D03*
X226300000Y-44740000D03*
%TD*%
D14*
%TO.C,C2*%
X208844888Y-39100000D03*
D12*
X210844888Y-39100000D03*
%TD*%
D14*
%TO.C,U1*%
X207280000Y-45060000D03*
D12*
X207280000Y-47600000D03*
X207280000Y-50140000D03*
X207280000Y-52680000D03*
X214900000Y-52680000D03*
X214900000Y-50140000D03*
X214900000Y-47600000D03*
X214900000Y-45060000D03*
%TD*%
D10*
%TO.C,D1*%
X212930000Y-33100000D03*
D11*
X215470000Y-33100000D03*
%TD*%
D10*
%TO.C,D2*%
X224260000Y-37000000D03*
D11*
X226800000Y-37000000D03*
%TD*%
D10*
%TO.C,D6*%
X212860000Y-72300000D03*
D11*
X215400000Y-72300000D03*
%TD*%
M02*
