<?xml version="1.0" encoding="UTF-8" standalone="no"?>
<!DOCTYPE svg PUBLIC "-//W3C//DTD SVG 1.1//EN" "http://www.w3.org/Graphics/SVG/1.1/DTD/svg11.dtd">
<svg width="100%" height="100%" viewBox="0 0 600 600" version="1.1" xmlns="http://www.w3.org/2000/svg" xmlns:xlink="http://www.w3.org/1999/xlink" xml:space="preserve" xmlns:serif="http://www.serif.com/" style="fill-rule:evenodd;clip-rule:evenodd;stroke-linecap:round;stroke-linejoin:round;stroke-miterlimit:100;">
    <path d="M264.421,190.498C263.208,186.765 262.59,182.863 262.59,178.938C262.59,158.29 279.353,141.527 300,141.527C320.647,141.527 337.41,158.29 337.41,178.938C337.41,182.741 336.83,186.52 335.691,190.148L335.579,190.498C336.792,186.765 338.586,183.245 340.893,180.069C353.029,163.365 376.444,159.657 393.148,171.793C409.852,183.929 413.56,207.344 401.424,224.048C399.117,227.224 396.324,230.017 393.148,232.324C396.324,230.017 399.843,228.224 403.577,227.01C423.213,220.63 444.336,231.393 450.716,251.029C457.097,270.666 446.334,291.789 426.697,298.169C423.081,299.344 419.307,299.961 415.505,299.998L415.137,300C419.063,300 422.964,300.618 426.697,301.831C446.334,308.211 457.097,329.334 450.716,348.971C444.336,368.607 423.213,379.37 403.577,372.99C399.96,371.814 396.544,370.095 393.447,367.891L393.148,367.676C396.324,369.983 399.117,372.776 401.424,375.952C413.56,392.656 409.852,416.071 393.148,428.207C376.444,440.343 353.029,436.635 340.893,419.931C338.658,416.854 336.905,413.455 335.695,409.851L335.579,409.502C336.792,413.235 337.41,417.137 337.41,421.062C337.41,441.71 320.647,458.473 300,458.473C279.353,458.473 262.59,441.71 262.59,421.062C262.59,417.259 263.17,413.48 264.309,409.852L264.421,409.502C263.208,413.235 261.414,416.755 259.107,419.931C246.971,436.635 223.556,440.343 206.852,428.207C190.148,416.071 186.44,392.656 198.576,375.952C200.811,372.876 203.502,370.159 206.556,367.894L206.852,367.676C203.676,369.983 200.157,371.776 196.423,372.99C176.787,379.37 155.664,368.607 149.284,348.971C142.903,329.334 153.666,308.211 173.303,301.831C176.919,300.656 180.693,300.039 184.495,300.002L184.863,300C180.937,300 177.036,299.382 173.303,298.169C153.666,291.789 142.903,270.666 149.284,251.029C155.664,231.393 176.787,220.63 196.423,227.01C200.04,228.186 203.456,229.905 206.553,232.109L206.852,232.324C203.676,230.017 200.883,227.224 198.576,224.048C186.44,207.344 190.148,183.929 206.852,171.793C223.556,159.657 246.971,163.365 259.107,180.069C261.342,183.146 263.095,186.545 264.305,190.149L264.421,190.498Z" style="fill:none;stroke:white;stroke-width:4px;"/>
    <g transform="matrix(0.923982,0,0,0.923982,22.8055,22.8055)">
        <path d="M264.421,190.498C263.208,186.765 262.59,182.863 262.59,178.938C262.59,158.29 279.353,141.527 300,141.527C320.647,141.527 337.41,158.29 337.41,178.938C337.41,182.741 336.83,186.52 335.691,190.148L335.579,190.498C336.792,186.765 338.586,183.245 340.893,180.069C353.029,163.365 376.444,159.657 393.148,171.793C409.852,183.929 413.56,207.344 401.424,224.048C399.117,227.224 396.324,230.017 393.148,232.324C396.324,230.017 399.843,228.224 403.577,227.01C423.213,220.63 444.336,231.393 450.716,251.029C457.097,270.666 446.334,291.789 426.697,298.169C423.081,299.344 419.307,299.961 415.505,299.998L415.137,300C419.063,300 422.964,300.618 426.697,301.831C446.334,308.211 457.097,329.334 450.716,348.971C444.336,368.607 423.213,379.37 403.577,372.99C399.96,371.814 396.544,370.095 393.447,367.891L393.148,367.676C396.324,369.983 399.117,372.776 401.424,375.952C413.56,392.656 409.852,416.071 393.148,428.207C376.444,440.343 353.029,436.635 340.893,419.931C338.658,416.854 336.905,413.455 335.695,409.851L335.579,409.502C336.792,413.235 337.41,417.137 337.41,421.062C337.41,441.71 320.647,458.473 300,458.473C279.353,458.473 262.59,441.71 262.59,421.062C262.59,417.259 263.17,413.48 264.309,409.852L264.421,409.502C263.208,413.235 261.414,416.755 259.107,419.931C246.971,436.635 223.556,440.343 206.852,428.207C190.148,416.071 186.44,392.656 198.576,375.952C200.811,372.876 203.502,370.159 206.556,367.894L206.852,367.676C203.676,369.983 200.157,371.776 196.423,372.99C176.787,379.37 155.664,368.607 149.284,348.971C142.903,329.334 153.666,308.211 173.303,301.831C176.919,300.656 180.693,300.039 184.495,300.002L184.863,300C180.937,300 177.036,299.382 173.303,298.169C153.666,291.789 142.903,270.666 149.284,251.029C155.664,231.393 176.787,220.63 196.423,227.01C200.04,228.186 203.456,229.905 206.553,232.109L206.852,232.324C203.676,230.017 200.883,227.224 198.576,224.048C186.44,207.344 190.148,183.929 206.852,171.793C223.556,159.657 246.971,163.365 259.107,180.069C261.342,183.146 263.095,186.545 264.305,190.149L264.421,190.498Z" style="fill:none;stroke:white;stroke-width:2.16px;stroke-linejoin:bevel;"/>
    </g>
    <g transform="matrix(0.854681,0,0,0.854681,43.5956,43.5956)">
        <path d="M264.421,190.498C263.208,186.765 262.59,182.863 262.59,178.938C262.59,158.29 279.353,141.527 300,141.527C320.647,141.527 337.41,158.29 337.41,178.938C337.41,182.741 336.83,186.52 335.691,190.148L335.579,190.498C336.792,186.765 338.586,183.245 340.893,180.069C353.029,163.365 376.444,159.657 393.148,171.793C409.852,183.929 413.56,207.344 401.424,224.048C399.117,227.224 396.324,230.017 393.148,232.324C396.324,230.017 399.843,228.224 403.577,227.01C423.213,220.63 444.336,231.393 450.716,251.029C457.097,270.666 446.334,291.789 426.697,298.169C423.081,299.344 419.307,299.961 415.505,299.998L415.137,300C419.063,300 422.964,300.618 426.697,301.831C446.334,308.211 457.097,329.334 450.716,348.971C444.336,368.607 423.213,379.37 403.577,372.99C399.96,371.814 396.544,370.095 393.447,367.891L393.148,367.676C396.324,369.983 399.117,372.776 401.424,375.952C413.56,392.656 409.852,416.071 393.148,428.207C376.444,440.343 353.029,436.635 340.893,419.931C338.658,416.854 336.905,413.455 335.695,409.851L335.579,409.502C336.792,413.235 337.41,417.137 337.41,421.062C337.41,441.71 320.647,458.473 300,458.473C279.353,458.473 262.59,441.71 262.59,421.062C262.59,417.259 263.17,413.48 264.309,409.852L264.421,409.502C263.208,413.235 261.414,416.755 259.107,419.931C246.971,436.635 223.556,440.343 206.852,428.207C190.148,416.071 186.44,392.656 198.576,375.952C200.811,372.876 203.502,370.159 206.556,367.894L206.852,367.676C203.676,369.983 200.157,371.776 196.423,372.99C176.787,379.37 155.664,368.607 149.284,348.971C142.903,329.334 153.666,308.211 173.303,301.831C176.919,300.656 180.693,300.039 184.495,300.002L184.863,300C180.937,300 177.036,299.382 173.303,298.169C153.666,291.789 142.903,270.666 149.284,251.029C155.664,231.393 176.787,220.63 196.423,227.01C200.04,228.186 203.456,229.905 206.553,232.109L206.852,232.324C203.676,230.017 200.883,227.224 198.576,224.048C186.44,207.344 190.148,183.929 206.852,171.793C223.556,159.657 246.971,163.365 259.107,180.069C261.342,183.146 263.095,186.545 264.305,190.149L264.421,190.498Z" style="fill:none;stroke:white;stroke-width:2.34px;stroke-linejoin:bevel;"/>
    </g>
    <g transform="matrix(0.794921,0,0,0.794921,61.5236,61.5236)">
        <path d="M264.421,190.498C263.208,186.765 262.59,182.863 262.59,178.938C262.59,158.29 279.353,141.527 300,141.527C320.647,141.527 337.41,158.29 337.41,178.938C337.41,182.741 336.83,186.52 335.691,190.148L335.579,190.498C336.792,186.765 338.586,183.245 340.893,180.069C353.029,163.365 376.444,159.657 393.148,171.793C409.852,183.929 413.56,207.344 401.424,224.048C399.117,227.224 396.324,230.017 393.148,232.324C396.324,230.017 399.843,228.224 403.577,227.01C423.213,220.63 444.336,231.393 450.716,251.029C457.097,270.666 446.334,291.789 426.697,298.169C423.081,299.344 419.307,299.961 415.505,299.998L415.137,300C419.063,300 422.964,300.618 426.697,301.831C446.334,308.211 457.097,329.334 450.716,348.971C444.336,368.607 423.213,379.37 403.577,372.99C399.96,371.814 396.544,370.095 393.447,367.891L393.148,367.676C396.324,369.983 399.117,372.776 401.424,375.952C413.56,392.656 409.852,416.071 393.148,428.207C376.444,440.343 353.029,436.635 340.893,419.931C338.658,416.854 336.905,413.455 335.695,409.851L335.579,409.502C336.792,413.235 337.41,417.137 337.41,421.062C337.41,441.71 320.647,458.473 300,458.473C279.353,458.473 262.59,441.71 262.59,421.062C262.59,417.259 263.17,413.48 264.309,409.852L264.421,409.502C263.208,413.235 261.414,416.755 259.107,419.931C246.971,436.635 223.556,440.343 206.852,428.207C190.148,416.071 186.44,392.656 198.576,375.952C200.811,372.876 203.502,370.159 206.556,367.894L206.852,367.676C203.676,369.983 200.157,371.776 196.423,372.99C176.787,379.37 155.664,368.607 149.284,348.971C142.903,329.334 153.666,308.211 173.303,301.831C176.919,300.656 180.693,300.039 184.495,300.002L184.863,300C180.937,300 177.036,299.382 173.303,298.169C153.666,291.789 142.903,270.666 149.284,251.029C155.664,231.393 176.787,220.63 196.423,227.01C200.04,228.186 203.456,229.905 206.553,232.109L206.852,232.324C203.676,230.017 200.883,227.224 198.576,224.048C186.44,207.344 190.148,183.929 206.852,171.793C223.556,159.657 246.971,163.365 259.107,180.069C261.342,183.146 263.095,186.545 264.305,190.149L264.421,190.498Z" style="fill:none;stroke:white;stroke-width:2.52px;stroke-linejoin:bevel;"/>
    </g>
    <g transform="matrix(0.740468,0,0,0.740468,77.8595,77.8595)">
        <path d="M264.421,190.498C263.208,186.765 262.59,182.863 262.59,178.938C262.59,158.29 279.353,141.527 300,141.527C320.647,141.527 337.41,158.29 337.41,178.938C337.41,182.741 336.83,186.52 335.691,190.148L335.579,190.498C336.792,186.765 338.586,183.245 340.893,180.069C353.029,163.365 376.444,159.657 393.148,171.793C409.852,183.929 413.56,207.344 401.424,224.048C399.117,227.224 396.324,230.017 393.148,232.324C396.324,230.017 399.843,228.224 403.577,227.01C423.213,220.63 444.336,231.393 450.716,251.029C457.097,270.666 446.334,291.789 426.697,298.169C423.081,299.344 419.307,299.961 415.505,299.998L415.137,300C419.063,300 422.964,300.618 426.697,301.831C446.334,308.211 457.097,329.334 450.716,348.971C444.336,368.607 423.213,379.37 403.577,372.99C399.96,371.814 396.544,370.095 393.447,367.891L393.148,367.676C396.324,369.983 399.117,372.776 401.424,375.952C413.56,392.656 409.852,416.071 393.148,428.207C376.444,440.343 353.029,436.635 340.893,419.931C338.658,416.854 336.905,413.455 335.695,409.851L335.579,409.502C336.792,413.235 337.41,417.137 337.41,421.062C337.41,441.71 320.647,458.473 300,458.473C279.353,458.473 262.59,441.71 262.59,421.062C262.59,417.259 263.17,413.48 264.309,409.852L264.421,409.502C263.208,413.235 261.414,416.755 259.107,419.931C246.971,436.635 223.556,440.343 206.852,428.207C190.148,416.071 186.44,392.656 198.576,375.952C200.811,372.876 203.502,370.159 206.556,367.894L206.852,367.676C203.676,369.983 200.157,371.776 196.423,372.99C176.787,379.37 155.664,368.607 149.284,348.971C142.903,329.334 153.666,308.211 173.303,301.831C176.919,300.656 180.693,300.039 184.495,300.002L184.863,300C180.937,300 177.036,299.382 173.303,298.169C153.666,291.789 142.903,270.666 149.284,251.029C155.664,231.393 176.787,220.63 196.423,227.01C200.04,228.186 203.456,229.905 206.553,232.109L206.852,232.324C203.676,230.017 200.883,227.224 198.576,224.048C186.44,207.344 190.148,183.929 206.852,171.793C223.556,159.657 246.971,163.365 259.107,180.069C261.342,183.146 263.095,186.545 264.305,190.149L264.421,190.498Z" style="fill:none;stroke:white;stroke-width:2.7px;stroke-linejoin:bevel;"/>
    </g>
    <g transform="matrix(0.680647,0,0,0.680647,95.806,95.806)">
        <path d="M264.421,190.498C263.208,186.765 262.59,182.863 262.59,178.938C262.59,158.29 279.353,141.527 300,141.527C320.647,141.527 337.41,158.29 337.41,178.938C337.41,182.741 336.83,186.52 335.691,190.148L335.579,190.498C336.792,186.765 338.586,183.245 340.893,180.069C353.029,163.365 376.444,159.657 393.148,171.793C409.852,183.929 413.56,207.344 401.424,224.048C399.117,227.224 396.324,230.017 393.148,232.324C396.324,230.017 399.843,228.224 403.577,227.01C423.213,220.63 444.336,231.393 450.716,251.029C457.097,270.666 446.334,291.789 426.697,298.169C423.081,299.344 419.307,299.961 415.505,299.998L415.137,300C419.063,300 422.964,300.618 426.697,301.831C446.334,308.211 457.097,329.334 450.716,348.971C444.336,368.607 423.213,379.37 403.577,372.99C399.96,371.814 396.544,370.095 393.447,367.891L393.148,367.676C396.324,369.983 399.117,372.776 401.424,375.952C413.56,392.656 409.852,416.071 393.148,428.207C376.444,440.343 353.029,436.635 340.893,419.931C338.658,416.854 336.905,413.455 335.695,409.851L335.579,409.502C336.792,413.235 337.41,417.137 337.41,421.062C337.41,441.71 320.647,458.473 300,458.473C279.353,458.473 262.59,441.71 262.59,421.062C262.59,417.259 263.17,413.48 264.309,409.852L264.421,409.502C263.208,413.235 261.414,416.755 259.107,419.931C246.971,436.635 223.556,440.343 206.852,428.207C190.148,416.071 186.44,392.656 198.576,375.952C200.811,372.876 203.502,370.159 206.556,367.894L206.852,367.676C203.676,369.983 200.157,371.776 196.423,372.99C176.787,379.37 155.664,368.607 149.284,348.971C142.903,329.334 153.666,308.211 173.303,301.831C176.919,300.656 180.693,300.039 184.495,300.002L184.863,300C180.937,300 177.036,299.382 173.303,298.169C153.666,291.789 142.903,270.666 149.284,251.029C155.664,231.393 176.787,220.63 196.423,227.01C200.04,228.186 203.456,229.905 206.553,232.109L206.852,232.324C203.676,230.017 200.883,227.224 198.576,224.048C186.44,207.344 190.148,183.929 206.852,171.793C223.556,159.657 246.971,163.365 259.107,180.069C261.342,183.146 263.095,186.545 264.305,190.149L264.421,190.498Z" style="fill:none;stroke:white;stroke-width:2.94px;stroke-linejoin:bevel;"/>
    </g>
    <g transform="matrix(0.624266,0,0,0.624266,112.72,112.72)">
        <path d="M264.421,190.498C263.208,186.765 262.59,182.863 262.59,178.938C262.59,158.29 279.353,141.527 300,141.527C320.647,141.527 337.41,158.29 337.41,178.938C337.41,182.741 336.83,186.52 335.691,190.148L335.579,190.498C336.792,186.765 338.586,183.245 340.893,180.069C353.029,163.365 376.444,159.657 393.148,171.793C409.852,183.929 413.56,207.344 401.424,224.048C399.117,227.224 396.324,230.017 393.148,232.324C396.324,230.017 399.843,228.224 403.577,227.01C423.213,220.63 444.336,231.393 450.716,251.029C457.097,270.666 446.334,291.789 426.697,298.169C423.081,299.344 419.307,299.961 415.505,299.998L415.137,300C419.063,300 422.964,300.618 426.697,301.831C446.334,308.211 457.097,329.334 450.716,348.971C444.336,368.607 423.213,379.37 403.577,372.99C399.96,371.814 396.544,370.095 393.447,367.891L393.148,367.676C396.324,369.983 399.117,372.776 401.424,375.952C413.56,392.656 409.852,416.071 393.148,428.207C376.444,440.343 353.029,436.635 340.893,419.931C338.658,416.854 336.905,413.455 335.695,409.851L335.579,409.502C336.792,413.235 337.41,417.137 337.41,421.062C337.41,441.71 320.647,458.473 300,458.473C279.353,458.473 262.59,441.71 262.59,421.062C262.59,417.259 263.17,413.48 264.309,409.852L264.421,409.502C263.208,413.235 261.414,416.755 259.107,419.931C246.971,436.635 223.556,440.343 206.852,428.207C190.148,416.071 186.44,392.656 198.576,375.952C200.811,372.876 203.502,370.159 206.556,367.894L206.852,367.676C203.676,369.983 200.157,371.776 196.423,372.99C176.787,379.37 155.664,368.607 149.284,348.971C142.903,329.334 153.666,308.211 173.303,301.831C176.919,300.656 180.693,300.039 184.495,300.002L184.863,300C180.937,300 177.036,299.382 173.303,298.169C153.666,291.789 142.903,270.666 149.284,251.029C155.664,231.393 176.787,220.63 196.423,227.01C200.04,228.186 203.456,229.905 206.553,232.109L206.852,232.324C203.676,230.017 200.883,227.224 198.576,224.048C186.44,207.344 190.148,183.929 206.852,171.793C223.556,159.657 246.971,163.365 259.107,180.069C261.342,183.146 263.095,186.545 264.305,190.149L264.421,190.498Z" style="fill:none;stroke:white;stroke-width:3.2px;stroke-linejoin:bevel;"/>
    </g>
    <g transform="matrix(0.575365,0,0,0.575365,127.39,127.39)">
        <path d="M264.421,190.498C263.208,186.765 262.59,182.863 262.59,178.938C262.59,158.29 279.353,141.527 300,141.527C320.647,141.527 337.41,158.29 337.41,178.938C337.41,182.741 336.83,186.52 335.691,190.148L335.579,190.498C336.792,186.765 338.586,183.245 340.893,180.069C353.029,163.365 376.444,159.657 393.148,171.793C409.852,183.929 413.56,207.344 401.424,224.048C399.117,227.224 396.324,230.017 393.148,232.324C396.324,230.017 399.843,228.224 403.577,227.01C423.213,220.63 444.336,231.393 450.716,251.029C457.097,270.666 446.334,291.789 426.697,298.169C423.081,299.344 419.307,299.961 415.505,299.998L415.137,300C419.063,300 422.964,300.618 426.697,301.831C446.334,308.211 457.097,329.334 450.716,348.971C444.336,368.607 423.213,379.37 403.577,372.99C399.96,371.814 396.544,370.095 393.447,367.891L393.148,367.676C396.324,369.983 399.117,372.776 401.424,375.952C413.56,392.656 409.852,416.071 393.148,428.207C376.444,440.343 353.029,436.635 340.893,419.931C338.658,416.854 336.905,413.455 335.695,409.851L335.579,409.502C336.792,413.235 337.41,417.137 337.41,421.062C337.41,441.71 320.647,458.473 300,458.473C279.353,458.473 262.59,441.71 262.59,421.062C262.59,417.259 263.17,413.48 264.309,409.852L264.421,409.502C263.208,413.235 261.414,416.755 259.107,419.931C246.971,436.635 223.556,440.343 206.852,428.207C190.148,416.071 186.44,392.656 198.576,375.952C200.811,372.876 203.502,370.159 206.556,367.894L206.852,367.676C203.676,369.983 200.157,371.776 196.423,372.99C176.787,379.37 155.664,368.607 149.284,348.971C142.903,329.334 153.666,308.211 173.303,301.831C176.919,300.656 180.693,300.039 184.495,300.002L184.863,300C180.937,300 177.036,299.382 173.303,298.169C153.666,291.789 142.903,270.666 149.284,251.029C155.664,231.393 176.787,220.63 196.423,227.01C200.04,228.186 203.456,229.905 206.553,232.109L206.852,232.324C203.676,230.017 200.883,227.224 198.576,224.048C186.44,207.344 190.148,183.929 206.852,171.793C223.556,159.657 246.971,163.365 259.107,180.069C261.342,183.146 263.095,186.545 264.305,190.149L264.421,190.498Z" style="fill:none;stroke:white;stroke-width:3.48px;stroke-linejoin:bevel;"/>
    </g>
    <g transform="matrix(0.524952,0,0,0.524952,142.514,142.514)">
        <path d="M264.421,190.498C263.208,186.765 262.59,182.863 262.59,178.938C262.59,158.29 279.353,141.527 300,141.527C320.647,141.527 337.41,158.29 337.41,178.938C337.41,182.741 336.83,186.52 335.691,190.148L335.579,190.498C336.792,186.765 338.586,183.245 340.893,180.069C353.029,163.365 376.444,159.657 393.148,171.793C409.852,183.929 413.56,207.344 401.424,224.048C399.117,227.224 396.324,230.017 393.148,232.324C396.324,230.017 399.843,228.224 403.577,227.01C423.213,220.63 444.336,231.393 450.716,251.029C457.097,270.666 446.334,291.789 426.697,298.169C423.081,299.344 419.307,299.961 415.505,299.998L415.137,300C419.063,300 422.964,300.618 426.697,301.831C446.334,308.211 457.097,329.334 450.716,348.971C444.336,368.607 423.213,379.37 403.577,372.99C399.96,371.814 396.544,370.095 393.447,367.891L393.148,367.676C396.324,369.983 399.117,372.776 401.424,375.952C413.56,392.656 409.852,416.071 393.148,428.207C376.444,440.343 353.029,436.635 340.893,419.931C338.658,416.854 336.905,413.455 335.695,409.851L335.579,409.502C336.792,413.235 337.41,417.137 337.41,421.062C337.41,441.71 320.647,458.473 300,458.473C279.353,458.473 262.59,441.71 262.59,421.062C262.59,417.259 263.17,413.48 264.309,409.852L264.421,409.502C263.208,413.235 261.414,416.755 259.107,419.931C246.971,436.635 223.556,440.343 206.852,428.207C190.148,416.071 186.44,392.656 198.576,375.952C200.811,372.876 203.502,370.159 206.556,367.894L206.852,367.676C203.676,369.983 200.157,371.776 196.423,372.99C176.787,379.37 155.664,368.607 149.284,348.971C142.903,329.334 153.666,308.211 173.303,301.831C176.919,300.656 180.693,300.039 184.495,300.002L184.863,300C180.937,300 177.036,299.382 173.303,298.169C153.666,291.789 142.903,270.666 149.284,251.029C155.664,231.393 176.787,220.63 196.423,227.01C200.04,228.186 203.456,229.905 206.553,232.109L206.852,232.324C203.676,230.017 200.883,227.224 198.576,224.048C186.44,207.344 190.148,183.929 206.852,171.793C223.556,159.657 246.971,163.365 259.107,180.069C261.342,183.146 263.095,186.545 264.305,190.149L264.421,190.498Z" style="fill:none;stroke:white;stroke-width:3.81px;stroke-linejoin:bevel;"/>
    </g>
    <g transform="matrix(0.474672,0,0,0.474672,157.598,157.598)">
        <path d="M264.421,190.498C263.208,186.765 262.59,182.863 262.59,178.938C262.59,158.29 279.353,141.527 300,141.527C320.647,141.527 337.41,158.29 337.41,178.938C337.41,182.741 336.83,186.52 335.691,190.148L335.579,190.498C336.792,186.765 338.586,183.245 340.893,180.069C353.029,163.365 376.444,159.657 393.148,171.793C409.852,183.929 413.56,207.344 401.424,224.048C399.117,227.224 396.324,230.017 393.148,232.324C396.324,230.017 399.843,228.224 403.577,227.01C423.213,220.63 444.336,231.393 450.716,251.029C457.097,270.666 446.334,291.789 426.697,298.169C423.081,299.344 419.307,299.961 415.505,299.998L415.137,300C419.063,300 422.964,300.618 426.697,301.831C446.334,308.211 457.097,329.334 450.716,348.971C444.336,368.607 423.213,379.37 403.577,372.99C399.96,371.814 396.544,370.095 393.447,367.891L393.148,367.676C396.324,369.983 399.117,372.776 401.424,375.952C413.56,392.656 409.852,416.071 393.148,428.207C376.444,440.343 353.029,436.635 340.893,419.931C338.658,416.854 336.905,413.455 335.695,409.851L335.579,409.502C336.792,413.235 337.41,417.137 337.41,421.062C337.41,441.71 320.647,458.473 300,458.473C279.353,458.473 262.59,441.71 262.59,421.062C262.59,417.259 263.17,413.48 264.309,409.852L264.421,409.502C263.208,413.235 261.414,416.755 259.107,419.931C246.971,436.635 223.556,440.343 206.852,428.207C190.148,416.071 186.44,392.656 198.576,375.952C200.811,372.876 203.502,370.159 206.556,367.894L206.852,367.676C203.676,369.983 200.157,371.776 196.423,372.99C176.787,379.37 155.664,368.607 149.284,348.971C142.903,329.334 153.666,308.211 173.303,301.831C176.919,300.656 180.693,300.039 184.495,300.002L184.863,300C180.937,300 177.036,299.382 173.303,298.169C153.666,291.789 142.903,270.666 149.284,251.029C155.664,231.393 176.787,220.63 196.423,227.01C200.04,228.186 203.456,229.905 206.553,232.109L206.852,232.324C203.676,230.017 200.883,227.224 198.576,224.048C186.44,207.344 190.148,183.929 206.852,171.793C223.556,159.657 246.971,163.365 259.107,180.069C261.342,183.146 263.095,186.545 264.305,190.149L264.421,190.498Z" style="fill:none;stroke:white;stroke-width:4.21px;stroke-linejoin:bevel;"/>
    </g>
    <g transform="matrix(0.435353,0,0,0.435353,169.394,169.394)">
        <path d="M264.421,190.498C263.208,186.765 262.59,182.863 262.59,178.938C262.59,158.29 279.353,141.527 300,141.527C320.647,141.527 337.41,158.29 337.41,178.938C337.41,182.741 336.83,186.52 335.691,190.148L335.579,190.498C336.792,186.765 338.586,183.245 340.893,180.069C353.029,163.365 376.444,159.657 393.148,171.793C409.852,183.929 413.56,207.344 401.424,224.048C399.117,227.224 396.324,230.017 393.148,232.324C396.324,230.017 399.843,228.224 403.577,227.01C423.213,220.63 444.336,231.393 450.716,251.029C457.097,270.666 446.334,291.789 426.697,298.169C423.081,299.344 419.307,299.961 415.505,299.998L415.137,300C419.063,300 422.964,300.618 426.697,301.831C446.334,308.211 457.097,329.334 450.716,348.971C444.336,368.607 423.213,379.37 403.577,372.99C399.96,371.814 396.544,370.095 393.447,367.891L393.148,367.676C396.324,369.983 399.117,372.776 401.424,375.952C413.56,392.656 409.852,416.071 393.148,428.207C376.444,440.343 353.029,436.635 340.893,419.931C338.658,416.854 336.905,413.455 335.695,409.851L335.579,409.502C336.792,413.235 337.41,417.137 337.41,421.062C337.41,441.71 320.647,458.473 300,458.473C279.353,458.473 262.59,441.71 262.59,421.062C262.59,417.259 263.17,413.48 264.309,409.852L264.421,409.502C263.208,413.235 261.414,416.755 259.107,419.931C246.971,436.635 223.556,440.343 206.852,428.207C190.148,416.071 186.44,392.656 198.576,375.952C200.811,372.876 203.502,370.159 206.556,367.894L206.852,367.676C203.676,369.983 200.157,371.776 196.423,372.99C176.787,379.37 155.664,368.607 149.284,348.971C142.903,329.334 153.666,308.211 173.303,301.831C176.919,300.656 180.693,300.039 184.495,300.002L184.863,300C180.937,300 177.036,299.382 173.303,298.169C153.666,291.789 142.903,270.666 149.284,251.029C155.664,231.393 176.787,220.63 196.423,227.01C200.04,228.186 203.456,229.905 206.553,232.109L206.852,232.324C203.676,230.017 200.883,227.224 198.576,224.048C186.44,207.344 190.148,183.929 206.852,171.793C223.556,159.657 246.971,163.365 259.107,180.069C261.342,183.146 263.095,186.545 264.305,190.149L264.421,190.498Z" style="fill:none;stroke:white;stroke-width:4.59px;stroke-linejoin:bevel;"/>
    </g>
    <g transform="matrix(0.40125,0,0,0.40125,179.625,179.625)">
        <path d="M264.421,190.498C263.208,186.765 262.59,182.863 262.59,178.938C262.59,158.29 279.353,141.527 300,141.527C320.647,141.527 337.41,158.29 337.41,178.938C337.41,182.741 336.83,186.52 335.691,190.148L335.579,190.498C336.792,186.765 338.586,183.245 340.893,180.069C353.029,163.365 376.444,159.657 393.148,171.793C409.852,183.929 413.56,207.344 401.424,224.048C399.117,227.224 396.324,230.017 393.148,232.324C396.324,230.017 399.843,228.224 403.577,227.01C423.213,220.63 444.336,231.393 450.716,251.029C457.097,270.666 446.334,291.789 426.697,298.169C423.081,299.344 419.307,299.961 415.505,299.998L415.137,300C419.063,300 422.964,300.618 426.697,301.831C446.334,308.211 457.097,329.334 450.716,348.971C444.336,368.607 423.213,379.37 403.577,372.99C399.96,371.814 396.544,370.095 393.447,367.891L393.148,367.676C396.324,369.983 399.117,372.776 401.424,375.952C413.56,392.656 409.852,416.071 393.148,428.207C376.444,440.343 353.029,436.635 340.893,419.931C338.658,416.854 336.905,413.455 335.695,409.851L335.579,409.502C336.792,413.235 337.41,417.137 337.41,421.062C337.41,441.71 320.647,458.473 300,458.473C279.353,458.473 262.59,441.71 262.59,421.062C262.59,417.259 263.17,413.48 264.309,409.852L264.421,409.502C263.208,413.235 261.414,416.755 259.107,419.931C246.971,436.635 223.556,440.343 206.852,428.207C190.148,416.071 186.44,392.656 198.576,375.952C200.811,372.876 203.502,370.159 206.556,367.894L206.852,367.676C203.676,369.983 200.157,371.776 196.423,372.99C176.787,379.37 155.664,368.607 149.284,348.971C142.903,329.334 153.666,308.211 173.303,301.831C176.919,300.656 180.693,300.039 184.495,300.002L184.863,300C180.937,300 177.036,299.382 173.303,298.169C153.666,291.789 142.903,270.666 149.284,251.029C155.664,231.393 176.787,220.63 196.423,227.01C200.04,228.186 203.456,229.905 206.553,232.109L206.852,232.324C203.676,230.017 200.883,227.224 198.576,224.048C186.44,207.344 190.148,183.929 206.852,171.793C223.556,159.657 246.971,163.365 259.107,180.069C261.342,183.146 263.095,186.545 264.305,190.149L264.421,190.498Z" style="fill:none;stroke:white;stroke-width:4.98px;stroke-linejoin:bevel;"/>
    </g>
    <g transform="matrix(0.366093,0,0,0.366093,190.172,190.172)">
        <path d="M264.421,190.498C263.208,186.765 262.59,182.863 262.59,178.938C262.59,158.29 279.353,141.527 300,141.527C320.647,141.527 337.41,158.29 337.41,178.938C337.41,182.741 336.83,186.52 335.691,190.148L335.579,190.498C336.792,186.765 338.586,183.245 340.893,180.069C353.029,163.365 376.444,159.657 393.148,171.793C409.852,183.929 413.56,207.344 401.424,224.048C399.117,227.224 396.324,230.017 393.148,232.324C396.324,230.017 399.843,228.224 403.577,227.01C423.213,220.63 444.336,231.393 450.716,251.029C457.097,270.666 446.334,291.789 426.697,298.169C423.081,299.344 419.307,299.961 415.505,299.998L415.137,300C419.063,300 422.964,300.618 426.697,301.831C446.334,308.211 457.097,329.334 450.716,348.971C444.336,368.607 423.213,379.37 403.577,372.99C399.96,371.814 396.544,370.095 393.447,367.891L393.148,367.676C396.324,369.983 399.117,372.776 401.424,375.952C413.56,392.656 409.852,416.071 393.148,428.207C376.444,440.343 353.029,436.635 340.893,419.931C338.658,416.854 336.905,413.455 335.695,409.851L335.579,409.502C336.792,413.235 337.41,417.137 337.41,421.062C337.41,441.71 320.647,458.473 300,458.473C279.353,458.473 262.59,441.71 262.59,421.062C262.59,417.259 263.17,413.48 264.309,409.852L264.421,409.502C263.208,413.235 261.414,416.755 259.107,419.931C246.971,436.635 223.556,440.343 206.852,428.207C190.148,416.071 186.44,392.656 198.576,375.952C200.811,372.876 203.502,370.159 206.556,367.894L206.852,367.676C203.676,369.983 200.157,371.776 196.423,372.99C176.787,379.37 155.664,368.607 149.284,348.971C142.903,329.334 153.666,308.211 173.303,301.831C176.919,300.656 180.693,300.039 184.495,300.002L184.863,300C180.937,300 177.036,299.382 173.303,298.169C153.666,291.789 142.903,270.666 149.284,251.029C155.664,231.393 176.787,220.63 196.423,227.01C200.04,228.186 203.456,229.905 206.553,232.109L206.852,232.324C203.676,230.017 200.883,227.224 198.576,224.048C186.44,207.344 190.148,183.929 206.852,171.793C223.556,159.657 246.971,163.365 259.107,180.069C261.342,183.146 263.095,186.545 264.305,190.149L264.421,190.498Z" style="fill:none;stroke:white;stroke-width:5.46px;stroke-linejoin:bevel;"/>
    </g>
    <g transform="matrix(0.331028,0,0,0.331028,200.691,200.691)">
        <path d="M264.421,190.498C263.208,186.765 262.59,182.863 262.59,178.938C262.59,158.29 279.353,141.527 300,141.527C320.647,141.527 337.41,158.29 337.41,178.938C337.41,182.741 336.83,186.52 335.691,190.148L335.579,190.498C336.792,186.765 338.586,183.245 340.893,180.069C353.029,163.365 376.444,159.657 393.148,171.793C409.852,183.929 413.56,207.344 401.424,224.048C399.117,227.224 396.324,230.017 393.148,232.324C396.324,230.017 399.843,228.224 403.577,227.01C423.213,220.63 444.336,231.393 450.716,251.029C457.097,270.666 446.334,291.789 426.697,298.169C423.081,299.344 419.307,299.961 415.505,299.998L415.137,300C419.063,300 422.964,300.618 426.697,301.831C446.334,308.211 457.097,329.334 450.716,348.971C444.336,368.607 423.213,379.37 403.577,372.99C399.96,371.814 396.544,370.095 393.447,367.891L393.148,367.676C396.324,369.983 399.117,372.776 401.424,375.952C413.56,392.656 409.852,416.071 393.148,428.207C376.444,440.343 353.029,436.635 340.893,419.931C338.658,416.854 336.905,413.455 335.695,409.851L335.579,409.502C336.792,413.235 337.41,417.137 337.41,421.062C337.41,441.71 320.647,458.473 300,458.473C279.353,458.473 262.59,441.71 262.59,421.062C262.59,417.259 263.17,413.48 264.309,409.852L264.421,409.502C263.208,413.235 261.414,416.755 259.107,419.931C246.971,436.635 223.556,440.343 206.852,428.207C190.148,416.071 186.44,392.656 198.576,375.952C200.811,372.876 203.502,370.159 206.556,367.894L206.852,367.676C203.676,369.983 200.157,371.776 196.423,372.99C176.787,379.37 155.664,368.607 149.284,348.971C142.903,329.334 153.666,308.211 173.303,301.831C176.919,300.656 180.693,300.039 184.495,300.002L184.863,300C180.937,300 177.036,299.382 173.303,298.169C153.666,291.789 142.903,270.666 149.284,251.029C155.664,231.393 176.787,220.63 196.423,227.01C200.04,228.186 203.456,229.905 206.553,232.109L206.852,232.324C203.676,230.017 200.883,227.224 198.576,224.048C186.44,207.344 190.148,183.929 206.852,171.793C223.556,159.657 246.971,163.365 259.107,180.069C261.342,183.146 263.095,186.545 264.305,190.149L264.421,190.498Z" style="fill:none;stroke:white;stroke-width:6.04px;stroke-linejoin:bevel;"/>
    </g>
    <g transform="matrix(0.303608,0,0,0.303608,208.918,208.918)">
        <path d="M264.421,190.498C263.208,186.765 262.59,182.863 262.59,178.938C262.59,158.29 279.353,141.527 300,141.527C320.647,141.527 337.41,158.29 337.41,178.938C337.41,182.741 336.83,186.52 335.691,190.148L335.579,190.498C336.792,186.765 338.586,183.245 340.893,180.069C353.029,163.365 376.444,159.657 393.148,171.793C409.852,183.929 413.56,207.344 401.424,224.048C399.117,227.224 396.324,230.017 393.148,232.324C396.324,230.017 399.843,228.224 403.577,227.01C423.213,220.63 444.336,231.393 450.716,251.029C457.097,270.666 446.334,291.789 426.697,298.169C423.081,299.344 419.307,299.961 415.505,299.998L415.137,300C419.063,300 422.964,300.618 426.697,301.831C446.334,308.211 457.097,329.334 450.716,348.971C444.336,368.607 423.213,379.37 403.577,372.99C399.96,371.814 396.544,370.095 393.447,367.891L393.148,367.676C396.324,369.983 399.117,372.776 401.424,375.952C413.56,392.656 409.852,416.071 393.148,428.207C376.444,440.343 353.029,436.635 340.893,419.931C338.658,416.854 336.905,413.455 335.695,409.851L335.579,409.502C336.792,413.235 337.41,417.137 337.41,421.062C337.41,441.71 320.647,458.473 300,458.473C279.353,458.473 262.59,441.71 262.59,421.062C262.59,417.259 263.17,413.48 264.309,409.852L264.421,409.502C263.208,413.235 261.414,416.755 259.107,419.931C246.971,436.635 223.556,440.343 206.852,428.207C190.148,416.071 186.44,392.656 198.576,375.952C200.811,372.876 203.502,370.159 206.556,367.894L206.852,367.676C203.676,369.983 200.157,371.776 196.423,372.99C176.787,379.37 155.664,368.607 149.284,348.971C142.903,329.334 153.666,308.211 173.303,301.831C176.919,300.656 180.693,300.039 184.495,300.002L184.863,300C180.937,300 177.036,299.382 173.303,298.169C153.666,291.789 142.903,270.666 149.284,251.029C155.664,231.393 176.787,220.63 196.423,227.01C200.04,228.186 203.456,229.905 206.553,232.109L206.852,232.324C203.676,230.017 200.883,227.224 198.576,224.048C186.44,207.344 190.148,183.929 206.852,171.793C223.556,159.657 246.971,163.365 259.107,180.069C261.342,183.146 263.095,186.545 264.305,190.149L264.421,190.498Z" style="fill:none;stroke:white;stroke-width:6.59px;stroke-linejoin:bevel;"/>
    </g>
    <g transform="matrix(0.279826,0,0,0.279826,216.052,216.052)">
        <path d="M264.421,190.498C263.208,186.765 262.59,182.863 262.59,178.938C262.59,158.29 279.353,141.527 300,141.527C320.647,141.527 337.41,158.29 337.41,178.938C337.41,182.741 336.83,186.52 335.691,190.148L335.579,190.498C336.792,186.765 338.586,183.245 340.893,180.069C353.029,163.365 376.444,159.657 393.148,171.793C409.852,183.929 413.56,207.344 401.424,224.048C399.117,227.224 396.324,230.017 393.148,232.324C396.324,230.017 399.843,228.224 403.577,227.01C423.213,220.63 444.336,231.393 450.716,251.029C457.097,270.666 446.334,291.789 426.697,298.169C423.081,299.344 419.307,299.961 415.505,299.998L415.137,300C419.063,300 422.964,300.618 426.697,301.831C446.334,308.211 457.097,329.334 450.716,348.971C444.336,368.607 423.213,379.37 403.577,372.99C399.96,371.814 396.544,370.095 393.447,367.891L393.148,367.676C396.324,369.983 399.117,372.776 401.424,375.952C413.56,392.656 409.852,416.071 393.148,428.207C376.444,440.343 353.029,436.635 340.893,419.931C338.658,416.854 336.905,413.455 335.695,409.851L335.579,409.502C336.792,413.235 337.41,417.137 337.41,421.062C337.41,441.71 320.647,458.473 300,458.473C279.353,458.473 262.59,441.71 262.59,421.062C262.59,417.259 263.17,413.48 264.309,409.852L264.421,409.502C263.208,413.235 261.414,416.755 259.107,419.931C246.971,436.635 223.556,440.343 206.852,428.207C190.148,416.071 186.44,392.656 198.576,375.952C200.811,372.876 203.502,370.159 206.556,367.894L206.852,367.676C203.676,369.983 200.157,371.776 196.423,372.99C176.787,379.37 155.664,368.607 149.284,348.971C142.903,329.334 153.666,308.211 173.303,301.831C176.919,300.656 180.693,300.039 184.495,300.002L184.863,300C180.937,300 177.036,299.382 173.303,298.169C153.666,291.789 142.903,270.666 149.284,251.029C155.664,231.393 176.787,220.63 196.423,227.01C200.04,228.186 203.456,229.905 206.553,232.109L206.852,232.324C203.676,230.017 200.883,227.224 198.576,224.048C186.44,207.344 190.148,183.929 206.852,171.793C223.556,159.657 246.971,163.365 259.107,180.069C261.342,183.146 263.095,186.545 264.305,190.149L264.421,190.498Z" style="fill:none;stroke:white;stroke-width:7.15px;stroke-linejoin:bevel;"/>
    </g>
</svg>
